%TF.GenerationSoftware,KiCad,Pcbnew,9.0.7*%
%TF.CreationDate,2026-04-10T14:20:07+02:00*%
%TF.ProjectId,RP_spectroscopy,52505f73-7065-4637-9472-6f73636f7079,rev?*%
%TF.SameCoordinates,Original*%
%TF.FileFunction,Drillmap*%
%TF.FilePolarity,Positive*%
%FSLAX45Y45*%
G04 Gerber Fmt 4.5, Leading zero omitted, Abs format (unit mm)*
G04 Created by KiCad (PCBNEW 9.0.7) date 2026-04-10 14:20:07*
%MOMM*%
%LPD*%
G01*
G04 APERTURE LIST*
%ADD10C,0.200000*%
%ADD11C,0.050000*%
%ADD12C,0.100000*%
G04 APERTURE END LIST*
D10*
X10970000Y-4887000D02*
G75*
G02*
X10670000Y-4887000I-150000J0D01*
G01*
X10670000Y-4887000D02*
G75*
G02*
X10970000Y-4887000I150000J0D01*
G01*
X16370000Y-4887000D02*
G75*
G02*
X16070000Y-4887000I-150000J0D01*
G01*
X16070000Y-4887000D02*
G75*
G02*
X16370000Y-4887000I150000J0D01*
G01*
X10970000Y-13287000D02*
G75*
G02*
X10670000Y-13287000I-150000J0D01*
G01*
X10670000Y-13287000D02*
G75*
G02*
X10970000Y-13287000I150000J0D01*
G01*
D11*
X18039530Y-5482143D02*
X18037500Y-12780000D01*
X18037500Y-12780000D02*
G75*
G02*
X17037500Y-13780000I-1000000J0D01*
G01*
X9987500Y-13780000D02*
G75*
G02*
X8987500Y-12780000I0J1000000D01*
G01*
X16664120Y-4057748D02*
X15130619Y-3520647D01*
D10*
X16370000Y-13287000D02*
G75*
G02*
X16070000Y-13287000I-150000J0D01*
G01*
X16070000Y-13287000D02*
G75*
G02*
X16370000Y-13287000I150000J0D01*
G01*
D11*
X17037500Y-13780000D02*
X9987500Y-13780000D01*
X8987500Y-12780000D02*
X8992500Y-5482143D01*
X11901382Y-3521848D02*
X10367500Y-4057741D01*
X15130619Y-3520647D02*
X13516015Y-3338571D01*
X8992500Y-4922857D02*
X10367500Y-4057741D01*
X18039530Y-5482143D02*
X18039335Y-4922701D01*
X18039335Y-4922701D02*
X16664120Y-4057748D01*
X8992500Y-5482143D02*
X8992500Y-4922857D01*
X13516015Y-3338571D02*
X11901382Y-3521848D01*
D10*
D12*
X9855000Y-6335000D02*
X9905000Y-6385000D01*
X9905000Y-6335000D02*
X9855000Y-6385000D01*
X9855000Y-8935000D02*
X9905000Y-8985000D01*
X9905000Y-8935000D02*
X9855000Y-8985000D01*
X9855000Y-12995000D02*
X9905000Y-13045000D01*
X9905000Y-12995000D02*
X9855000Y-13045000D01*
X11155000Y-9175000D02*
X11205000Y-9225000D01*
X11205000Y-9175000D02*
X11155000Y-9225000D01*
X11335000Y-8755000D02*
X11385000Y-8805000D01*
X11385000Y-8755000D02*
X11335000Y-8805000D01*
X11351066Y-8458934D02*
X11401066Y-8508934D01*
X11401066Y-8458934D02*
X11351066Y-8508934D01*
X11355000Y-7875000D02*
X11405000Y-7925000D01*
X11405000Y-7875000D02*
X11355000Y-7925000D01*
X11429798Y-8235000D02*
X11479798Y-8285000D01*
X11479798Y-8235000D02*
X11429798Y-8285000D01*
X11455000Y-5255000D02*
X11505000Y-5305000D01*
X11505000Y-5255000D02*
X11455000Y-5305000D01*
X11455000Y-9215000D02*
X11505000Y-9265000D01*
X11505000Y-9215000D02*
X11455000Y-9265000D01*
X11455000Y-9775000D02*
X11505000Y-9825000D01*
X11505000Y-9775000D02*
X11455000Y-9825000D01*
X11735000Y-4935000D02*
X11785000Y-4985000D01*
X11785000Y-4935000D02*
X11735000Y-4985000D01*
X11735000Y-7035000D02*
X11785000Y-7085000D01*
X11785000Y-7035000D02*
X11735000Y-7085000D01*
X11895000Y-9355000D02*
X11945000Y-9405000D01*
X11945000Y-9355000D02*
X11895000Y-9405000D01*
X11895000Y-10635000D02*
X11945000Y-10685000D01*
X11945000Y-10635000D02*
X11895000Y-10685000D01*
X11955000Y-6415000D02*
X12005000Y-6465000D01*
X12005000Y-6415000D02*
X11955000Y-6465000D01*
X12055000Y-4295000D02*
X12105000Y-4345000D01*
X12105000Y-4295000D02*
X12055000Y-4345000D01*
X12055000Y-6215000D02*
X12105000Y-6265000D01*
X12105000Y-6215000D02*
X12055000Y-6265000D01*
X12118750Y-5395000D02*
X12168750Y-5445000D01*
X12168750Y-5395000D02*
X12118750Y-5445000D01*
X12175000Y-12035000D02*
X12225000Y-12085000D01*
X12225000Y-12035000D02*
X12175000Y-12085000D01*
X12295000Y-4335000D02*
X12345000Y-4385000D01*
X12345000Y-4335000D02*
X12295000Y-4385000D01*
X12295000Y-9775000D02*
X12345000Y-9825000D01*
X12345000Y-9775000D02*
X12295000Y-9825000D01*
X12315000Y-5175000D02*
X12365000Y-5225000D01*
X12365000Y-5175000D02*
X12315000Y-5225000D01*
X12315000Y-5715000D02*
X12365000Y-5765000D01*
X12365000Y-5715000D02*
X12315000Y-5765000D01*
X12315000Y-7255000D02*
X12365000Y-7305000D01*
X12365000Y-7255000D02*
X12315000Y-7305000D01*
X12351250Y-9251250D02*
X12401250Y-9301250D01*
X12401250Y-9251250D02*
X12351250Y-9301250D01*
X12495000Y-8595000D02*
X12545000Y-8645000D01*
X12545000Y-8595000D02*
X12495000Y-8645000D01*
X12575000Y-6655000D02*
X12625000Y-6705000D01*
X12625000Y-6655000D02*
X12575000Y-6705000D01*
X12635000Y-5615000D02*
X12685000Y-5665000D01*
X12685000Y-5615000D02*
X12635000Y-5665000D01*
X12935000Y-9095000D02*
X12985000Y-9145000D01*
X12985000Y-9095000D02*
X12935000Y-9145000D01*
X13035000Y-9635000D02*
X13085000Y-9685000D01*
X13085000Y-9635000D02*
X13035000Y-9685000D01*
X13075000Y-11635000D02*
X13125000Y-11685000D01*
X13125000Y-11635000D02*
X13075000Y-11685000D01*
X13195000Y-5015000D02*
X13245000Y-5065000D01*
X13245000Y-5015000D02*
X13195000Y-5065000D01*
X13222500Y-12762500D02*
X13272500Y-12812500D01*
X13272500Y-12762500D02*
X13222500Y-12812500D01*
X13355000Y-8415000D02*
X13405000Y-8465000D01*
X13405000Y-8415000D02*
X13355000Y-8465000D01*
X13515000Y-9355000D02*
X13565000Y-9405000D01*
X13565000Y-9355000D02*
X13515000Y-9405000D01*
X13675000Y-7155000D02*
X13725000Y-7205000D01*
X13725000Y-7155000D02*
X13675000Y-7205000D01*
X13795000Y-8875000D02*
X13845000Y-8925000D01*
X13845000Y-8875000D02*
X13795000Y-8925000D01*
X13835000Y-7595000D02*
X13885000Y-7645000D01*
X13885000Y-7595000D02*
X13835000Y-7645000D01*
X13975000Y-6575000D02*
X14025000Y-6625000D01*
X14025000Y-6575000D02*
X13975000Y-6625000D01*
X14115000Y-5815000D02*
X14165000Y-5865000D01*
X14165000Y-5815000D02*
X14115000Y-5865000D01*
X14115000Y-9455000D02*
X14165000Y-9505000D01*
X14165000Y-9455000D02*
X14115000Y-9505000D01*
X14115000Y-11795000D02*
X14165000Y-11845000D01*
X14165000Y-11795000D02*
X14115000Y-11845000D01*
X14175000Y-8455000D02*
X14225000Y-8505000D01*
X14225000Y-8455000D02*
X14175000Y-8505000D01*
X14295000Y-5415000D02*
X14345000Y-5465000D01*
X14345000Y-5415000D02*
X14295000Y-5465000D01*
X14415000Y-10695000D02*
X14465000Y-10745000D01*
X14465000Y-10695000D02*
X14415000Y-10745000D01*
X14555000Y-6870000D02*
X14605000Y-6920000D01*
X14605000Y-6870000D02*
X14555000Y-6920000D01*
X14575000Y-7455000D02*
X14625000Y-7505000D01*
X14625000Y-7455000D02*
X14575000Y-7505000D01*
X14695000Y-5435000D02*
X14745000Y-5485000D01*
X14745000Y-5435000D02*
X14695000Y-5485000D01*
X14835000Y-6810000D02*
X14885000Y-6860000D01*
X14885000Y-6810000D02*
X14835000Y-6860000D01*
X15015000Y-7315000D02*
X15065000Y-7365000D01*
X15065000Y-7315000D02*
X15015000Y-7365000D01*
X15095000Y-7015000D02*
X15145000Y-7065000D01*
X15145000Y-7015000D02*
X15095000Y-7065000D01*
X15315000Y-8135000D02*
X15365000Y-8185000D01*
X15365000Y-8135000D02*
X15315000Y-8185000D01*
X15415000Y-6475000D02*
X15465000Y-6525000D01*
X15465000Y-6475000D02*
X15415000Y-6525000D01*
X15635000Y-5975000D02*
X15685000Y-6025000D01*
X15685000Y-5975000D02*
X15635000Y-6025000D01*
X15815000Y-4795000D02*
X15865000Y-4845000D01*
X15865000Y-4795000D02*
X15815000Y-4845000D01*
X15875000Y-5435000D02*
X15925000Y-5485000D01*
X15925000Y-5435000D02*
X15875000Y-5485000D01*
X15995000Y-10495000D02*
X16045000Y-10545000D01*
X16045000Y-10495000D02*
X15995000Y-10545000D01*
X16015000Y-9055000D02*
X16065000Y-9105000D01*
X16065000Y-9055000D02*
X16015000Y-9105000D01*
X16075000Y-9455000D02*
X16125000Y-9505000D01*
X16125000Y-9455000D02*
X16075000Y-9505000D01*
X16075000Y-9875000D02*
X16125000Y-9925000D01*
X16125000Y-9875000D02*
X16075000Y-9925000D01*
X16295000Y-8975000D02*
X16345000Y-9025000D01*
X16345000Y-8975000D02*
X16295000Y-9025000D01*
X16455000Y-7835000D02*
X16505000Y-7885000D01*
X16505000Y-7835000D02*
X16455000Y-7885000D01*
X16515000Y-9455000D02*
X16565000Y-9505000D01*
X16565000Y-9455000D02*
X16515000Y-9505000D01*
X16515000Y-9875000D02*
X16565000Y-9925000D01*
X16565000Y-9875000D02*
X16515000Y-9925000D01*
X16655000Y-5315000D02*
X16705000Y-5365000D01*
X16705000Y-5315000D02*
X16655000Y-5365000D01*
X16855000Y-5455000D02*
X16905000Y-5505000D01*
X16905000Y-5455000D02*
X16855000Y-5505000D01*
X17055000Y-6115000D02*
X17105000Y-6165000D01*
X17105000Y-6115000D02*
X17055000Y-6165000D01*
X17055000Y-10495000D02*
X17105000Y-10545000D01*
X17105000Y-10495000D02*
X17055000Y-10545000D01*
X17055000Y-12995000D02*
X17105000Y-13045000D01*
X17105000Y-12995000D02*
X17055000Y-13045000D01*
X10896000Y-5718000D02*
G75*
G02*
X10796000Y-5718000I-50000J0D01*
G01*
X10796000Y-5718000D02*
G75*
G02*
X10896000Y-5718000I50000J0D01*
G01*
X10896000Y-5972000D02*
G75*
G02*
X10796000Y-5972000I-50000J0D01*
G01*
X10796000Y-5972000D02*
G75*
G02*
X10896000Y-5972000I50000J0D01*
G01*
X10896000Y-6226000D02*
G75*
G02*
X10796000Y-6226000I-50000J0D01*
G01*
X10796000Y-6226000D02*
G75*
G02*
X10896000Y-6226000I50000J0D01*
G01*
X10896000Y-6480000D02*
G75*
G02*
X10796000Y-6480000I-50000J0D01*
G01*
X10796000Y-6480000D02*
G75*
G02*
X10896000Y-6480000I50000J0D01*
G01*
X10896000Y-6734000D02*
G75*
G02*
X10796000Y-6734000I-50000J0D01*
G01*
X10796000Y-6734000D02*
G75*
G02*
X10896000Y-6734000I50000J0D01*
G01*
X10896000Y-6988000D02*
G75*
G02*
X10796000Y-6988000I-50000J0D01*
G01*
X10796000Y-6988000D02*
G75*
G02*
X10896000Y-6988000I50000J0D01*
G01*
X10896000Y-7242000D02*
G75*
G02*
X10796000Y-7242000I-50000J0D01*
G01*
X10796000Y-7242000D02*
G75*
G02*
X10896000Y-7242000I50000J0D01*
G01*
X10896000Y-7496000D02*
G75*
G02*
X10796000Y-7496000I-50000J0D01*
G01*
X10796000Y-7496000D02*
G75*
G02*
X10896000Y-7496000I50000J0D01*
G01*
X10896000Y-7750000D02*
G75*
G02*
X10796000Y-7750000I-50000J0D01*
G01*
X10796000Y-7750000D02*
G75*
G02*
X10896000Y-7750000I50000J0D01*
G01*
X10896000Y-8004000D02*
G75*
G02*
X10796000Y-8004000I-50000J0D01*
G01*
X10796000Y-8004000D02*
G75*
G02*
X10896000Y-8004000I50000J0D01*
G01*
X10896000Y-8258000D02*
G75*
G02*
X10796000Y-8258000I-50000J0D01*
G01*
X10796000Y-8258000D02*
G75*
G02*
X10896000Y-8258000I50000J0D01*
G01*
X10896000Y-8512000D02*
G75*
G02*
X10796000Y-8512000I-50000J0D01*
G01*
X10796000Y-8512000D02*
G75*
G02*
X10896000Y-8512000I50000J0D01*
G01*
X10896000Y-8766000D02*
G75*
G02*
X10796000Y-8766000I-50000J0D01*
G01*
X10796000Y-8766000D02*
G75*
G02*
X10896000Y-8766000I50000J0D01*
G01*
X11150000Y-5718000D02*
G75*
G02*
X11050000Y-5718000I-50000J0D01*
G01*
X11050000Y-5718000D02*
G75*
G02*
X11150000Y-5718000I50000J0D01*
G01*
X11150000Y-5972000D02*
G75*
G02*
X11050000Y-5972000I-50000J0D01*
G01*
X11050000Y-5972000D02*
G75*
G02*
X11150000Y-5972000I50000J0D01*
G01*
X11150000Y-6226000D02*
G75*
G02*
X11050000Y-6226000I-50000J0D01*
G01*
X11050000Y-6226000D02*
G75*
G02*
X11150000Y-6226000I50000J0D01*
G01*
X11150000Y-6480000D02*
G75*
G02*
X11050000Y-6480000I-50000J0D01*
G01*
X11050000Y-6480000D02*
G75*
G02*
X11150000Y-6480000I50000J0D01*
G01*
X11150000Y-6734000D02*
G75*
G02*
X11050000Y-6734000I-50000J0D01*
G01*
X11050000Y-6734000D02*
G75*
G02*
X11150000Y-6734000I50000J0D01*
G01*
X11150000Y-6988000D02*
G75*
G02*
X11050000Y-6988000I-50000J0D01*
G01*
X11050000Y-6988000D02*
G75*
G02*
X11150000Y-6988000I50000J0D01*
G01*
X11150000Y-7242000D02*
G75*
G02*
X11050000Y-7242000I-50000J0D01*
G01*
X11050000Y-7242000D02*
G75*
G02*
X11150000Y-7242000I50000J0D01*
G01*
X11150000Y-7496000D02*
G75*
G02*
X11050000Y-7496000I-50000J0D01*
G01*
X11050000Y-7496000D02*
G75*
G02*
X11150000Y-7496000I50000J0D01*
G01*
X11150000Y-7750000D02*
G75*
G02*
X11050000Y-7750000I-50000J0D01*
G01*
X11050000Y-7750000D02*
G75*
G02*
X11150000Y-7750000I50000J0D01*
G01*
X11150000Y-8004000D02*
G75*
G02*
X11050000Y-8004000I-50000J0D01*
G01*
X11050000Y-8004000D02*
G75*
G02*
X11150000Y-8004000I50000J0D01*
G01*
X11150000Y-8258000D02*
G75*
G02*
X11050000Y-8258000I-50000J0D01*
G01*
X11050000Y-8258000D02*
G75*
G02*
X11150000Y-8258000I50000J0D01*
G01*
X11150000Y-8512000D02*
G75*
G02*
X11050000Y-8512000I-50000J0D01*
G01*
X11050000Y-8512000D02*
G75*
G02*
X11150000Y-8512000I50000J0D01*
G01*
X11150000Y-8766000D02*
G75*
G02*
X11050000Y-8766000I-50000J0D01*
G01*
X11050000Y-8766000D02*
G75*
G02*
X11150000Y-8766000I50000J0D01*
G01*
X15976000Y-5718000D02*
G75*
G02*
X15876000Y-5718000I-50000J0D01*
G01*
X15876000Y-5718000D02*
G75*
G02*
X15976000Y-5718000I50000J0D01*
G01*
X15976000Y-5972000D02*
G75*
G02*
X15876000Y-5972000I-50000J0D01*
G01*
X15876000Y-5972000D02*
G75*
G02*
X15976000Y-5972000I50000J0D01*
G01*
X15976000Y-6226000D02*
G75*
G02*
X15876000Y-6226000I-50000J0D01*
G01*
X15876000Y-6226000D02*
G75*
G02*
X15976000Y-6226000I50000J0D01*
G01*
X15976000Y-6480000D02*
G75*
G02*
X15876000Y-6480000I-50000J0D01*
G01*
X15876000Y-6480000D02*
G75*
G02*
X15976000Y-6480000I50000J0D01*
G01*
X15976000Y-6734000D02*
G75*
G02*
X15876000Y-6734000I-50000J0D01*
G01*
X15876000Y-6734000D02*
G75*
G02*
X15976000Y-6734000I50000J0D01*
G01*
X15976000Y-6988000D02*
G75*
G02*
X15876000Y-6988000I-50000J0D01*
G01*
X15876000Y-6988000D02*
G75*
G02*
X15976000Y-6988000I50000J0D01*
G01*
X15976000Y-7242000D02*
G75*
G02*
X15876000Y-7242000I-50000J0D01*
G01*
X15876000Y-7242000D02*
G75*
G02*
X15976000Y-7242000I50000J0D01*
G01*
X15976000Y-7496000D02*
G75*
G02*
X15876000Y-7496000I-50000J0D01*
G01*
X15876000Y-7496000D02*
G75*
G02*
X15976000Y-7496000I50000J0D01*
G01*
X15976000Y-7750000D02*
G75*
G02*
X15876000Y-7750000I-50000J0D01*
G01*
X15876000Y-7750000D02*
G75*
G02*
X15976000Y-7750000I50000J0D01*
G01*
X15976000Y-8004000D02*
G75*
G02*
X15876000Y-8004000I-50000J0D01*
G01*
X15876000Y-8004000D02*
G75*
G02*
X15976000Y-8004000I50000J0D01*
G01*
X15976000Y-8258000D02*
G75*
G02*
X15876000Y-8258000I-50000J0D01*
G01*
X15876000Y-8258000D02*
G75*
G02*
X15976000Y-8258000I50000J0D01*
G01*
X15976000Y-8512000D02*
G75*
G02*
X15876000Y-8512000I-50000J0D01*
G01*
X15876000Y-8512000D02*
G75*
G02*
X15976000Y-8512000I50000J0D01*
G01*
X15976000Y-8766000D02*
G75*
G02*
X15876000Y-8766000I-50000J0D01*
G01*
X15876000Y-8766000D02*
G75*
G02*
X15976000Y-8766000I50000J0D01*
G01*
X16230000Y-5718000D02*
G75*
G02*
X16130000Y-5718000I-50000J0D01*
G01*
X16130000Y-5718000D02*
G75*
G02*
X16230000Y-5718000I50000J0D01*
G01*
X16230000Y-5972000D02*
G75*
G02*
X16130000Y-5972000I-50000J0D01*
G01*
X16130000Y-5972000D02*
G75*
G02*
X16230000Y-5972000I50000J0D01*
G01*
X16230000Y-6226000D02*
G75*
G02*
X16130000Y-6226000I-50000J0D01*
G01*
X16130000Y-6226000D02*
G75*
G02*
X16230000Y-6226000I50000J0D01*
G01*
X16230000Y-6480000D02*
G75*
G02*
X16130000Y-6480000I-50000J0D01*
G01*
X16130000Y-6480000D02*
G75*
G02*
X16230000Y-6480000I50000J0D01*
G01*
X16230000Y-6734000D02*
G75*
G02*
X16130000Y-6734000I-50000J0D01*
G01*
X16130000Y-6734000D02*
G75*
G02*
X16230000Y-6734000I50000J0D01*
G01*
X16230000Y-6988000D02*
G75*
G02*
X16130000Y-6988000I-50000J0D01*
G01*
X16130000Y-6988000D02*
G75*
G02*
X16230000Y-6988000I50000J0D01*
G01*
X16230000Y-7242000D02*
G75*
G02*
X16130000Y-7242000I-50000J0D01*
G01*
X16130000Y-7242000D02*
G75*
G02*
X16230000Y-7242000I50000J0D01*
G01*
X16230000Y-7496000D02*
G75*
G02*
X16130000Y-7496000I-50000J0D01*
G01*
X16130000Y-7496000D02*
G75*
G02*
X16230000Y-7496000I50000J0D01*
G01*
X16230000Y-7750000D02*
G75*
G02*
X16130000Y-7750000I-50000J0D01*
G01*
X16130000Y-7750000D02*
G75*
G02*
X16230000Y-7750000I50000J0D01*
G01*
X16230000Y-8004000D02*
G75*
G02*
X16130000Y-8004000I-50000J0D01*
G01*
X16130000Y-8004000D02*
G75*
G02*
X16230000Y-8004000I50000J0D01*
G01*
X16230000Y-8258000D02*
G75*
G02*
X16130000Y-8258000I-50000J0D01*
G01*
X16130000Y-8258000D02*
G75*
G02*
X16230000Y-8258000I50000J0D01*
G01*
X16230000Y-8512000D02*
G75*
G02*
X16130000Y-8512000I-50000J0D01*
G01*
X16130000Y-8512000D02*
G75*
G02*
X16230000Y-8512000I50000J0D01*
G01*
X16230000Y-8766000D02*
G75*
G02*
X16130000Y-8766000I-50000J0D01*
G01*
X16130000Y-8766000D02*
G75*
G02*
X16230000Y-8766000I50000J0D01*
G01*
D10*
X9245777Y-14093984D02*
X9245777Y-13893984D01*
X9245777Y-13893984D02*
X9293396Y-13893984D01*
X9293396Y-13893984D02*
X9321967Y-13903508D01*
X9321967Y-13903508D02*
X9341015Y-13922555D01*
X9341015Y-13922555D02*
X9350539Y-13941603D01*
X9350539Y-13941603D02*
X9360063Y-13979698D01*
X9360063Y-13979698D02*
X9360063Y-14008269D01*
X9360063Y-14008269D02*
X9350539Y-14046365D01*
X9350539Y-14046365D02*
X9341015Y-14065412D01*
X9341015Y-14065412D02*
X9321967Y-14084460D01*
X9321967Y-14084460D02*
X9293396Y-14093984D01*
X9293396Y-14093984D02*
X9245777Y-14093984D01*
X9445777Y-14093984D02*
X9445777Y-13960650D01*
X9445777Y-13998746D02*
X9455301Y-13979698D01*
X9455301Y-13979698D02*
X9464824Y-13970174D01*
X9464824Y-13970174D02*
X9483872Y-13960650D01*
X9483872Y-13960650D02*
X9502920Y-13960650D01*
X9569586Y-14093984D02*
X9569586Y-13960650D01*
X9569586Y-13893984D02*
X9560063Y-13903508D01*
X9560063Y-13903508D02*
X9569586Y-13913031D01*
X9569586Y-13913031D02*
X9579110Y-13903508D01*
X9579110Y-13903508D02*
X9569586Y-13893984D01*
X9569586Y-13893984D02*
X9569586Y-13913031D01*
X9693396Y-14093984D02*
X9674348Y-14084460D01*
X9674348Y-14084460D02*
X9664824Y-14065412D01*
X9664824Y-14065412D02*
X9664824Y-13893984D01*
X9798158Y-14093984D02*
X9779110Y-14084460D01*
X9779110Y-14084460D02*
X9769586Y-14065412D01*
X9769586Y-14065412D02*
X9769586Y-13893984D01*
X10026729Y-14093984D02*
X10026729Y-13893984D01*
X10026729Y-13893984D02*
X10093396Y-14036841D01*
X10093396Y-14036841D02*
X10160063Y-13893984D01*
X10160063Y-13893984D02*
X10160063Y-14093984D01*
X10341015Y-14093984D02*
X10341015Y-13989222D01*
X10341015Y-13989222D02*
X10331491Y-13970174D01*
X10331491Y-13970174D02*
X10312444Y-13960650D01*
X10312444Y-13960650D02*
X10274348Y-13960650D01*
X10274348Y-13960650D02*
X10255301Y-13970174D01*
X10341015Y-14084460D02*
X10321967Y-14093984D01*
X10321967Y-14093984D02*
X10274348Y-14093984D01*
X10274348Y-14093984D02*
X10255301Y-14084460D01*
X10255301Y-14084460D02*
X10245777Y-14065412D01*
X10245777Y-14065412D02*
X10245777Y-14046365D01*
X10245777Y-14046365D02*
X10255301Y-14027317D01*
X10255301Y-14027317D02*
X10274348Y-14017793D01*
X10274348Y-14017793D02*
X10321967Y-14017793D01*
X10321967Y-14017793D02*
X10341015Y-14008269D01*
X10436253Y-13960650D02*
X10436253Y-14160650D01*
X10436253Y-13970174D02*
X10455301Y-13960650D01*
X10455301Y-13960650D02*
X10493396Y-13960650D01*
X10493396Y-13960650D02*
X10512444Y-13970174D01*
X10512444Y-13970174D02*
X10521967Y-13979698D01*
X10521967Y-13979698D02*
X10531491Y-13998746D01*
X10531491Y-13998746D02*
X10531491Y-14055888D01*
X10531491Y-14055888D02*
X10521967Y-14074936D01*
X10521967Y-14074936D02*
X10512444Y-14084460D01*
X10512444Y-14084460D02*
X10493396Y-14093984D01*
X10493396Y-14093984D02*
X10455301Y-14093984D01*
X10455301Y-14093984D02*
X10436253Y-14084460D01*
X10617205Y-14074936D02*
X10626729Y-14084460D01*
X10626729Y-14084460D02*
X10617205Y-14093984D01*
X10617205Y-14093984D02*
X10607682Y-14084460D01*
X10607682Y-14084460D02*
X10617205Y-14074936D01*
X10617205Y-14074936D02*
X10617205Y-14093984D01*
X10617205Y-13970174D02*
X10626729Y-13979698D01*
X10626729Y-13979698D02*
X10617205Y-13989222D01*
X10617205Y-13989222D02*
X10607682Y-13979698D01*
X10607682Y-13979698D02*
X10617205Y-13970174D01*
X10617205Y-13970174D02*
X10617205Y-13989222D01*
D12*
X8935000Y-14397500D02*
X8985000Y-14447500D01*
X8985000Y-14397500D02*
X8935000Y-14447500D01*
D10*
X9283872Y-14313984D02*
X9302920Y-14313984D01*
X9302920Y-14313984D02*
X9321967Y-14323508D01*
X9321967Y-14323508D02*
X9331491Y-14333031D01*
X9331491Y-14333031D02*
X9341015Y-14352079D01*
X9341015Y-14352079D02*
X9350539Y-14390174D01*
X9350539Y-14390174D02*
X9350539Y-14437793D01*
X9350539Y-14437793D02*
X9341015Y-14475888D01*
X9341015Y-14475888D02*
X9331491Y-14494936D01*
X9331491Y-14494936D02*
X9321967Y-14504460D01*
X9321967Y-14504460D02*
X9302920Y-14513984D01*
X9302920Y-14513984D02*
X9283872Y-14513984D01*
X9283872Y-14513984D02*
X9264824Y-14504460D01*
X9264824Y-14504460D02*
X9255301Y-14494936D01*
X9255301Y-14494936D02*
X9245777Y-14475888D01*
X9245777Y-14475888D02*
X9236253Y-14437793D01*
X9236253Y-14437793D02*
X9236253Y-14390174D01*
X9236253Y-14390174D02*
X9245777Y-14352079D01*
X9245777Y-14352079D02*
X9255301Y-14333031D01*
X9255301Y-14333031D02*
X9264824Y-14323508D01*
X9264824Y-14323508D02*
X9283872Y-14313984D01*
X9436253Y-14494936D02*
X9445777Y-14504460D01*
X9445777Y-14504460D02*
X9436253Y-14513984D01*
X9436253Y-14513984D02*
X9426729Y-14504460D01*
X9426729Y-14504460D02*
X9436253Y-14494936D01*
X9436253Y-14494936D02*
X9436253Y-14513984D01*
X9626729Y-14313984D02*
X9531491Y-14313984D01*
X9531491Y-14313984D02*
X9521967Y-14409222D01*
X9521967Y-14409222D02*
X9531491Y-14399698D01*
X9531491Y-14399698D02*
X9550539Y-14390174D01*
X9550539Y-14390174D02*
X9598158Y-14390174D01*
X9598158Y-14390174D02*
X9617205Y-14399698D01*
X9617205Y-14399698D02*
X9626729Y-14409222D01*
X9626729Y-14409222D02*
X9636253Y-14428269D01*
X9636253Y-14428269D02*
X9636253Y-14475888D01*
X9636253Y-14475888D02*
X9626729Y-14494936D01*
X9626729Y-14494936D02*
X9617205Y-14504460D01*
X9617205Y-14504460D02*
X9598158Y-14513984D01*
X9598158Y-14513984D02*
X9550539Y-14513984D01*
X9550539Y-14513984D02*
X9531491Y-14504460D01*
X9531491Y-14504460D02*
X9521967Y-14494936D01*
X9760063Y-14313984D02*
X9779110Y-14313984D01*
X9779110Y-14313984D02*
X9798158Y-14323508D01*
X9798158Y-14323508D02*
X9807682Y-14333031D01*
X9807682Y-14333031D02*
X9817205Y-14352079D01*
X9817205Y-14352079D02*
X9826729Y-14390174D01*
X9826729Y-14390174D02*
X9826729Y-14437793D01*
X9826729Y-14437793D02*
X9817205Y-14475888D01*
X9817205Y-14475888D02*
X9807682Y-14494936D01*
X9807682Y-14494936D02*
X9798158Y-14504460D01*
X9798158Y-14504460D02*
X9779110Y-14513984D01*
X9779110Y-14513984D02*
X9760063Y-14513984D01*
X9760063Y-14513984D02*
X9741015Y-14504460D01*
X9741015Y-14504460D02*
X9731491Y-14494936D01*
X9731491Y-14494936D02*
X9721967Y-14475888D01*
X9721967Y-14475888D02*
X9712444Y-14437793D01*
X9712444Y-14437793D02*
X9712444Y-14390174D01*
X9712444Y-14390174D02*
X9721967Y-14352079D01*
X9721967Y-14352079D02*
X9731491Y-14333031D01*
X9731491Y-14333031D02*
X9741015Y-14323508D01*
X9741015Y-14323508D02*
X9760063Y-14313984D01*
X9950539Y-14313984D02*
X9969586Y-14313984D01*
X9969586Y-14313984D02*
X9988634Y-14323508D01*
X9988634Y-14323508D02*
X9998158Y-14333031D01*
X9998158Y-14333031D02*
X10007682Y-14352079D01*
X10007682Y-14352079D02*
X10017205Y-14390174D01*
X10017205Y-14390174D02*
X10017205Y-14437793D01*
X10017205Y-14437793D02*
X10007682Y-14475888D01*
X10007682Y-14475888D02*
X9998158Y-14494936D01*
X9998158Y-14494936D02*
X9988634Y-14504460D01*
X9988634Y-14504460D02*
X9969586Y-14513984D01*
X9969586Y-14513984D02*
X9950539Y-14513984D01*
X9950539Y-14513984D02*
X9931491Y-14504460D01*
X9931491Y-14504460D02*
X9921967Y-14494936D01*
X9921967Y-14494936D02*
X9912444Y-14475888D01*
X9912444Y-14475888D02*
X9902920Y-14437793D01*
X9902920Y-14437793D02*
X9902920Y-14390174D01*
X9902920Y-14390174D02*
X9912444Y-14352079D01*
X9912444Y-14352079D02*
X9921967Y-14333031D01*
X9921967Y-14333031D02*
X9931491Y-14323508D01*
X9931491Y-14323508D02*
X9950539Y-14313984D01*
X10102920Y-14513984D02*
X10102920Y-14380650D01*
X10102920Y-14399698D02*
X10112444Y-14390174D01*
X10112444Y-14390174D02*
X10131491Y-14380650D01*
X10131491Y-14380650D02*
X10160063Y-14380650D01*
X10160063Y-14380650D02*
X10179110Y-14390174D01*
X10179110Y-14390174D02*
X10188634Y-14409222D01*
X10188634Y-14409222D02*
X10188634Y-14513984D01*
X10188634Y-14409222D02*
X10198158Y-14390174D01*
X10198158Y-14390174D02*
X10217205Y-14380650D01*
X10217205Y-14380650D02*
X10245777Y-14380650D01*
X10245777Y-14380650D02*
X10264825Y-14390174D01*
X10264825Y-14390174D02*
X10274348Y-14409222D01*
X10274348Y-14409222D02*
X10274348Y-14513984D01*
X10369586Y-14513984D02*
X10369586Y-14380650D01*
X10369586Y-14399698D02*
X10379110Y-14390174D01*
X10379110Y-14390174D02*
X10398158Y-14380650D01*
X10398158Y-14380650D02*
X10426729Y-14380650D01*
X10426729Y-14380650D02*
X10445777Y-14390174D01*
X10445777Y-14390174D02*
X10455301Y-14409222D01*
X10455301Y-14409222D02*
X10455301Y-14513984D01*
X10455301Y-14409222D02*
X10464825Y-14390174D01*
X10464825Y-14390174D02*
X10483872Y-14380650D01*
X10483872Y-14380650D02*
X10512444Y-14380650D01*
X10512444Y-14380650D02*
X10531491Y-14390174D01*
X10531491Y-14390174D02*
X10541015Y-14409222D01*
X10541015Y-14409222D02*
X10541015Y-14513984D01*
X10931491Y-14304460D02*
X10760063Y-14561603D01*
X11188634Y-14313984D02*
X11207682Y-14313984D01*
X11207682Y-14313984D02*
X11226729Y-14323508D01*
X11226729Y-14323508D02*
X11236253Y-14333031D01*
X11236253Y-14333031D02*
X11245777Y-14352079D01*
X11245777Y-14352079D02*
X11255301Y-14390174D01*
X11255301Y-14390174D02*
X11255301Y-14437793D01*
X11255301Y-14437793D02*
X11245777Y-14475888D01*
X11245777Y-14475888D02*
X11236253Y-14494936D01*
X11236253Y-14494936D02*
X11226729Y-14504460D01*
X11226729Y-14504460D02*
X11207682Y-14513984D01*
X11207682Y-14513984D02*
X11188634Y-14513984D01*
X11188634Y-14513984D02*
X11169587Y-14504460D01*
X11169587Y-14504460D02*
X11160063Y-14494936D01*
X11160063Y-14494936D02*
X11150539Y-14475888D01*
X11150539Y-14475888D02*
X11141015Y-14437793D01*
X11141015Y-14437793D02*
X11141015Y-14390174D01*
X11141015Y-14390174D02*
X11150539Y-14352079D01*
X11150539Y-14352079D02*
X11160063Y-14333031D01*
X11160063Y-14333031D02*
X11169587Y-14323508D01*
X11169587Y-14323508D02*
X11188634Y-14313984D01*
X11341015Y-14494936D02*
X11350539Y-14504460D01*
X11350539Y-14504460D02*
X11341015Y-14513984D01*
X11341015Y-14513984D02*
X11331491Y-14504460D01*
X11331491Y-14504460D02*
X11341015Y-14494936D01*
X11341015Y-14494936D02*
X11341015Y-14513984D01*
X11474348Y-14313984D02*
X11493396Y-14313984D01*
X11493396Y-14313984D02*
X11512444Y-14323508D01*
X11512444Y-14323508D02*
X11521967Y-14333031D01*
X11521967Y-14333031D02*
X11531491Y-14352079D01*
X11531491Y-14352079D02*
X11541015Y-14390174D01*
X11541015Y-14390174D02*
X11541015Y-14437793D01*
X11541015Y-14437793D02*
X11531491Y-14475888D01*
X11531491Y-14475888D02*
X11521967Y-14494936D01*
X11521967Y-14494936D02*
X11512444Y-14504460D01*
X11512444Y-14504460D02*
X11493396Y-14513984D01*
X11493396Y-14513984D02*
X11474348Y-14513984D01*
X11474348Y-14513984D02*
X11455301Y-14504460D01*
X11455301Y-14504460D02*
X11445777Y-14494936D01*
X11445777Y-14494936D02*
X11436253Y-14475888D01*
X11436253Y-14475888D02*
X11426729Y-14437793D01*
X11426729Y-14437793D02*
X11426729Y-14390174D01*
X11426729Y-14390174D02*
X11436253Y-14352079D01*
X11436253Y-14352079D02*
X11445777Y-14333031D01*
X11445777Y-14333031D02*
X11455301Y-14323508D01*
X11455301Y-14323508D02*
X11474348Y-14313984D01*
X11731491Y-14513984D02*
X11617206Y-14513984D01*
X11674348Y-14513984D02*
X11674348Y-14313984D01*
X11674348Y-14313984D02*
X11655301Y-14342555D01*
X11655301Y-14342555D02*
X11636253Y-14361603D01*
X11636253Y-14361603D02*
X11617206Y-14371127D01*
X11826729Y-14513984D02*
X11864825Y-14513984D01*
X11864825Y-14513984D02*
X11883872Y-14504460D01*
X11883872Y-14504460D02*
X11893396Y-14494936D01*
X11893396Y-14494936D02*
X11912444Y-14466365D01*
X11912444Y-14466365D02*
X11921967Y-14428269D01*
X11921967Y-14428269D02*
X11921967Y-14352079D01*
X11921967Y-14352079D02*
X11912444Y-14333031D01*
X11912444Y-14333031D02*
X11902920Y-14323508D01*
X11902920Y-14323508D02*
X11883872Y-14313984D01*
X11883872Y-14313984D02*
X11845777Y-14313984D01*
X11845777Y-14313984D02*
X11826729Y-14323508D01*
X11826729Y-14323508D02*
X11817206Y-14333031D01*
X11817206Y-14333031D02*
X11807682Y-14352079D01*
X11807682Y-14352079D02*
X11807682Y-14399698D01*
X11807682Y-14399698D02*
X11817206Y-14418746D01*
X11817206Y-14418746D02*
X11826729Y-14428269D01*
X11826729Y-14428269D02*
X11845777Y-14437793D01*
X11845777Y-14437793D02*
X11883872Y-14437793D01*
X11883872Y-14437793D02*
X11902920Y-14428269D01*
X11902920Y-14428269D02*
X11912444Y-14418746D01*
X11912444Y-14418746D02*
X11921967Y-14399698D01*
X11988634Y-14313984D02*
X12121967Y-14313984D01*
X12121967Y-14313984D02*
X12036253Y-14513984D01*
X12188634Y-14313984D02*
X12188634Y-14352079D01*
X12264825Y-14313984D02*
X12264825Y-14352079D01*
X12560063Y-14590174D02*
X12550539Y-14580650D01*
X12550539Y-14580650D02*
X12531491Y-14552079D01*
X12531491Y-14552079D02*
X12521968Y-14533031D01*
X12521968Y-14533031D02*
X12512444Y-14504460D01*
X12512444Y-14504460D02*
X12502920Y-14456841D01*
X12502920Y-14456841D02*
X12502920Y-14418746D01*
X12502920Y-14418746D02*
X12512444Y-14371127D01*
X12512444Y-14371127D02*
X12521968Y-14342555D01*
X12521968Y-14342555D02*
X12531491Y-14323508D01*
X12531491Y-14323508D02*
X12550539Y-14294936D01*
X12550539Y-14294936D02*
X12560063Y-14285412D01*
X12617206Y-14313984D02*
X12750539Y-14313984D01*
X12750539Y-14313984D02*
X12664825Y-14513984D01*
X12864825Y-14313984D02*
X12883872Y-14313984D01*
X12883872Y-14313984D02*
X12902920Y-14323508D01*
X12902920Y-14323508D02*
X12912444Y-14333031D01*
X12912444Y-14333031D02*
X12921968Y-14352079D01*
X12921968Y-14352079D02*
X12931491Y-14390174D01*
X12931491Y-14390174D02*
X12931491Y-14437793D01*
X12931491Y-14437793D02*
X12921968Y-14475888D01*
X12921968Y-14475888D02*
X12912444Y-14494936D01*
X12912444Y-14494936D02*
X12902920Y-14504460D01*
X12902920Y-14504460D02*
X12883872Y-14513984D01*
X12883872Y-14513984D02*
X12864825Y-14513984D01*
X12864825Y-14513984D02*
X12845777Y-14504460D01*
X12845777Y-14504460D02*
X12836253Y-14494936D01*
X12836253Y-14494936D02*
X12826729Y-14475888D01*
X12826729Y-14475888D02*
X12817206Y-14437793D01*
X12817206Y-14437793D02*
X12817206Y-14390174D01*
X12817206Y-14390174D02*
X12826729Y-14352079D01*
X12826729Y-14352079D02*
X12836253Y-14333031D01*
X12836253Y-14333031D02*
X12845777Y-14323508D01*
X12845777Y-14323508D02*
X12864825Y-14313984D01*
X13169587Y-14513984D02*
X13169587Y-14313984D01*
X13255301Y-14513984D02*
X13255301Y-14409222D01*
X13255301Y-14409222D02*
X13245777Y-14390174D01*
X13245777Y-14390174D02*
X13226730Y-14380650D01*
X13226730Y-14380650D02*
X13198158Y-14380650D01*
X13198158Y-14380650D02*
X13179110Y-14390174D01*
X13179110Y-14390174D02*
X13169587Y-14399698D01*
X13379110Y-14513984D02*
X13360063Y-14504460D01*
X13360063Y-14504460D02*
X13350539Y-14494936D01*
X13350539Y-14494936D02*
X13341015Y-14475888D01*
X13341015Y-14475888D02*
X13341015Y-14418746D01*
X13341015Y-14418746D02*
X13350539Y-14399698D01*
X13350539Y-14399698D02*
X13360063Y-14390174D01*
X13360063Y-14390174D02*
X13379110Y-14380650D01*
X13379110Y-14380650D02*
X13407682Y-14380650D01*
X13407682Y-14380650D02*
X13426730Y-14390174D01*
X13426730Y-14390174D02*
X13436253Y-14399698D01*
X13436253Y-14399698D02*
X13445777Y-14418746D01*
X13445777Y-14418746D02*
X13445777Y-14475888D01*
X13445777Y-14475888D02*
X13436253Y-14494936D01*
X13436253Y-14494936D02*
X13426730Y-14504460D01*
X13426730Y-14504460D02*
X13407682Y-14513984D01*
X13407682Y-14513984D02*
X13379110Y-14513984D01*
X13560063Y-14513984D02*
X13541015Y-14504460D01*
X13541015Y-14504460D02*
X13531491Y-14485412D01*
X13531491Y-14485412D02*
X13531491Y-14313984D01*
X13712444Y-14504460D02*
X13693396Y-14513984D01*
X13693396Y-14513984D02*
X13655301Y-14513984D01*
X13655301Y-14513984D02*
X13636253Y-14504460D01*
X13636253Y-14504460D02*
X13626730Y-14485412D01*
X13626730Y-14485412D02*
X13626730Y-14409222D01*
X13626730Y-14409222D02*
X13636253Y-14390174D01*
X13636253Y-14390174D02*
X13655301Y-14380650D01*
X13655301Y-14380650D02*
X13693396Y-14380650D01*
X13693396Y-14380650D02*
X13712444Y-14390174D01*
X13712444Y-14390174D02*
X13721968Y-14409222D01*
X13721968Y-14409222D02*
X13721968Y-14428269D01*
X13721968Y-14428269D02*
X13626730Y-14447317D01*
X13798158Y-14504460D02*
X13817206Y-14513984D01*
X13817206Y-14513984D02*
X13855301Y-14513984D01*
X13855301Y-14513984D02*
X13874349Y-14504460D01*
X13874349Y-14504460D02*
X13883872Y-14485412D01*
X13883872Y-14485412D02*
X13883872Y-14475888D01*
X13883872Y-14475888D02*
X13874349Y-14456841D01*
X13874349Y-14456841D02*
X13855301Y-14447317D01*
X13855301Y-14447317D02*
X13826730Y-14447317D01*
X13826730Y-14447317D02*
X13807682Y-14437793D01*
X13807682Y-14437793D02*
X13798158Y-14418746D01*
X13798158Y-14418746D02*
X13798158Y-14409222D01*
X13798158Y-14409222D02*
X13807682Y-14390174D01*
X13807682Y-14390174D02*
X13826730Y-14380650D01*
X13826730Y-14380650D02*
X13855301Y-14380650D01*
X13855301Y-14380650D02*
X13874349Y-14390174D01*
X13950539Y-14590174D02*
X13960063Y-14580650D01*
X13960063Y-14580650D02*
X13979111Y-14552079D01*
X13979111Y-14552079D02*
X13988634Y-14533031D01*
X13988634Y-14533031D02*
X13998158Y-14504460D01*
X13998158Y-14504460D02*
X14007682Y-14456841D01*
X14007682Y-14456841D02*
X14007682Y-14418746D01*
X14007682Y-14418746D02*
X13998158Y-14371127D01*
X13998158Y-14371127D02*
X13988634Y-14342555D01*
X13988634Y-14342555D02*
X13979111Y-14323508D01*
X13979111Y-14323508D02*
X13960063Y-14294936D01*
X13960063Y-14294936D02*
X13950539Y-14285412D01*
D12*
X8985000Y-14686500D02*
G75*
G02*
X8885000Y-14686500I-50000J0D01*
G01*
X8885000Y-14686500D02*
G75*
G02*
X8985000Y-14686500I50000J0D01*
G01*
D10*
X9350539Y-14777984D02*
X9236253Y-14777984D01*
X9293396Y-14777984D02*
X9293396Y-14577984D01*
X9293396Y-14577984D02*
X9274348Y-14606555D01*
X9274348Y-14606555D02*
X9255301Y-14625603D01*
X9255301Y-14625603D02*
X9236253Y-14635127D01*
X9436253Y-14758936D02*
X9445777Y-14768460D01*
X9445777Y-14768460D02*
X9436253Y-14777984D01*
X9436253Y-14777984D02*
X9426729Y-14768460D01*
X9426729Y-14768460D02*
X9436253Y-14758936D01*
X9436253Y-14758936D02*
X9436253Y-14777984D01*
X9569586Y-14577984D02*
X9588634Y-14577984D01*
X9588634Y-14577984D02*
X9607682Y-14587508D01*
X9607682Y-14587508D02*
X9617205Y-14597031D01*
X9617205Y-14597031D02*
X9626729Y-14616079D01*
X9626729Y-14616079D02*
X9636253Y-14654174D01*
X9636253Y-14654174D02*
X9636253Y-14701793D01*
X9636253Y-14701793D02*
X9626729Y-14739888D01*
X9626729Y-14739888D02*
X9617205Y-14758936D01*
X9617205Y-14758936D02*
X9607682Y-14768460D01*
X9607682Y-14768460D02*
X9588634Y-14777984D01*
X9588634Y-14777984D02*
X9569586Y-14777984D01*
X9569586Y-14777984D02*
X9550539Y-14768460D01*
X9550539Y-14768460D02*
X9541015Y-14758936D01*
X9541015Y-14758936D02*
X9531491Y-14739888D01*
X9531491Y-14739888D02*
X9521967Y-14701793D01*
X9521967Y-14701793D02*
X9521967Y-14654174D01*
X9521967Y-14654174D02*
X9531491Y-14616079D01*
X9531491Y-14616079D02*
X9541015Y-14597031D01*
X9541015Y-14597031D02*
X9550539Y-14587508D01*
X9550539Y-14587508D02*
X9569586Y-14577984D01*
X9760063Y-14577984D02*
X9779110Y-14577984D01*
X9779110Y-14577984D02*
X9798158Y-14587508D01*
X9798158Y-14587508D02*
X9807682Y-14597031D01*
X9807682Y-14597031D02*
X9817205Y-14616079D01*
X9817205Y-14616079D02*
X9826729Y-14654174D01*
X9826729Y-14654174D02*
X9826729Y-14701793D01*
X9826729Y-14701793D02*
X9817205Y-14739888D01*
X9817205Y-14739888D02*
X9807682Y-14758936D01*
X9807682Y-14758936D02*
X9798158Y-14768460D01*
X9798158Y-14768460D02*
X9779110Y-14777984D01*
X9779110Y-14777984D02*
X9760063Y-14777984D01*
X9760063Y-14777984D02*
X9741015Y-14768460D01*
X9741015Y-14768460D02*
X9731491Y-14758936D01*
X9731491Y-14758936D02*
X9721967Y-14739888D01*
X9721967Y-14739888D02*
X9712444Y-14701793D01*
X9712444Y-14701793D02*
X9712444Y-14654174D01*
X9712444Y-14654174D02*
X9721967Y-14616079D01*
X9721967Y-14616079D02*
X9731491Y-14597031D01*
X9731491Y-14597031D02*
X9741015Y-14587508D01*
X9741015Y-14587508D02*
X9760063Y-14577984D01*
X9950539Y-14577984D02*
X9969586Y-14577984D01*
X9969586Y-14577984D02*
X9988634Y-14587508D01*
X9988634Y-14587508D02*
X9998158Y-14597031D01*
X9998158Y-14597031D02*
X10007682Y-14616079D01*
X10007682Y-14616079D02*
X10017205Y-14654174D01*
X10017205Y-14654174D02*
X10017205Y-14701793D01*
X10017205Y-14701793D02*
X10007682Y-14739888D01*
X10007682Y-14739888D02*
X9998158Y-14758936D01*
X9998158Y-14758936D02*
X9988634Y-14768460D01*
X9988634Y-14768460D02*
X9969586Y-14777984D01*
X9969586Y-14777984D02*
X9950539Y-14777984D01*
X9950539Y-14777984D02*
X9931491Y-14768460D01*
X9931491Y-14768460D02*
X9921967Y-14758936D01*
X9921967Y-14758936D02*
X9912444Y-14739888D01*
X9912444Y-14739888D02*
X9902920Y-14701793D01*
X9902920Y-14701793D02*
X9902920Y-14654174D01*
X9902920Y-14654174D02*
X9912444Y-14616079D01*
X9912444Y-14616079D02*
X9921967Y-14597031D01*
X9921967Y-14597031D02*
X9931491Y-14587508D01*
X9931491Y-14587508D02*
X9950539Y-14577984D01*
X10102920Y-14777984D02*
X10102920Y-14644650D01*
X10102920Y-14663698D02*
X10112444Y-14654174D01*
X10112444Y-14654174D02*
X10131491Y-14644650D01*
X10131491Y-14644650D02*
X10160063Y-14644650D01*
X10160063Y-14644650D02*
X10179110Y-14654174D01*
X10179110Y-14654174D02*
X10188634Y-14673222D01*
X10188634Y-14673222D02*
X10188634Y-14777984D01*
X10188634Y-14673222D02*
X10198158Y-14654174D01*
X10198158Y-14654174D02*
X10217205Y-14644650D01*
X10217205Y-14644650D02*
X10245777Y-14644650D01*
X10245777Y-14644650D02*
X10264825Y-14654174D01*
X10264825Y-14654174D02*
X10274348Y-14673222D01*
X10274348Y-14673222D02*
X10274348Y-14777984D01*
X10369586Y-14777984D02*
X10369586Y-14644650D01*
X10369586Y-14663698D02*
X10379110Y-14654174D01*
X10379110Y-14654174D02*
X10398158Y-14644650D01*
X10398158Y-14644650D02*
X10426729Y-14644650D01*
X10426729Y-14644650D02*
X10445777Y-14654174D01*
X10445777Y-14654174D02*
X10455301Y-14673222D01*
X10455301Y-14673222D02*
X10455301Y-14777984D01*
X10455301Y-14673222D02*
X10464825Y-14654174D01*
X10464825Y-14654174D02*
X10483872Y-14644650D01*
X10483872Y-14644650D02*
X10512444Y-14644650D01*
X10512444Y-14644650D02*
X10531491Y-14654174D01*
X10531491Y-14654174D02*
X10541015Y-14673222D01*
X10541015Y-14673222D02*
X10541015Y-14777984D01*
X10931491Y-14568460D02*
X10760063Y-14825603D01*
X11188634Y-14577984D02*
X11207682Y-14577984D01*
X11207682Y-14577984D02*
X11226729Y-14587508D01*
X11226729Y-14587508D02*
X11236253Y-14597031D01*
X11236253Y-14597031D02*
X11245777Y-14616079D01*
X11245777Y-14616079D02*
X11255301Y-14654174D01*
X11255301Y-14654174D02*
X11255301Y-14701793D01*
X11255301Y-14701793D02*
X11245777Y-14739888D01*
X11245777Y-14739888D02*
X11236253Y-14758936D01*
X11236253Y-14758936D02*
X11226729Y-14768460D01*
X11226729Y-14768460D02*
X11207682Y-14777984D01*
X11207682Y-14777984D02*
X11188634Y-14777984D01*
X11188634Y-14777984D02*
X11169587Y-14768460D01*
X11169587Y-14768460D02*
X11160063Y-14758936D01*
X11160063Y-14758936D02*
X11150539Y-14739888D01*
X11150539Y-14739888D02*
X11141015Y-14701793D01*
X11141015Y-14701793D02*
X11141015Y-14654174D01*
X11141015Y-14654174D02*
X11150539Y-14616079D01*
X11150539Y-14616079D02*
X11160063Y-14597031D01*
X11160063Y-14597031D02*
X11169587Y-14587508D01*
X11169587Y-14587508D02*
X11188634Y-14577984D01*
X11341015Y-14758936D02*
X11350539Y-14768460D01*
X11350539Y-14768460D02*
X11341015Y-14777984D01*
X11341015Y-14777984D02*
X11331491Y-14768460D01*
X11331491Y-14768460D02*
X11341015Y-14758936D01*
X11341015Y-14758936D02*
X11341015Y-14777984D01*
X11474348Y-14577984D02*
X11493396Y-14577984D01*
X11493396Y-14577984D02*
X11512444Y-14587508D01*
X11512444Y-14587508D02*
X11521967Y-14597031D01*
X11521967Y-14597031D02*
X11531491Y-14616079D01*
X11531491Y-14616079D02*
X11541015Y-14654174D01*
X11541015Y-14654174D02*
X11541015Y-14701793D01*
X11541015Y-14701793D02*
X11531491Y-14739888D01*
X11531491Y-14739888D02*
X11521967Y-14758936D01*
X11521967Y-14758936D02*
X11512444Y-14768460D01*
X11512444Y-14768460D02*
X11493396Y-14777984D01*
X11493396Y-14777984D02*
X11474348Y-14777984D01*
X11474348Y-14777984D02*
X11455301Y-14768460D01*
X11455301Y-14768460D02*
X11445777Y-14758936D01*
X11445777Y-14758936D02*
X11436253Y-14739888D01*
X11436253Y-14739888D02*
X11426729Y-14701793D01*
X11426729Y-14701793D02*
X11426729Y-14654174D01*
X11426729Y-14654174D02*
X11436253Y-14616079D01*
X11436253Y-14616079D02*
X11445777Y-14597031D01*
X11445777Y-14597031D02*
X11455301Y-14587508D01*
X11455301Y-14587508D02*
X11474348Y-14577984D01*
X11607682Y-14577984D02*
X11731491Y-14577984D01*
X11731491Y-14577984D02*
X11664825Y-14654174D01*
X11664825Y-14654174D02*
X11693396Y-14654174D01*
X11693396Y-14654174D02*
X11712444Y-14663698D01*
X11712444Y-14663698D02*
X11721967Y-14673222D01*
X11721967Y-14673222D02*
X11731491Y-14692269D01*
X11731491Y-14692269D02*
X11731491Y-14739888D01*
X11731491Y-14739888D02*
X11721967Y-14758936D01*
X11721967Y-14758936D02*
X11712444Y-14768460D01*
X11712444Y-14768460D02*
X11693396Y-14777984D01*
X11693396Y-14777984D02*
X11636253Y-14777984D01*
X11636253Y-14777984D02*
X11617206Y-14768460D01*
X11617206Y-14768460D02*
X11607682Y-14758936D01*
X11826729Y-14777984D02*
X11864825Y-14777984D01*
X11864825Y-14777984D02*
X11883872Y-14768460D01*
X11883872Y-14768460D02*
X11893396Y-14758936D01*
X11893396Y-14758936D02*
X11912444Y-14730365D01*
X11912444Y-14730365D02*
X11921967Y-14692269D01*
X11921967Y-14692269D02*
X11921967Y-14616079D01*
X11921967Y-14616079D02*
X11912444Y-14597031D01*
X11912444Y-14597031D02*
X11902920Y-14587508D01*
X11902920Y-14587508D02*
X11883872Y-14577984D01*
X11883872Y-14577984D02*
X11845777Y-14577984D01*
X11845777Y-14577984D02*
X11826729Y-14587508D01*
X11826729Y-14587508D02*
X11817206Y-14597031D01*
X11817206Y-14597031D02*
X11807682Y-14616079D01*
X11807682Y-14616079D02*
X11807682Y-14663698D01*
X11807682Y-14663698D02*
X11817206Y-14682746D01*
X11817206Y-14682746D02*
X11826729Y-14692269D01*
X11826729Y-14692269D02*
X11845777Y-14701793D01*
X11845777Y-14701793D02*
X11883872Y-14701793D01*
X11883872Y-14701793D02*
X11902920Y-14692269D01*
X11902920Y-14692269D02*
X11912444Y-14682746D01*
X11912444Y-14682746D02*
X11921967Y-14663698D01*
X12093396Y-14644650D02*
X12093396Y-14777984D01*
X12045777Y-14568460D02*
X11998158Y-14711317D01*
X11998158Y-14711317D02*
X12121967Y-14711317D01*
X12188634Y-14577984D02*
X12188634Y-14616079D01*
X12264825Y-14577984D02*
X12264825Y-14616079D01*
X12560063Y-14854174D02*
X12550539Y-14844650D01*
X12550539Y-14844650D02*
X12531491Y-14816079D01*
X12531491Y-14816079D02*
X12521968Y-14797031D01*
X12521968Y-14797031D02*
X12512444Y-14768460D01*
X12512444Y-14768460D02*
X12502920Y-14720841D01*
X12502920Y-14720841D02*
X12502920Y-14682746D01*
X12502920Y-14682746D02*
X12512444Y-14635127D01*
X12512444Y-14635127D02*
X12521968Y-14606555D01*
X12521968Y-14606555D02*
X12531491Y-14587508D01*
X12531491Y-14587508D02*
X12550539Y-14558936D01*
X12550539Y-14558936D02*
X12560063Y-14549412D01*
X12731491Y-14577984D02*
X12636253Y-14577984D01*
X12636253Y-14577984D02*
X12626729Y-14673222D01*
X12626729Y-14673222D02*
X12636253Y-14663698D01*
X12636253Y-14663698D02*
X12655301Y-14654174D01*
X12655301Y-14654174D02*
X12702920Y-14654174D01*
X12702920Y-14654174D02*
X12721968Y-14663698D01*
X12721968Y-14663698D02*
X12731491Y-14673222D01*
X12731491Y-14673222D02*
X12741015Y-14692269D01*
X12741015Y-14692269D02*
X12741015Y-14739888D01*
X12741015Y-14739888D02*
X12731491Y-14758936D01*
X12731491Y-14758936D02*
X12721968Y-14768460D01*
X12721968Y-14768460D02*
X12702920Y-14777984D01*
X12702920Y-14777984D02*
X12655301Y-14777984D01*
X12655301Y-14777984D02*
X12636253Y-14768460D01*
X12636253Y-14768460D02*
X12626729Y-14758936D01*
X12817206Y-14597031D02*
X12826729Y-14587508D01*
X12826729Y-14587508D02*
X12845777Y-14577984D01*
X12845777Y-14577984D02*
X12893396Y-14577984D01*
X12893396Y-14577984D02*
X12912444Y-14587508D01*
X12912444Y-14587508D02*
X12921968Y-14597031D01*
X12921968Y-14597031D02*
X12931491Y-14616079D01*
X12931491Y-14616079D02*
X12931491Y-14635127D01*
X12931491Y-14635127D02*
X12921968Y-14663698D01*
X12921968Y-14663698D02*
X12807682Y-14777984D01*
X12807682Y-14777984D02*
X12931491Y-14777984D01*
X13169587Y-14777984D02*
X13169587Y-14577984D01*
X13255301Y-14777984D02*
X13255301Y-14673222D01*
X13255301Y-14673222D02*
X13245777Y-14654174D01*
X13245777Y-14654174D02*
X13226730Y-14644650D01*
X13226730Y-14644650D02*
X13198158Y-14644650D01*
X13198158Y-14644650D02*
X13179110Y-14654174D01*
X13179110Y-14654174D02*
X13169587Y-14663698D01*
X13379110Y-14777984D02*
X13360063Y-14768460D01*
X13360063Y-14768460D02*
X13350539Y-14758936D01*
X13350539Y-14758936D02*
X13341015Y-14739888D01*
X13341015Y-14739888D02*
X13341015Y-14682746D01*
X13341015Y-14682746D02*
X13350539Y-14663698D01*
X13350539Y-14663698D02*
X13360063Y-14654174D01*
X13360063Y-14654174D02*
X13379110Y-14644650D01*
X13379110Y-14644650D02*
X13407682Y-14644650D01*
X13407682Y-14644650D02*
X13426730Y-14654174D01*
X13426730Y-14654174D02*
X13436253Y-14663698D01*
X13436253Y-14663698D02*
X13445777Y-14682746D01*
X13445777Y-14682746D02*
X13445777Y-14739888D01*
X13445777Y-14739888D02*
X13436253Y-14758936D01*
X13436253Y-14758936D02*
X13426730Y-14768460D01*
X13426730Y-14768460D02*
X13407682Y-14777984D01*
X13407682Y-14777984D02*
X13379110Y-14777984D01*
X13560063Y-14777984D02*
X13541015Y-14768460D01*
X13541015Y-14768460D02*
X13531491Y-14749412D01*
X13531491Y-14749412D02*
X13531491Y-14577984D01*
X13712444Y-14768460D02*
X13693396Y-14777984D01*
X13693396Y-14777984D02*
X13655301Y-14777984D01*
X13655301Y-14777984D02*
X13636253Y-14768460D01*
X13636253Y-14768460D02*
X13626730Y-14749412D01*
X13626730Y-14749412D02*
X13626730Y-14673222D01*
X13626730Y-14673222D02*
X13636253Y-14654174D01*
X13636253Y-14654174D02*
X13655301Y-14644650D01*
X13655301Y-14644650D02*
X13693396Y-14644650D01*
X13693396Y-14644650D02*
X13712444Y-14654174D01*
X13712444Y-14654174D02*
X13721968Y-14673222D01*
X13721968Y-14673222D02*
X13721968Y-14692269D01*
X13721968Y-14692269D02*
X13626730Y-14711317D01*
X13798158Y-14768460D02*
X13817206Y-14777984D01*
X13817206Y-14777984D02*
X13855301Y-14777984D01*
X13855301Y-14777984D02*
X13874349Y-14768460D01*
X13874349Y-14768460D02*
X13883872Y-14749412D01*
X13883872Y-14749412D02*
X13883872Y-14739888D01*
X13883872Y-14739888D02*
X13874349Y-14720841D01*
X13874349Y-14720841D02*
X13855301Y-14711317D01*
X13855301Y-14711317D02*
X13826730Y-14711317D01*
X13826730Y-14711317D02*
X13807682Y-14701793D01*
X13807682Y-14701793D02*
X13798158Y-14682746D01*
X13798158Y-14682746D02*
X13798158Y-14673222D01*
X13798158Y-14673222D02*
X13807682Y-14654174D01*
X13807682Y-14654174D02*
X13826730Y-14644650D01*
X13826730Y-14644650D02*
X13855301Y-14644650D01*
X13855301Y-14644650D02*
X13874349Y-14654174D01*
X13950539Y-14854174D02*
X13960063Y-14844650D01*
X13960063Y-14844650D02*
X13979111Y-14816079D01*
X13979111Y-14816079D02*
X13988634Y-14797031D01*
X13988634Y-14797031D02*
X13998158Y-14768460D01*
X13998158Y-14768460D02*
X14007682Y-14720841D01*
X14007682Y-14720841D02*
X14007682Y-14682746D01*
X14007682Y-14682746D02*
X13998158Y-14635127D01*
X13998158Y-14635127D02*
X13988634Y-14606555D01*
X13988634Y-14606555D02*
X13979111Y-14587508D01*
X13979111Y-14587508D02*
X13960063Y-14558936D01*
X13960063Y-14558936D02*
X13950539Y-14549412D01*
M02*
