%TF.GenerationSoftware,KiCad,Pcbnew,9.0.7*%
%TF.CreationDate,2026-04-10T14:53:05+02:00*%
%TF.ProjectId,RP_spectroscopy,52505f73-7065-4637-9472-6f73636f7079,rev?*%
%TF.SameCoordinates,Original*%
%TF.FileFunction,Copper,L2,Bot*%
%TF.FilePolarity,Positive*%
%FSLAX45Y45*%
G04 Gerber Fmt 4.5, Leading zero omitted, Abs format (unit mm)*
G04 Created by KiCad (PCBNEW 9.0.7) date 2026-04-10 14:53:05*
%MOMM*%
%LPD*%
G01*
G04 APERTURE LIST*
G04 Aperture macros list*
%AMRotRect*
0 Rectangle, with rotation*
0 The origin of the aperture is its center*
0 $1 length*
0 $2 width*
0 $3 Rotation angle, in degrees counterclockwise*
0 Add horizontal line*
21,1,$1,$2,0,0,$3*%
G04 Aperture macros list end*
%TA.AperFunction,SMDPad,CuDef*%
%ADD10RotRect,5.080000X2.420000X302.169000*%
%TD*%
%TA.AperFunction,SMDPad,CuDef*%
%ADD11RotRect,5.080000X2.420000X237.831000*%
%TD*%
%TA.AperFunction,SMDPad,CuDef*%
%ADD12RotRect,5.080000X2.420000X276.476000*%
%TD*%
%TA.AperFunction,SMDPad,CuDef*%
%ADD13RotRect,5.080000X2.420000X250.697000*%
%TD*%
%TA.AperFunction,SMDPad,CuDef*%
%ADD14RotRect,5.080000X2.420000X289.298000*%
%TD*%
%TA.AperFunction,SMDPad,CuDef*%
%ADD15RotRect,5.080000X2.420000X263.566000*%
%TD*%
%TA.AperFunction,ComponentPad*%
%ADD16R,1.700000X1.700000*%
%TD*%
%TA.AperFunction,ComponentPad*%
%ADD17O,2.200000X1.700000*%
%TD*%
%TA.AperFunction,ViaPad*%
%ADD18C,1.500000*%
%TD*%
%TA.AperFunction,Conductor*%
%ADD19C,0.500000*%
%TD*%
G04 APERTURE END LIST*
D10*
%TO.P,J3,2,Ext*%
%TO.N,GND*%
X9495935Y-4977717D03*
X10237453Y-4511319D03*
%TD*%
D11*
%TO.P,J9,2,Ext*%
%TO.N,GND*%
X16840000Y-4520000D03*
X17581518Y-4986399D03*
%TD*%
D12*
%TO.P,J6,2,Ext*%
%TO.N,GND*%
X13181110Y-3680002D03*
X12310699Y-3778804D03*
%TD*%
D13*
%TO.P,J4,2,Ext*%
%TO.N,GND*%
X16226754Y-4229574D03*
X15400000Y-3940000D03*
%TD*%
D14*
%TO.P,J5,2,Ext*%
%TO.N,GND*%
X11647896Y-3939381D03*
X10821116Y-4228883D03*
%TD*%
D15*
%TO.P,J10,2,Ext*%
%TO.N,GND*%
X14680000Y-3780000D03*
X13809517Y-3681837D03*
%TD*%
D16*
%TO.P,J1,1,Pin_1*%
%TO.N,Net-(J1-Pin_1)*%
X11100000Y-8766000D03*
D17*
%TO.P,J1,2,Pin_2*%
X10846000Y-8766000D03*
%TO.P,J1,3,Pin_3*%
%TO.N,Ramp sign*%
X11100000Y-8512000D03*
%TO.P,J1,4,Pin_4*%
%TO.N,unconnected-(J1-Pin_4-Pad4)*%
X10846000Y-8512000D03*
%TO.P,J1,5,Pin_5*%
%TO.N,Multiplex switch*%
X11100000Y-8258000D03*
%TO.P,J1,6,Pin_6*%
%TO.N,unconnected-(J1-Pin_6-Pad6)*%
X10846000Y-8258000D03*
%TO.P,J1,7,Pin_7*%
%TO.N,unconnected-(J1-Pin_7-Pad7)*%
X11100000Y-8004000D03*
%TO.P,J1,8,Pin_8*%
%TO.N,unconnected-(J1-Pin_8-Pad8)*%
X10846000Y-8004000D03*
%TO.P,J1,9,Pin_9*%
%TO.N,unconnected-(J1-Pin_9-Pad9)*%
X11100000Y-7750000D03*
%TO.P,J1,10,Pin_10*%
%TO.N,unconnected-(J1-Pin_10-Pad10)*%
X10846000Y-7750000D03*
%TO.P,J1,11,Pin_11*%
%TO.N,unconnected-(J1-Pin_11-Pad11)*%
X11100000Y-7496000D03*
%TO.P,J1,12,Pin_12*%
%TO.N,unconnected-(J1-Pin_12-Pad12)*%
X10846000Y-7496000D03*
%TO.P,J1,13,Pin_13*%
%TO.N,unconnected-(J1-Pin_13-Pad13)*%
X11100000Y-7242000D03*
%TO.P,J1,14,Pin_14*%
%TO.N,unconnected-(J1-Pin_14-Pad14)*%
X10846000Y-7242000D03*
%TO.P,J1,15,Pin_15*%
%TO.N,unconnected-(J1-Pin_15-Pad15)*%
X11100000Y-6988000D03*
%TO.P,J1,16,Pin_16*%
%TO.N,unconnected-(J1-Pin_16-Pad16)*%
X10846000Y-6988000D03*
%TO.P,J1,17,Pin_17*%
%TO.N,unconnected-(J1-Pin_17-Pad17)*%
X11100000Y-6734000D03*
%TO.P,J1,18,Pin_18*%
%TO.N,unconnected-(J1-Pin_18-Pad18)*%
X10846000Y-6734000D03*
%TO.P,J1,19,Pin_19*%
%TO.N,unconnected-(J1-Pin_19-Pad19)*%
X11100000Y-6480000D03*
%TO.P,J1,20,Pin_20*%
%TO.N,unconnected-(J1-Pin_20-Pad20)*%
X10846000Y-6480000D03*
%TO.P,J1,21,Pin_21*%
%TO.N,unconnected-(J1-Pin_21-Pad21)*%
X11100000Y-6226000D03*
%TO.P,J1,22,Pin_22*%
%TO.N,unconnected-(J1-Pin_22-Pad22)*%
X10846000Y-6226000D03*
%TO.P,J1,23,Pin_23*%
%TO.N,unconnected-(J1-Pin_23-Pad23)*%
X11100000Y-5972000D03*
%TO.P,J1,24,Pin_24*%
%TO.N,unconnected-(J1-Pin_24-Pad24)*%
X10846000Y-5972000D03*
%TO.P,J1,25,Pin_25*%
%TO.N,GND*%
X11100000Y-5718000D03*
%TO.P,J1,26,Pin_26*%
X10846000Y-5718000D03*
%TD*%
D16*
%TO.P,J2,1,Pin_1*%
%TO.N,Net-(J2-Pin_1)*%
X16180000Y-8766000D03*
D17*
%TO.P,J2,2,Pin_2*%
%TO.N,unconnected-(J2-Pin_2-Pad2)*%
X15926000Y-8766000D03*
%TO.P,J2,3,Pin_3*%
%TO.N,unconnected-(J2-Pin_3-Pad3)*%
X16180000Y-8512000D03*
%TO.P,J2,4,Pin_4*%
%TO.N,unconnected-(J2-Pin_4-Pad4)*%
X15926000Y-8512000D03*
%TO.P,J2,5,Pin_5*%
%TO.N,unconnected-(J2-Pin_5-Pad5)*%
X16180000Y-8258000D03*
%TO.P,J2,6,Pin_6*%
%TO.N,unconnected-(J2-Pin_6-Pad6)*%
X15926000Y-8258000D03*
%TO.P,J2,7,Pin_7*%
%TO.N,unconnected-(J2-Pin_7-Pad7)*%
X16180000Y-8004000D03*
%TO.P,J2,8,Pin_8*%
%TO.N,unconnected-(J2-Pin_8-Pad8)*%
X15926000Y-8004000D03*
%TO.P,J2,9,Pin_9*%
%TO.N,unconnected-(J2-Pin_9-Pad9)*%
X16180000Y-7750000D03*
%TO.P,J2,10,Pin_10*%
%TO.N,unconnected-(J2-Pin_10-Pad10)*%
X15926000Y-7750000D03*
%TO.P,J2,11,Pin_11*%
%TO.N,unconnected-(J2-Pin_11-Pad11)*%
X16180000Y-7496000D03*
%TO.P,J2,12,Pin_12*%
%TO.N,GND*%
X15926000Y-7496000D03*
%TO.P,J2,13,Pin_13*%
%TO.N,unconnected-(J2-Pin_13-Pad13)*%
X16180000Y-7242000D03*
%TO.P,J2,14,Pin_14*%
%TO.N,unconnected-(J2-Pin_14-Pad14)*%
X15926000Y-7242000D03*
%TO.P,J2,15,Pin_15*%
%TO.N,unconnected-(J2-Pin_15-Pad15)*%
X16180000Y-6988000D03*
%TO.P,J2,16,Pin_16*%
%TO.N,unconnected-(J2-Pin_16-Pad16)*%
X15926000Y-6988000D03*
%TO.P,J2,17,Pin_17*%
%TO.N,Slow integrator*%
X16180000Y-6734000D03*
%TO.P,J2,18,Pin_18*%
%TO.N,Big offset*%
X15926000Y-6734000D03*
%TO.P,J2,19,Pin_19*%
%TO.N,Small offset*%
X16180000Y-6480000D03*
%TO.P,J2,20,Pin_20*%
%TO.N,unconnected-(J2-Pin_20-Pad20)*%
X15926000Y-6480000D03*
%TO.P,J2,21,Pin_21*%
%TO.N,GND*%
X16180000Y-6226000D03*
%TO.P,J2,22,Pin_22*%
X15926000Y-6226000D03*
%TO.P,J2,23,Pin_23*%
%TO.N,unconnected-(J2-Pin_23-Pad23)*%
X16180000Y-5972000D03*
%TO.P,J2,24,Pin_24*%
%TO.N,unconnected-(J2-Pin_24-Pad24)*%
X15926000Y-5972000D03*
%TO.P,J2,25,Pin_25*%
%TO.N,GND*%
X16180000Y-5718000D03*
%TO.P,J2,26,Pin_26*%
X15926000Y-5718000D03*
%TD*%
D18*
%TO.N,GND*%
X13220000Y-5040000D03*
X11480000Y-9800000D03*
X12340000Y-5200000D03*
X13060000Y-9660000D03*
X14720000Y-5460000D03*
X16040000Y-9080000D03*
X12600000Y-6680000D03*
X11920000Y-9380000D03*
X14140000Y-11820000D03*
X15900000Y-5460000D03*
X12080000Y-6240000D03*
X12320000Y-9800000D03*
X16480000Y-7860000D03*
X16680000Y-5340000D03*
X14140000Y-9480000D03*
X12340000Y-5740000D03*
X16540000Y-9900000D03*
X11380000Y-7900000D03*
X14320000Y-5440000D03*
X12960000Y-9120000D03*
X9880000Y-8960000D03*
X15040000Y-7340000D03*
X15660000Y-6000000D03*
X13380000Y-8440000D03*
X16100000Y-9900000D03*
X16540000Y-9480000D03*
X14440000Y-10720000D03*
X12340000Y-7280000D03*
X11920000Y-10660000D03*
X17080000Y-10520000D03*
X13860000Y-7620000D03*
X12200000Y-12060000D03*
X16100000Y-9480000D03*
X11760000Y-7060000D03*
X9880000Y-6360000D03*
X12080000Y-4320000D03*
X9880000Y-13020000D03*
X14600000Y-7480000D03*
X14000000Y-6600000D03*
X13820000Y-8900000D03*
X17080000Y-6140000D03*
X14140000Y-5840000D03*
X17080000Y-13020000D03*
X11480000Y-9240000D03*
X11760000Y-4960000D03*
X15340000Y-8160000D03*
X14200000Y-8480000D03*
X11480000Y-5280000D03*
%TO.N,+3V3*%
X13540000Y-9380000D03*
X11180000Y-9200000D03*
X15120000Y-7040000D03*
X12376250Y-9276250D03*
%TO.N,+5VA*%
X11376066Y-8483934D03*
X14580000Y-6895000D03*
X13700000Y-7180000D03*
X12320000Y-4360000D03*
X11980000Y-6440000D03*
%TO.N,-5VA*%
X15840000Y-4820000D03*
X12143750Y-5420000D03*
X12660000Y-5640000D03*
X16880000Y-5480000D03*
X15440000Y-6500000D03*
%TO.N,-15V*%
X13100000Y-11660000D03*
X13247500Y-12787500D03*
%TO.N,Net-(J2-Pin_1)*%
X16320000Y-9000000D03*
X16020000Y-10520000D03*
%TO.N,Multiplex switch*%
X14860000Y-6835000D03*
X11454798Y-8260000D03*
%TO.N,Ramp sign*%
X12520000Y-8620000D03*
X11360000Y-8780000D03*
%TD*%
D19*
%TO.N,+3V3*%
X13540000Y-9380000D02*
X13280000Y-9380000D01*
X15200000Y-7860000D02*
X13680000Y-9380000D01*
X15120000Y-7040000D02*
X15200000Y-7120000D01*
X15200000Y-7120000D02*
X15200000Y-7860000D01*
X12380000Y-9600000D02*
X11580000Y-9600000D01*
X12840000Y-9380000D02*
X12620000Y-9600000D01*
X12380000Y-9280000D02*
X12380000Y-9600000D01*
X12376250Y-9276250D02*
X12380000Y-9280000D01*
X11580000Y-9600000D02*
X11180000Y-9200000D01*
X13280000Y-9380000D02*
X12840000Y-9380000D01*
X13680000Y-9380000D02*
X13540000Y-9380000D01*
X12620000Y-9600000D02*
X12380000Y-9600000D01*
%TO.N,+5VA*%
X11980000Y-8100000D02*
X12780000Y-8100000D01*
X11920000Y-6380000D02*
X11920000Y-4760000D01*
X11300000Y-8407868D02*
X11300000Y-8180000D01*
X12780000Y-8100000D02*
X13700000Y-7180000D01*
X14295000Y-7180000D02*
X14580000Y-6895000D01*
X11980000Y-6440000D02*
X11920000Y-6380000D01*
X13700000Y-7180000D02*
X14295000Y-7180000D01*
X11376066Y-8483934D02*
X11300000Y-8407868D01*
X11920000Y-4760000D02*
X12320000Y-4360000D01*
X11300000Y-8180000D02*
X11380000Y-8100000D01*
X11980000Y-8100000D02*
X11980000Y-6440000D01*
X11380000Y-8100000D02*
X11980000Y-8100000D01*
%TO.N,-5VA*%
X15940000Y-5140000D02*
X16280000Y-5480000D01*
X15440000Y-5640000D02*
X15440000Y-6500000D01*
X16280000Y-5480000D02*
X16880000Y-5480000D01*
X15840000Y-5040000D02*
X15840000Y-4820000D01*
X12660000Y-5640000D02*
X12600000Y-5640000D01*
X15840000Y-5040000D02*
X15940000Y-5140000D01*
X12380000Y-5420000D02*
X12143750Y-5420000D01*
X12600000Y-5640000D02*
X12380000Y-5420000D01*
X15940000Y-5140000D02*
X15440000Y-5640000D01*
X15440000Y-5640000D02*
X12660000Y-5640000D01*
%TO.N,-15V*%
X13247500Y-12667500D02*
X13247500Y-12787500D01*
X13100000Y-11660000D02*
X13180000Y-11740000D01*
X13180000Y-12600000D02*
X13247500Y-12667500D01*
X13180000Y-11740000D02*
X13180000Y-12600000D01*
%TO.N,Net-(J2-Pin_1)*%
X16320000Y-10220000D02*
X16320000Y-9000000D01*
X16020000Y-10520000D02*
X16320000Y-10220000D01*
%TO.N,Multiplex switch*%
X11454798Y-8260000D02*
X14340000Y-8260000D01*
X14340000Y-8260000D02*
X14860000Y-7740000D01*
X14860000Y-7740000D02*
X14860000Y-6835000D01*
%TO.N,Ramp sign*%
X12500000Y-8640000D02*
X12520000Y-8620000D01*
X11360000Y-8860000D02*
X11360000Y-8780000D01*
X11680000Y-9180000D02*
X11360000Y-8860000D01*
X12500000Y-8900000D02*
X12220000Y-9180000D01*
X12220000Y-9180000D02*
X11680000Y-9180000D01*
X12500000Y-8900000D02*
X12500000Y-8640000D01*
%TD*%
%TA.AperFunction,Conductor*%
%TO.N,GND*%
G36*
X16133407Y-6206701D02*
G01*
X16130000Y-6219417D01*
X16130000Y-6232583D01*
X16133407Y-6245299D01*
X16136699Y-6251000D01*
X15969301Y-6251000D01*
X15972592Y-6245299D01*
X15976000Y-6232583D01*
X15976000Y-6219417D01*
X15972592Y-6206701D01*
X15969301Y-6201000D01*
X16136699Y-6201000D01*
X16133407Y-6206701D01*
G37*
%TD.AperFunction*%
%TA.AperFunction,Conductor*%
G36*
X16133407Y-5698701D02*
G01*
X16130000Y-5711417D01*
X16130000Y-5724583D01*
X16133407Y-5737299D01*
X16136699Y-5743000D01*
X15969301Y-5743000D01*
X15972592Y-5737299D01*
X15976000Y-5724583D01*
X15976000Y-5711417D01*
X15972592Y-5698701D01*
X15969301Y-5693000D01*
X16136699Y-5693000D01*
X16133407Y-5698701D01*
G37*
%TD.AperFunction*%
%TA.AperFunction,Conductor*%
G36*
X11053408Y-5698701D02*
G01*
X11050000Y-5711417D01*
X11050000Y-5724583D01*
X11053408Y-5737299D01*
X11056699Y-5743000D01*
X10889301Y-5743000D01*
X10892593Y-5737299D01*
X10896000Y-5724583D01*
X10896000Y-5711417D01*
X10892593Y-5698701D01*
X10889301Y-5693000D01*
X11056699Y-5693000D01*
X11053408Y-5698701D01*
G37*
%TD.AperFunction*%
%TA.AperFunction,Conductor*%
G36*
X13656202Y-3404747D02*
G01*
X13662643Y-3407454D01*
X13666598Y-3413214D01*
X13667134Y-3418458D01*
X13642396Y-3637832D01*
X13812319Y-3656994D01*
X13982242Y-3676156D01*
X14006980Y-3456782D01*
X14009687Y-3450341D01*
X14015447Y-3446386D01*
X14020691Y-3445849D01*
X14526685Y-3502909D01*
X14533126Y-3505616D01*
X14537081Y-3511376D01*
X14537617Y-3516621D01*
X14512878Y-3735995D01*
X14682801Y-3755157D01*
X14852724Y-3774319D01*
X14877463Y-3554944D01*
X14880170Y-3548503D01*
X14885930Y-3544548D01*
X14891174Y-3544012D01*
X15118013Y-3569592D01*
X15120721Y-3570211D01*
X15311760Y-3637121D01*
X15317436Y-3641195D01*
X15320009Y-3647691D01*
X15319364Y-3652923D01*
X15246877Y-3859879D01*
X15408264Y-3916405D01*
X15569651Y-3972932D01*
X15642139Y-3765973D01*
X15646213Y-3760297D01*
X15652709Y-3757724D01*
X15657940Y-3758369D01*
X16138517Y-3926689D01*
X16144193Y-3930762D01*
X16146766Y-3937258D01*
X16146121Y-3942490D01*
X16073631Y-4149453D01*
X16235018Y-4205979D01*
X16396405Y-4262506D01*
X16468896Y-4055540D01*
X16472969Y-4049864D01*
X16479465Y-4047291D01*
X16484697Y-4047936D01*
X16640931Y-4102657D01*
X16643433Y-4103863D01*
X16816582Y-4212766D01*
X16821208Y-4218001D01*
X16822270Y-4224907D01*
X16820476Y-4229864D01*
X16708562Y-4407794D01*
X16853311Y-4498838D01*
X16998059Y-4589881D01*
X17109975Y-4411947D01*
X17115211Y-4407321D01*
X17122117Y-4406259D01*
X17127074Y-4408053D01*
X17558106Y-4679154D01*
X17562732Y-4684390D01*
X17563794Y-4691296D01*
X17562000Y-4696253D01*
X17450080Y-4874193D01*
X17594828Y-4965237D01*
X17739576Y-5056280D01*
X17851499Y-4878335D01*
X17856735Y-4873709D01*
X17863641Y-4872647D01*
X17868597Y-4874441D01*
X17947088Y-4923808D01*
X17983498Y-4946709D01*
X17988125Y-4951944D01*
X17989297Y-4957201D01*
X17989468Y-5449283D01*
X17989480Y-5482091D01*
X17989418Y-5705540D01*
X17987472Y-12700913D01*
X17987452Y-12773404D01*
X17987450Y-12773411D01*
X17987450Y-12779800D01*
X17987450Y-12779808D01*
X17987450Y-12779808D01*
X17987444Y-12780194D01*
X17985588Y-12839258D01*
X17985539Y-12840035D01*
X17979996Y-12898673D01*
X17979898Y-12899446D01*
X17970685Y-12957617D01*
X17970539Y-12958382D01*
X17957690Y-13015864D01*
X17957496Y-13016618D01*
X17941065Y-13073176D01*
X17940824Y-13073917D01*
X17920873Y-13129332D01*
X17920587Y-13130056D01*
X17897195Y-13184111D01*
X17896863Y-13184816D01*
X17870124Y-13237295D01*
X17869749Y-13237978D01*
X17839767Y-13288673D01*
X17839350Y-13289331D01*
X17806244Y-13338044D01*
X17805786Y-13338675D01*
X17769688Y-13385212D01*
X17769192Y-13385812D01*
X17730240Y-13429994D01*
X17729707Y-13430562D01*
X17688062Y-13472207D01*
X17687494Y-13472741D01*
X17643312Y-13511692D01*
X17642712Y-13512189D01*
X17596175Y-13548286D01*
X17595544Y-13548744D01*
X17546831Y-13581850D01*
X17546173Y-13582267D01*
X17495478Y-13612249D01*
X17494795Y-13612624D01*
X17442316Y-13639363D01*
X17441611Y-13639695D01*
X17387557Y-13663086D01*
X17386833Y-13663373D01*
X17331417Y-13683324D01*
X17330676Y-13683565D01*
X17274118Y-13699996D01*
X17273364Y-13700190D01*
X17215882Y-13713039D01*
X17215117Y-13713185D01*
X17156946Y-13722398D01*
X17156173Y-13722496D01*
X17097535Y-13728039D01*
X17096758Y-13728087D01*
X17063543Y-13729131D01*
X17037686Y-13729944D01*
X17037299Y-13729950D01*
X9987695Y-13729950D01*
X9987306Y-13729944D01*
X9928242Y-13728088D01*
X9927464Y-13728039D01*
X9868827Y-13722496D01*
X9868054Y-13722398D01*
X9809883Y-13713185D01*
X9809118Y-13713039D01*
X9751636Y-13700190D01*
X9750882Y-13699996D01*
X9694323Y-13683565D01*
X9693584Y-13683325D01*
X9638168Y-13663373D01*
X9637443Y-13663087D01*
X9583389Y-13639695D01*
X9582684Y-13639363D01*
X9530205Y-13612624D01*
X9529522Y-13612249D01*
X9478827Y-13582267D01*
X9478169Y-13581850D01*
X9429455Y-13548744D01*
X9428825Y-13548286D01*
X9382288Y-13512189D01*
X9381688Y-13511692D01*
X9337506Y-13472741D01*
X9336938Y-13472207D01*
X9295293Y-13430562D01*
X9294759Y-13429994D01*
X9255808Y-13385812D01*
X9255311Y-13385212D01*
X9219213Y-13338675D01*
X9218756Y-13338045D01*
X9185650Y-13289331D01*
X9185232Y-13288673D01*
X9179981Y-13279794D01*
X9176488Y-13273887D01*
X10619950Y-13273887D01*
X10619950Y-13300113D01*
X10622044Y-13316014D01*
X10623373Y-13326112D01*
X10626657Y-13338366D01*
X10630160Y-13351442D01*
X10630161Y-13351443D01*
X10640195Y-13375669D01*
X10640196Y-13375670D01*
X10653308Y-13398380D01*
X10669272Y-13419185D01*
X10669273Y-13419186D01*
X10687814Y-13437727D01*
X10687815Y-13437728D01*
X10708620Y-13453692D01*
X10731330Y-13466804D01*
X10731331Y-13466805D01*
X10755557Y-13476839D01*
X10755558Y-13476840D01*
X10780888Y-13483627D01*
X10806888Y-13487050D01*
X10806889Y-13487050D01*
X10833111Y-13487050D01*
X10833112Y-13487050D01*
X10859112Y-13483627D01*
X10884442Y-13476840D01*
X10908670Y-13466804D01*
X10931380Y-13453692D01*
X10952185Y-13437728D01*
X10952186Y-13437728D01*
X10952186Y-13437727D01*
X10970727Y-13419186D01*
X10970728Y-13419185D01*
X10970728Y-13419185D01*
X10986692Y-13398380D01*
X10999804Y-13375670D01*
X11009840Y-13351442D01*
X11016627Y-13326112D01*
X11020050Y-13300112D01*
X11020050Y-13273888D01*
X11020050Y-13273887D01*
X16019950Y-13273887D01*
X16019950Y-13300113D01*
X16022044Y-13316014D01*
X16023373Y-13326112D01*
X16026657Y-13338366D01*
X16030160Y-13351442D01*
X16030160Y-13351443D01*
X16040195Y-13375669D01*
X16040196Y-13375670D01*
X16053307Y-13398380D01*
X16069272Y-13419185D01*
X16069273Y-13419186D01*
X16087814Y-13437727D01*
X16087815Y-13437728D01*
X16108620Y-13453692D01*
X16131330Y-13466804D01*
X16131331Y-13466805D01*
X16155557Y-13476839D01*
X16155558Y-13476840D01*
X16180888Y-13483627D01*
X16206888Y-13487050D01*
X16206889Y-13487050D01*
X16233111Y-13487050D01*
X16233112Y-13487050D01*
X16259112Y-13483627D01*
X16284442Y-13476840D01*
X16308670Y-13466804D01*
X16331380Y-13453692D01*
X16352185Y-13437728D01*
X16352185Y-13437728D01*
X16352186Y-13437727D01*
X16370727Y-13419186D01*
X16370728Y-13419185D01*
X16370728Y-13419185D01*
X16386692Y-13398380D01*
X16399804Y-13375670D01*
X16409840Y-13351442D01*
X16416627Y-13326112D01*
X16420050Y-13300112D01*
X16420050Y-13273888D01*
X16416627Y-13247888D01*
X16409840Y-13222558D01*
X16400020Y-13198852D01*
X16399805Y-13198331D01*
X16399804Y-13198330D01*
X16386692Y-13175620D01*
X16370728Y-13154815D01*
X16370727Y-13154814D01*
X16352186Y-13136273D01*
X16352185Y-13136272D01*
X16331380Y-13120307D01*
X16308670Y-13107196D01*
X16308669Y-13107195D01*
X16284443Y-13097160D01*
X16284442Y-13097160D01*
X16284442Y-13097160D01*
X16259112Y-13090373D01*
X16253334Y-13089612D01*
X16233113Y-13086950D01*
X16233112Y-13086950D01*
X16206888Y-13086950D01*
X16206887Y-13086950D01*
X16183777Y-13089993D01*
X16180888Y-13090373D01*
X16155558Y-13097160D01*
X16155557Y-13097160D01*
X16131331Y-13107195D01*
X16131330Y-13107196D01*
X16108620Y-13120307D01*
X16087815Y-13136272D01*
X16069272Y-13154815D01*
X16053307Y-13175620D01*
X16040196Y-13198330D01*
X16040195Y-13198331D01*
X16030160Y-13222557D01*
X16030160Y-13222558D01*
X16025517Y-13239888D01*
X16023373Y-13247888D01*
X16019950Y-13273887D01*
X11020050Y-13273887D01*
X11016627Y-13247888D01*
X11009840Y-13222558D01*
X11000020Y-13198852D01*
X10999805Y-13198331D01*
X10999804Y-13198330D01*
X10986692Y-13175620D01*
X10970728Y-13154815D01*
X10970727Y-13154814D01*
X10952186Y-13136273D01*
X10952185Y-13136272D01*
X10931380Y-13120307D01*
X10908670Y-13107196D01*
X10908669Y-13107195D01*
X10884443Y-13097160D01*
X10884442Y-13097160D01*
X10884442Y-13097160D01*
X10859112Y-13090373D01*
X10853334Y-13089612D01*
X10833113Y-13086950D01*
X10833112Y-13086950D01*
X10806888Y-13086950D01*
X10806887Y-13086950D01*
X10783777Y-13089993D01*
X10780888Y-13090373D01*
X10755558Y-13097160D01*
X10755557Y-13097160D01*
X10731331Y-13107195D01*
X10731330Y-13107196D01*
X10708620Y-13120307D01*
X10687815Y-13136272D01*
X10669272Y-13154815D01*
X10653308Y-13175620D01*
X10640196Y-13198330D01*
X10640195Y-13198331D01*
X10630161Y-13222557D01*
X10630160Y-13222558D01*
X10625517Y-13239888D01*
X10623373Y-13247888D01*
X10619950Y-13273887D01*
X9176488Y-13273887D01*
X9155251Y-13237978D01*
X9154876Y-13237295D01*
X9128136Y-13184816D01*
X9127805Y-13184111D01*
X9115127Y-13154814D01*
X9104413Y-13130056D01*
X9104127Y-13129334D01*
X9084175Y-13073914D01*
X9083936Y-13073179D01*
X9067503Y-13016617D01*
X9067310Y-13015864D01*
X9063872Y-13000486D01*
X9054461Y-12958380D01*
X9054315Y-12957619D01*
X9045102Y-12899446D01*
X9045004Y-12898673D01*
X9043511Y-12882883D01*
X9039461Y-12840034D01*
X9039412Y-12839260D01*
X9037556Y-12780194D01*
X9037550Y-12779800D01*
X9037555Y-12772617D01*
X9038324Y-11650158D01*
X12974950Y-11650158D01*
X12974950Y-11669842D01*
X12978029Y-11689283D01*
X12984112Y-11708003D01*
X12993048Y-11725540D01*
X13004617Y-11741465D01*
X13018535Y-11755383D01*
X13034459Y-11766952D01*
X13042745Y-11771174D01*
X13051997Y-11775888D01*
X13051997Y-11775888D01*
X13051997Y-11775888D01*
X13062032Y-11779149D01*
X13070717Y-11781971D01*
X13090158Y-11785050D01*
X13090158Y-11785050D01*
X13092550Y-11785050D01*
X13099254Y-11787018D01*
X13103829Y-11792299D01*
X13104950Y-11797450D01*
X13104950Y-12607392D01*
X13104950Y-12607392D01*
X13104950Y-12607392D01*
X13107834Y-12621891D01*
X13107834Y-12621892D01*
X13113491Y-12635549D01*
X13116781Y-12640473D01*
X13116781Y-12640473D01*
X13121705Y-12647841D01*
X13121705Y-12647842D01*
X13157240Y-12683376D01*
X13160588Y-12689509D01*
X13160090Y-12696478D01*
X13157240Y-12700913D01*
X13152117Y-12706035D01*
X13140548Y-12721959D01*
X13131612Y-12739497D01*
X13125529Y-12758217D01*
X13122450Y-12777658D01*
X13122450Y-12797342D01*
X13125529Y-12816783D01*
X13131612Y-12835503D01*
X13140548Y-12853040D01*
X13152117Y-12868965D01*
X13166035Y-12882883D01*
X13181959Y-12894452D01*
X13190243Y-12898673D01*
X13199497Y-12903388D01*
X13199497Y-12903388D01*
X13199497Y-12903388D01*
X13209532Y-12906649D01*
X13218217Y-12909471D01*
X13237658Y-12912550D01*
X13237658Y-12912550D01*
X13257342Y-12912550D01*
X13276783Y-12909471D01*
X13295502Y-12903388D01*
X13313040Y-12894452D01*
X13328965Y-12882883D01*
X13342883Y-12868965D01*
X13354452Y-12853040D01*
X13363388Y-12835502D01*
X13369471Y-12816783D01*
X13370271Y-12811729D01*
X13372550Y-12797342D01*
X13372550Y-12777658D01*
X13369471Y-12758217D01*
X13363388Y-12739497D01*
X13354452Y-12721959D01*
X13342883Y-12706035D01*
X13328965Y-12692117D01*
X13328964Y-12692117D01*
X13328964Y-12692117D01*
X13327661Y-12691170D01*
X13323395Y-12685637D01*
X13322550Y-12681138D01*
X13322550Y-12660108D01*
X13319666Y-12645609D01*
X13319666Y-12645609D01*
X13319666Y-12645609D01*
X13319666Y-12645608D01*
X13314009Y-12631951D01*
X13314008Y-12631950D01*
X13305795Y-12619658D01*
X13305795Y-12619658D01*
X13295342Y-12609205D01*
X13258682Y-12572545D01*
X13255333Y-12566413D01*
X13255050Y-12563777D01*
X13255050Y-11732608D01*
X13252166Y-11718109D01*
X13252166Y-11718109D01*
X13252166Y-11718109D01*
X13252166Y-11718108D01*
X13246508Y-11704451D01*
X13246508Y-11704450D01*
X13240561Y-11695549D01*
X13238295Y-11692158D01*
X13228057Y-11681920D01*
X13227848Y-11681689D01*
X13226460Y-11678812D01*
X13224929Y-11676008D01*
X13224917Y-11675616D01*
X13224812Y-11675397D01*
X13224892Y-11674737D01*
X13224798Y-11671433D01*
X13225050Y-11669842D01*
X13225050Y-11650158D01*
X13225050Y-11650158D01*
X13221971Y-11630717D01*
X13215888Y-11611997D01*
X13206952Y-11594459D01*
X13195383Y-11578535D01*
X13181465Y-11564617D01*
X13165540Y-11553048D01*
X13148003Y-11544112D01*
X13129283Y-11538029D01*
X13109842Y-11534950D01*
X13109842Y-11534950D01*
X13090158Y-11534950D01*
X13090158Y-11534950D01*
X13070717Y-11538029D01*
X13051997Y-11544112D01*
X13034459Y-11553048D01*
X13025374Y-11559648D01*
X13018535Y-11564617D01*
X13018535Y-11564617D01*
X13018535Y-11564617D01*
X13004617Y-11578535D01*
X13004617Y-11578535D01*
X13004617Y-11578535D01*
X12999648Y-11585374D01*
X12993048Y-11594459D01*
X12984112Y-11611997D01*
X12978029Y-11630717D01*
X12974950Y-11650158D01*
X9038324Y-11650158D01*
X9042222Y-5961371D01*
X10685950Y-5961371D01*
X10685950Y-5982629D01*
X10689275Y-6003624D01*
X10695844Y-6023841D01*
X10705495Y-6042782D01*
X10717989Y-6059979D01*
X10733021Y-6075011D01*
X10750218Y-6087505D01*
X10751095Y-6087952D01*
X10756174Y-6092749D01*
X10757854Y-6099531D01*
X10755600Y-6106145D01*
X10751095Y-6110048D01*
X10750218Y-6110495D01*
X10733021Y-6122989D01*
X10717989Y-6138021D01*
X10705495Y-6155218D01*
X10695844Y-6174158D01*
X10689275Y-6194376D01*
X10685950Y-6215371D01*
X10685950Y-6236629D01*
X10689275Y-6257624D01*
X10695844Y-6277841D01*
X10705495Y-6296782D01*
X10717989Y-6313979D01*
X10733021Y-6329011D01*
X10750218Y-6341505D01*
X10751095Y-6341952D01*
X10756174Y-6346749D01*
X10757854Y-6353531D01*
X10755600Y-6360145D01*
X10751095Y-6364048D01*
X10750218Y-6364495D01*
X10733021Y-6376989D01*
X10717989Y-6392021D01*
X10705495Y-6409218D01*
X10695844Y-6428158D01*
X10689275Y-6448376D01*
X10685950Y-6469371D01*
X10685950Y-6490629D01*
X10688993Y-6509842D01*
X10689275Y-6511624D01*
X10692473Y-6521465D01*
X10695844Y-6531841D01*
X10705495Y-6550782D01*
X10717989Y-6567979D01*
X10733021Y-6583011D01*
X10750218Y-6595505D01*
X10751095Y-6595952D01*
X10756174Y-6600749D01*
X10757854Y-6607531D01*
X10755600Y-6614145D01*
X10751095Y-6618048D01*
X10750218Y-6618495D01*
X10733021Y-6630989D01*
X10717989Y-6646021D01*
X10705495Y-6663218D01*
X10695844Y-6682158D01*
X10689275Y-6702376D01*
X10685950Y-6723371D01*
X10685950Y-6744629D01*
X10689275Y-6765624D01*
X10693658Y-6779112D01*
X10695844Y-6785841D01*
X10705495Y-6804782D01*
X10717989Y-6821979D01*
X10733021Y-6837011D01*
X10750218Y-6849505D01*
X10751095Y-6849952D01*
X10756174Y-6854749D01*
X10757854Y-6861531D01*
X10755600Y-6868145D01*
X10751095Y-6872048D01*
X10750218Y-6872495D01*
X10733021Y-6884989D01*
X10717989Y-6900021D01*
X10705495Y-6917218D01*
X10695844Y-6936158D01*
X10689275Y-6956376D01*
X10685950Y-6977371D01*
X10685950Y-6998629D01*
X10689146Y-7018810D01*
X10689275Y-7019624D01*
X10692698Y-7030158D01*
X10695844Y-7039841D01*
X10705495Y-7058782D01*
X10717989Y-7075979D01*
X10733021Y-7091011D01*
X10750218Y-7103505D01*
X10751095Y-7103952D01*
X10756174Y-7108749D01*
X10757854Y-7115531D01*
X10755600Y-7122145D01*
X10751095Y-7126048D01*
X10750218Y-7126495D01*
X10733021Y-7138989D01*
X10717989Y-7154021D01*
X10705495Y-7171218D01*
X10695844Y-7190158D01*
X10689275Y-7210376D01*
X10685950Y-7231371D01*
X10685950Y-7252629D01*
X10689275Y-7273624D01*
X10695844Y-7293841D01*
X10705495Y-7312782D01*
X10717989Y-7329979D01*
X10733021Y-7345011D01*
X10750218Y-7357505D01*
X10751095Y-7357952D01*
X10756174Y-7362749D01*
X10757854Y-7369531D01*
X10755600Y-7376145D01*
X10751095Y-7380048D01*
X10750218Y-7380495D01*
X10733021Y-7392989D01*
X10717989Y-7408021D01*
X10705495Y-7425218D01*
X10695844Y-7444158D01*
X10689275Y-7464376D01*
X10685950Y-7485371D01*
X10685950Y-7506629D01*
X10689275Y-7527624D01*
X10695844Y-7547841D01*
X10705495Y-7566782D01*
X10717989Y-7583979D01*
X10733021Y-7599011D01*
X10750218Y-7611505D01*
X10751095Y-7611952D01*
X10756174Y-7616749D01*
X10757854Y-7623531D01*
X10755600Y-7630145D01*
X10751095Y-7634048D01*
X10750218Y-7634495D01*
X10733021Y-7646989D01*
X10717989Y-7662021D01*
X10705495Y-7679218D01*
X10695844Y-7698158D01*
X10689275Y-7718376D01*
X10687021Y-7732608D01*
X10685950Y-7739371D01*
X10685950Y-7760629D01*
X10689275Y-7781624D01*
X10691295Y-7787841D01*
X10695844Y-7801841D01*
X10705495Y-7820782D01*
X10717989Y-7837979D01*
X10733021Y-7853011D01*
X10750218Y-7865505D01*
X10751095Y-7865952D01*
X10756174Y-7870749D01*
X10757854Y-7877531D01*
X10755600Y-7884145D01*
X10751095Y-7888048D01*
X10750218Y-7888495D01*
X10733021Y-7900989D01*
X10717989Y-7916021D01*
X10705495Y-7933218D01*
X10695844Y-7952158D01*
X10689275Y-7972376D01*
X10685950Y-7993371D01*
X10685950Y-8014629D01*
X10689275Y-8035624D01*
X10695844Y-8055841D01*
X10705495Y-8074782D01*
X10717989Y-8091979D01*
X10733021Y-8107011D01*
X10750218Y-8119505D01*
X10751095Y-8119952D01*
X10756174Y-8124749D01*
X10757854Y-8131531D01*
X10755600Y-8138145D01*
X10751095Y-8142048D01*
X10750218Y-8142495D01*
X10733021Y-8154989D01*
X10717989Y-8170021D01*
X10705495Y-8187218D01*
X10695844Y-8206158D01*
X10689275Y-8226376D01*
X10685950Y-8247371D01*
X10685950Y-8268629D01*
X10689275Y-8289624D01*
X10695844Y-8309841D01*
X10705495Y-8328782D01*
X10717989Y-8345979D01*
X10733021Y-8361011D01*
X10750218Y-8373505D01*
X10751095Y-8373952D01*
X10756174Y-8378749D01*
X10757854Y-8385531D01*
X10755600Y-8392145D01*
X10751095Y-8396048D01*
X10750218Y-8396495D01*
X10733021Y-8408989D01*
X10717989Y-8424021D01*
X10705495Y-8441218D01*
X10695844Y-8460159D01*
X10689275Y-8480376D01*
X10685950Y-8501371D01*
X10685950Y-8522629D01*
X10686265Y-8524617D01*
X10688469Y-8538535D01*
X10689275Y-8543624D01*
X10694281Y-8559029D01*
X10695844Y-8563841D01*
X10705495Y-8582782D01*
X10717989Y-8599979D01*
X10733021Y-8615011D01*
X10750218Y-8627505D01*
X10751095Y-8627952D01*
X10756174Y-8632749D01*
X10757854Y-8639531D01*
X10755600Y-8646145D01*
X10751095Y-8650048D01*
X10750218Y-8650495D01*
X10733021Y-8662989D01*
X10717989Y-8678021D01*
X10705495Y-8695218D01*
X10695844Y-8714159D01*
X10689275Y-8734376D01*
X10688401Y-8739896D01*
X10685950Y-8755371D01*
X10685950Y-8776629D01*
X10689275Y-8797624D01*
X10693063Y-8809283D01*
X10695844Y-8817841D01*
X10705495Y-8836782D01*
X10717989Y-8853979D01*
X10733021Y-8869011D01*
X10750218Y-8881505D01*
X10750218Y-8881505D01*
X10750218Y-8881505D01*
X10769159Y-8891156D01*
X10789376Y-8897725D01*
X10810371Y-8901050D01*
X10810371Y-8901050D01*
X10881629Y-8901050D01*
X10881629Y-8901050D01*
X10902624Y-8897725D01*
X10922841Y-8891156D01*
X10941782Y-8881505D01*
X10953613Y-8872909D01*
X10960193Y-8870561D01*
X10966999Y-8872144D01*
X10970828Y-8875510D01*
X10979245Y-8886755D01*
X10983864Y-8890212D01*
X10990766Y-8895379D01*
X10990767Y-8895380D01*
X11004252Y-8900409D01*
X11004252Y-8900409D01*
X11004944Y-8900484D01*
X11010213Y-8901050D01*
X11189787Y-8901050D01*
X11195748Y-8900409D01*
X11209233Y-8895380D01*
X11220755Y-8886755D01*
X11229380Y-8875233D01*
X11234409Y-8861748D01*
X11234889Y-8857287D01*
X11237562Y-8850832D01*
X11243301Y-8846847D01*
X11250284Y-8846598D01*
X11256293Y-8850163D01*
X11257249Y-8851324D01*
X11264181Y-8860865D01*
X11264617Y-8861465D01*
X11278535Y-8875383D01*
X11278536Y-8875383D01*
X11285151Y-8880190D01*
X11286110Y-8881349D01*
X11287141Y-8881995D01*
X11288681Y-8884456D01*
X11289083Y-8884942D01*
X11289208Y-8885208D01*
X11293492Y-8895550D01*
X11294945Y-8897725D01*
X11295460Y-8898495D01*
X11295460Y-8898495D01*
X11301705Y-8907842D01*
X11301705Y-8907842D01*
X11543095Y-9149232D01*
X11621705Y-9227842D01*
X11621705Y-9227842D01*
X11632158Y-9238295D01*
X11632158Y-9238295D01*
X11644450Y-9246508D01*
X11644451Y-9246509D01*
X11648058Y-9248003D01*
X11658109Y-9252166D01*
X11658109Y-9252166D01*
X11658109Y-9252166D01*
X11672608Y-9255050D01*
X11672608Y-9255050D01*
X12227392Y-9255050D01*
X12229754Y-9254580D01*
X12236420Y-9253254D01*
X12243380Y-9253877D01*
X12248897Y-9258163D01*
X12251222Y-9264752D01*
X12251202Y-9266387D01*
X12251200Y-9266407D01*
X12251200Y-9286092D01*
X12254279Y-9305533D01*
X12260362Y-9324253D01*
X12269298Y-9341791D01*
X12280867Y-9357715D01*
X12294785Y-9371633D01*
X12299838Y-9375304D01*
X12304105Y-9380837D01*
X12304950Y-9385336D01*
X12304950Y-9512550D01*
X12302981Y-9519254D01*
X12297701Y-9523829D01*
X12292550Y-9524950D01*
X11616223Y-9524950D01*
X11609519Y-9522982D01*
X11607455Y-9521318D01*
X11308277Y-9222140D01*
X11304929Y-9216008D01*
X11304798Y-9211433D01*
X11305050Y-9209842D01*
X11305050Y-9190158D01*
X11305050Y-9190158D01*
X11301971Y-9170717D01*
X11295888Y-9151997D01*
X11286952Y-9134459D01*
X11275383Y-9118535D01*
X11261465Y-9104617D01*
X11245540Y-9093048D01*
X11228003Y-9084112D01*
X11209283Y-9078029D01*
X11189842Y-9074950D01*
X11189842Y-9074950D01*
X11170158Y-9074950D01*
X11170158Y-9074950D01*
X11150717Y-9078029D01*
X11131997Y-9084112D01*
X11114459Y-9093048D01*
X11105374Y-9099649D01*
X11098535Y-9104617D01*
X11098535Y-9104617D01*
X11098535Y-9104617D01*
X11084617Y-9118535D01*
X11084617Y-9118535D01*
X11084617Y-9118535D01*
X11079649Y-9125374D01*
X11073048Y-9134459D01*
X11064112Y-9151997D01*
X11058029Y-9170717D01*
X11054950Y-9190158D01*
X11054950Y-9209842D01*
X11058029Y-9229283D01*
X11064112Y-9248003D01*
X11069289Y-9258163D01*
X11073048Y-9265541D01*
X11084617Y-9281465D01*
X11098535Y-9295383D01*
X11114460Y-9306952D01*
X11122746Y-9311174D01*
X11131997Y-9315888D01*
X11131997Y-9315888D01*
X11131998Y-9315888D01*
X11142032Y-9319149D01*
X11150717Y-9321971D01*
X11170158Y-9325050D01*
X11170158Y-9325050D01*
X11189841Y-9325050D01*
X11189842Y-9325050D01*
X11191432Y-9324798D01*
X11198362Y-9325693D01*
X11202140Y-9328277D01*
X11532158Y-9658295D01*
X11532158Y-9658295D01*
X11544450Y-9666508D01*
X11544451Y-9666509D01*
X11558108Y-9672166D01*
X11558109Y-9672166D01*
X11558109Y-9672166D01*
X11558109Y-9672166D01*
X11572608Y-9675050D01*
X11572608Y-9675050D01*
X12627392Y-9675050D01*
X12637146Y-9673110D01*
X12641891Y-9672166D01*
X12655549Y-9666508D01*
X12660473Y-9663219D01*
X12667842Y-9658295D01*
X12867455Y-9458682D01*
X12873587Y-9455333D01*
X12876223Y-9455050D01*
X13272608Y-9455050D01*
X13433639Y-9455050D01*
X13440342Y-9457019D01*
X13443670Y-9460161D01*
X13444617Y-9461465D01*
X13458535Y-9475383D01*
X13474459Y-9486952D01*
X13482745Y-9491174D01*
X13491997Y-9495888D01*
X13491997Y-9495888D01*
X13491997Y-9495888D01*
X13502032Y-9499149D01*
X13510717Y-9501971D01*
X13530158Y-9505050D01*
X13530158Y-9505050D01*
X13549842Y-9505050D01*
X13569283Y-9501971D01*
X13588002Y-9495888D01*
X13605540Y-9486952D01*
X13621465Y-9475383D01*
X13635383Y-9461465D01*
X13636330Y-9460161D01*
X13641863Y-9455895D01*
X13646361Y-9455050D01*
X13687392Y-9455050D01*
X13697146Y-9453110D01*
X13701891Y-9452166D01*
X13715549Y-9446508D01*
X13720473Y-9443219D01*
X13727842Y-9438295D01*
X15258295Y-7907842D01*
X15266508Y-7895549D01*
X15272166Y-7881891D01*
X15273139Y-7877000D01*
X15275050Y-7867392D01*
X15275050Y-7112608D01*
X15272166Y-7098109D01*
X15272166Y-7098109D01*
X15272166Y-7098109D01*
X15269226Y-7091010D01*
X15266508Y-7084451D01*
X15265991Y-7083676D01*
X15260561Y-7075549D01*
X15258295Y-7072158D01*
X15248057Y-7061920D01*
X15247848Y-7061689D01*
X15246460Y-7058812D01*
X15244929Y-7056008D01*
X15244917Y-7055616D01*
X15244812Y-7055397D01*
X15244892Y-7054737D01*
X15244798Y-7051433D01*
X15245050Y-7049842D01*
X15245050Y-7030158D01*
X15245050Y-7030158D01*
X15241971Y-7010717D01*
X15235888Y-6991997D01*
X15226952Y-6974459D01*
X15215383Y-6958535D01*
X15201465Y-6944617D01*
X15185540Y-6933048D01*
X15168003Y-6924112D01*
X15149283Y-6918029D01*
X15129842Y-6914950D01*
X15129842Y-6914950D01*
X15110158Y-6914950D01*
X15110158Y-6914950D01*
X15090717Y-6918029D01*
X15071997Y-6924112D01*
X15054459Y-6933048D01*
X15045374Y-6939648D01*
X15038535Y-6944617D01*
X15038535Y-6944617D01*
X15038535Y-6944617D01*
X15024617Y-6958535D01*
X15024617Y-6958535D01*
X15024617Y-6958535D01*
X15023160Y-6960540D01*
X15013048Y-6974459D01*
X15004112Y-6991997D01*
X14998029Y-7010717D01*
X14994950Y-7030158D01*
X14994950Y-7049842D01*
X14998029Y-7069283D01*
X15004112Y-7088003D01*
X15009478Y-7098535D01*
X15013048Y-7105540D01*
X15024617Y-7121465D01*
X15038535Y-7135383D01*
X15054459Y-7146952D01*
X15061849Y-7150717D01*
X15071997Y-7155888D01*
X15071997Y-7155888D01*
X15071997Y-7155888D01*
X15082032Y-7159149D01*
X15090717Y-7161971D01*
X15110158Y-7165050D01*
X15110158Y-7165050D01*
X15112550Y-7165050D01*
X15119254Y-7167018D01*
X15123829Y-7172299D01*
X15124950Y-7177450D01*
X15124950Y-7823777D01*
X15122981Y-7830481D01*
X15121318Y-7832545D01*
X13654042Y-9299821D01*
X13647910Y-9303170D01*
X13640940Y-9302671D01*
X13635798Y-9298822D01*
X13635699Y-9298906D01*
X13635382Y-9298535D01*
X13621465Y-9284617D01*
X13621465Y-9284617D01*
X13605540Y-9273048D01*
X13588003Y-9264112D01*
X13569283Y-9258029D01*
X13549842Y-9254950D01*
X13549842Y-9254950D01*
X13530158Y-9254950D01*
X13530158Y-9254950D01*
X13510717Y-9258029D01*
X13491997Y-9264112D01*
X13474459Y-9273048D01*
X13465374Y-9279649D01*
X13458535Y-9284617D01*
X13458535Y-9284617D01*
X13458535Y-9284617D01*
X13444617Y-9298535D01*
X13443670Y-9299839D01*
X13438137Y-9304105D01*
X13433639Y-9304950D01*
X12832608Y-9304950D01*
X12818109Y-9307834D01*
X12818109Y-9307834D01*
X12804451Y-9313491D01*
X12804450Y-9313492D01*
X12799527Y-9316781D01*
X12792159Y-9321704D01*
X12792158Y-9321705D01*
X12592545Y-9521318D01*
X12586413Y-9524667D01*
X12583777Y-9524950D01*
X12467450Y-9524950D01*
X12460746Y-9522982D01*
X12456171Y-9517701D01*
X12455050Y-9512550D01*
X12455050Y-9379434D01*
X12457018Y-9372730D01*
X12458682Y-9370666D01*
X12471633Y-9357715D01*
X12483202Y-9341791D01*
X12492138Y-9324253D01*
X12498221Y-9305533D01*
X12498447Y-9304105D01*
X12501300Y-9286092D01*
X12501300Y-9266408D01*
X12498221Y-9246967D01*
X12492138Y-9228247D01*
X12487424Y-9218996D01*
X12483202Y-9210710D01*
X12471633Y-9194785D01*
X12457715Y-9180867D01*
X12441790Y-9169298D01*
X12424253Y-9160362D01*
X12405533Y-9154279D01*
X12386092Y-9151200D01*
X12386092Y-9151200D01*
X12384873Y-9151200D01*
X12378169Y-9149232D01*
X12373593Y-9143951D01*
X12372599Y-9137035D01*
X12375502Y-9130680D01*
X12376105Y-9130032D01*
X12440596Y-9065541D01*
X12558295Y-8947842D01*
X12563219Y-8940473D01*
X12566508Y-8935550D01*
X12572166Y-8921891D01*
X12574870Y-8908299D01*
X12575050Y-8907392D01*
X12575050Y-8739896D01*
X12577018Y-8733192D01*
X12581820Y-8728848D01*
X12585540Y-8726952D01*
X12601465Y-8715383D01*
X12615383Y-8701465D01*
X12626952Y-8685541D01*
X12635888Y-8668003D01*
X12641971Y-8649283D01*
X12642610Y-8645245D01*
X12645050Y-8629842D01*
X12645050Y-8610158D01*
X12641971Y-8590717D01*
X12635888Y-8571997D01*
X12626952Y-8554459D01*
X12615383Y-8538535D01*
X12601465Y-8524617D01*
X12585540Y-8513048D01*
X12568003Y-8504112D01*
X12549283Y-8498029D01*
X12529842Y-8494950D01*
X12529842Y-8494950D01*
X12510158Y-8494950D01*
X12510158Y-8494950D01*
X12490717Y-8498029D01*
X12471997Y-8504112D01*
X12454459Y-8513048D01*
X12445374Y-8519649D01*
X12438535Y-8524617D01*
X12438535Y-8524617D01*
X12438535Y-8524617D01*
X12424617Y-8538535D01*
X12424617Y-8538535D01*
X12424617Y-8538535D01*
X12420920Y-8543624D01*
X12413048Y-8554459D01*
X12404112Y-8571997D01*
X12398029Y-8590717D01*
X12394950Y-8610158D01*
X12394950Y-8629842D01*
X12398029Y-8649283D01*
X12404112Y-8668003D01*
X12409216Y-8678021D01*
X12413048Y-8685541D01*
X12422582Y-8698663D01*
X12424930Y-8705244D01*
X12424950Y-8705952D01*
X12424950Y-8863777D01*
X12422981Y-8870481D01*
X12421318Y-8872545D01*
X12192545Y-9101318D01*
X12186413Y-9104667D01*
X12183777Y-9104950D01*
X11716223Y-9104950D01*
X11709519Y-9102982D01*
X11707455Y-9101318D01*
X11468013Y-8861876D01*
X11464665Y-8855744D01*
X11465163Y-8848775D01*
X11466750Y-8845819D01*
X11466952Y-8845541D01*
X11475888Y-8828003D01*
X11481971Y-8809283D01*
X11483817Y-8797624D01*
X11485050Y-8789842D01*
X11485050Y-8770158D01*
X11481971Y-8750717D01*
X11476277Y-8733192D01*
X11475888Y-8731998D01*
X11475888Y-8731997D01*
X11475888Y-8731997D01*
X11467423Y-8715383D01*
X11466952Y-8714460D01*
X11455383Y-8698535D01*
X11441465Y-8684617D01*
X11425540Y-8673048D01*
X11408003Y-8664112D01*
X11389283Y-8658029D01*
X11369842Y-8654950D01*
X11369842Y-8654950D01*
X11350158Y-8654950D01*
X11350158Y-8654950D01*
X11330717Y-8658029D01*
X11311997Y-8664112D01*
X11294459Y-8673048D01*
X11287614Y-8678021D01*
X11278535Y-8684617D01*
X11278535Y-8684617D01*
X11278535Y-8684617D01*
X11264617Y-8698535D01*
X11257482Y-8708357D01*
X11251949Y-8712623D01*
X11244987Y-8713221D01*
X11238808Y-8709960D01*
X11235372Y-8703876D01*
X11235050Y-8701068D01*
X11235050Y-8676213D01*
X11235050Y-8676212D01*
X11234710Y-8673048D01*
X11234409Y-8670252D01*
X11232119Y-8664112D01*
X11229380Y-8656767D01*
X11229379Y-8656766D01*
X11220755Y-8645246D01*
X11220754Y-8645245D01*
X11209888Y-8637111D01*
X11205701Y-8631517D01*
X11205203Y-8624548D01*
X11208551Y-8618416D01*
X11210030Y-8617153D01*
X11212979Y-8615010D01*
X11228010Y-8599979D01*
X11228011Y-8599979D01*
X11228011Y-8599979D01*
X11240505Y-8582782D01*
X11240505Y-8582782D01*
X11240505Y-8582782D01*
X11250156Y-8563841D01*
X11251719Y-8559029D01*
X11255663Y-8553262D01*
X11262099Y-8550542D01*
X11268983Y-8551733D01*
X11273544Y-8555572D01*
X11280683Y-8565399D01*
X11294601Y-8579317D01*
X11310526Y-8590886D01*
X11318812Y-8595108D01*
X11328063Y-8599822D01*
X11328063Y-8599822D01*
X11328064Y-8599822D01*
X11331656Y-8600990D01*
X11346783Y-8605905D01*
X11366224Y-8608984D01*
X11366224Y-8608984D01*
X11385908Y-8608984D01*
X11405349Y-8605905D01*
X11424069Y-8599822D01*
X11441607Y-8590886D01*
X11457531Y-8579317D01*
X11471449Y-8565399D01*
X11483018Y-8549474D01*
X11491954Y-8531936D01*
X11498037Y-8513217D01*
X11498064Y-8513048D01*
X11501116Y-8493776D01*
X11501116Y-8474092D01*
X11498037Y-8454651D01*
X11495215Y-8445966D01*
X11491954Y-8435931D01*
X11491954Y-8435931D01*
X11491954Y-8435931D01*
X11485886Y-8424021D01*
X11483018Y-8418393D01*
X11471449Y-8402469D01*
X11471448Y-8402469D01*
X11471290Y-8402251D01*
X11468942Y-8395670D01*
X11470525Y-8388865D01*
X11475535Y-8383995D01*
X11479382Y-8382715D01*
X11481920Y-8382313D01*
X11484080Y-8381971D01*
X11502800Y-8375888D01*
X11520338Y-8366952D01*
X11536262Y-8355383D01*
X11550180Y-8341465D01*
X11551127Y-8340161D01*
X11556660Y-8335895D01*
X11561159Y-8335050D01*
X14347392Y-8335050D01*
X14357146Y-8333110D01*
X14361891Y-8332166D01*
X14375549Y-8326508D01*
X14382629Y-8321778D01*
X14387842Y-8318295D01*
X14918295Y-7787841D01*
X14921020Y-7783763D01*
X14926508Y-7775549D01*
X14928852Y-7769892D01*
X14932166Y-7761891D01*
X14935050Y-7747392D01*
X14935050Y-7732608D01*
X14935050Y-6941361D01*
X14937018Y-6934657D01*
X14940161Y-6931330D01*
X14941465Y-6930383D01*
X14955383Y-6916465D01*
X14966952Y-6900540D01*
X14975888Y-6883002D01*
X14981971Y-6864283D01*
X14982783Y-6859156D01*
X14985050Y-6844842D01*
X14985050Y-6825158D01*
X14981971Y-6805717D01*
X14975888Y-6786997D01*
X14966952Y-6769459D01*
X14964166Y-6765624D01*
X14955383Y-6753535D01*
X14941465Y-6739617D01*
X14925540Y-6728048D01*
X14908003Y-6719112D01*
X14889283Y-6713029D01*
X14869842Y-6709950D01*
X14869842Y-6709950D01*
X14850158Y-6709950D01*
X14850158Y-6709950D01*
X14830717Y-6713029D01*
X14811997Y-6719112D01*
X14794459Y-6728048D01*
X14785374Y-6734648D01*
X14778535Y-6739617D01*
X14778535Y-6739617D01*
X14778535Y-6739617D01*
X14764617Y-6753535D01*
X14764617Y-6753535D01*
X14764617Y-6753535D01*
X14759648Y-6760374D01*
X14753048Y-6769459D01*
X14744112Y-6786997D01*
X14738029Y-6805717D01*
X14734950Y-6825158D01*
X14734950Y-6844842D01*
X14738029Y-6864283D01*
X14744112Y-6883003D01*
X14752268Y-6899010D01*
X14753048Y-6900540D01*
X14764617Y-6916465D01*
X14778535Y-6930383D01*
X14779838Y-6931329D01*
X14784105Y-6936862D01*
X14784950Y-6941361D01*
X14784950Y-7703777D01*
X14782981Y-7710481D01*
X14781318Y-7712545D01*
X14312545Y-8181318D01*
X14306413Y-8184667D01*
X14303777Y-8184950D01*
X12828827Y-8184950D01*
X12822123Y-8182981D01*
X12817548Y-8177701D01*
X12816553Y-8170785D01*
X12819456Y-8164430D01*
X12821936Y-8162241D01*
X12822603Y-8161795D01*
X12822604Y-8161795D01*
X12822604Y-8161795D01*
X12825211Y-8160053D01*
X12827842Y-8158295D01*
X13677860Y-7308277D01*
X13683992Y-7304929D01*
X13688567Y-7304798D01*
X13690158Y-7305050D01*
X13690158Y-7305050D01*
X13709842Y-7305050D01*
X13729283Y-7301971D01*
X13748002Y-7295888D01*
X13765540Y-7286952D01*
X13781465Y-7275383D01*
X13795383Y-7261465D01*
X13796330Y-7260161D01*
X13801863Y-7255895D01*
X13806361Y-7255050D01*
X14302392Y-7255050D01*
X14314565Y-7252629D01*
X14316891Y-7252166D01*
X14330549Y-7246508D01*
X14335473Y-7243219D01*
X14342842Y-7238295D01*
X14557860Y-7023277D01*
X14563992Y-7019929D01*
X14568567Y-7019798D01*
X14570158Y-7020050D01*
X14570158Y-7020050D01*
X14589842Y-7020050D01*
X14609283Y-7016971D01*
X14628002Y-7010888D01*
X14645540Y-7001952D01*
X14661465Y-6990383D01*
X14675383Y-6976465D01*
X14686952Y-6960540D01*
X14695888Y-6943002D01*
X14701971Y-6924283D01*
X14701998Y-6924112D01*
X14705050Y-6904842D01*
X14705050Y-6885158D01*
X14701971Y-6865717D01*
X14698117Y-6853856D01*
X14695888Y-6846997D01*
X14695888Y-6846997D01*
X14695888Y-6846997D01*
X14690800Y-6837010D01*
X14686952Y-6829459D01*
X14675383Y-6813535D01*
X14661465Y-6799617D01*
X14645540Y-6788048D01*
X14628003Y-6779112D01*
X14609283Y-6773029D01*
X14589842Y-6769950D01*
X14589842Y-6769950D01*
X14570158Y-6769950D01*
X14570158Y-6769950D01*
X14550717Y-6773029D01*
X14531997Y-6779112D01*
X14514459Y-6788048D01*
X14505374Y-6794648D01*
X14498535Y-6799617D01*
X14498535Y-6799617D01*
X14498535Y-6799617D01*
X14484617Y-6813535D01*
X14484617Y-6813535D01*
X14484617Y-6813535D01*
X14479648Y-6820374D01*
X14473048Y-6829459D01*
X14464112Y-6846997D01*
X14458029Y-6865717D01*
X14454950Y-6885158D01*
X14454950Y-6904842D01*
X14455202Y-6906432D01*
X14454306Y-6913362D01*
X14451723Y-6917140D01*
X14267545Y-7101318D01*
X14261413Y-7104667D01*
X14258777Y-7104950D01*
X13806361Y-7104950D01*
X13799657Y-7102981D01*
X13796330Y-7099839D01*
X13795383Y-7098535D01*
X13781465Y-7084617D01*
X13781465Y-7084617D01*
X13765540Y-7073048D01*
X13748003Y-7064112D01*
X13729283Y-7058029D01*
X13709842Y-7054950D01*
X13709842Y-7054950D01*
X13690158Y-7054950D01*
X13690158Y-7054950D01*
X13670717Y-7058029D01*
X13651997Y-7064112D01*
X13634459Y-7073048D01*
X13630425Y-7075979D01*
X13618535Y-7084617D01*
X13618535Y-7084617D01*
X13618535Y-7084617D01*
X13604617Y-7098535D01*
X13604617Y-7098535D01*
X13604617Y-7098535D01*
X13601387Y-7102981D01*
X13593048Y-7114459D01*
X13584112Y-7131997D01*
X13578029Y-7150717D01*
X13574950Y-7170158D01*
X13574950Y-7189842D01*
X13575202Y-7191433D01*
X13574306Y-7198362D01*
X13571723Y-7202140D01*
X12752545Y-8021318D01*
X12746413Y-8024667D01*
X12743777Y-8024950D01*
X12067450Y-8024950D01*
X12060746Y-8022981D01*
X12056171Y-8017701D01*
X12055050Y-8012550D01*
X12055050Y-6546361D01*
X12057018Y-6539657D01*
X12060161Y-6536330D01*
X12061465Y-6535383D01*
X12075383Y-6521465D01*
X12086952Y-6505540D01*
X12095888Y-6488002D01*
X12101971Y-6469283D01*
X12104709Y-6451997D01*
X12105050Y-6449842D01*
X12105050Y-6430158D01*
X12101971Y-6410717D01*
X12098474Y-6399957D01*
X12095888Y-6391997D01*
X12095888Y-6391997D01*
X12095888Y-6391997D01*
X12086952Y-6374459D01*
X12075383Y-6358535D01*
X12061465Y-6344617D01*
X12045540Y-6333048D01*
X12028003Y-6324112D01*
X12009283Y-6318029D01*
X12005510Y-6317432D01*
X11999197Y-6314439D01*
X11995504Y-6308507D01*
X11995050Y-6305184D01*
X11995050Y-5438079D01*
X11997018Y-5431375D01*
X12002299Y-5426799D01*
X12009215Y-5425805D01*
X12015570Y-5428707D01*
X12019348Y-5434585D01*
X12019697Y-5436139D01*
X12021779Y-5449283D01*
X12027862Y-5468003D01*
X12031718Y-5475571D01*
X12036798Y-5485541D01*
X12048367Y-5501465D01*
X12062285Y-5515383D01*
X12078209Y-5526952D01*
X12081546Y-5528652D01*
X12095747Y-5535888D01*
X12095747Y-5535888D01*
X12095747Y-5535888D01*
X12105782Y-5539149D01*
X12114467Y-5541971D01*
X12133908Y-5545050D01*
X12133908Y-5545050D01*
X12153592Y-5545050D01*
X12173033Y-5541971D01*
X12191752Y-5535888D01*
X12209290Y-5526952D01*
X12225215Y-5515383D01*
X12239133Y-5501465D01*
X12240080Y-5500161D01*
X12245613Y-5495895D01*
X12250111Y-5495050D01*
X12343777Y-5495050D01*
X12350481Y-5497019D01*
X12352545Y-5498682D01*
X12545056Y-5691193D01*
X12547336Y-5694331D01*
X12553048Y-5705540D01*
X12564617Y-5721465D01*
X12578535Y-5735383D01*
X12594459Y-5746952D01*
X12597891Y-5748701D01*
X12611997Y-5755888D01*
X12611997Y-5755888D01*
X12611997Y-5755888D01*
X12618527Y-5758010D01*
X12630717Y-5761971D01*
X12650158Y-5765050D01*
X12650158Y-5765050D01*
X12669842Y-5765050D01*
X12689283Y-5761971D01*
X12708002Y-5755888D01*
X12725540Y-5746952D01*
X12741465Y-5735383D01*
X12755383Y-5721465D01*
X12756330Y-5720161D01*
X12761863Y-5715895D01*
X12766361Y-5715050D01*
X15352550Y-5715050D01*
X15359254Y-5717018D01*
X15363829Y-5722299D01*
X15364950Y-5727450D01*
X15364950Y-6393638D01*
X15362981Y-6400342D01*
X15359839Y-6403670D01*
X15358536Y-6404617D01*
X15344617Y-6418535D01*
X15333048Y-6434459D01*
X15324112Y-6451997D01*
X15318029Y-6470717D01*
X15314950Y-6490158D01*
X15314950Y-6509842D01*
X15318029Y-6529283D01*
X15324112Y-6548003D01*
X15333048Y-6565540D01*
X15344617Y-6581465D01*
X15358535Y-6595383D01*
X15374459Y-6606952D01*
X15375595Y-6607531D01*
X15391997Y-6615888D01*
X15391997Y-6615888D01*
X15391997Y-6615888D01*
X15400020Y-6618495D01*
X15410717Y-6621971D01*
X15430158Y-6625050D01*
X15430158Y-6625050D01*
X15449842Y-6625050D01*
X15469283Y-6621971D01*
X15488002Y-6615888D01*
X15505540Y-6606952D01*
X15521465Y-6595383D01*
X15535383Y-6581465D01*
X15546952Y-6565540D01*
X15555888Y-6548002D01*
X15561971Y-6529283D01*
X15563209Y-6521465D01*
X15565050Y-6509842D01*
X15565050Y-6490158D01*
X15561988Y-6470824D01*
X15561981Y-6470783D01*
X15561971Y-6470717D01*
X15555888Y-6451997D01*
X15555888Y-6451997D01*
X15555888Y-6451997D01*
X15546952Y-6434459D01*
X15535383Y-6418535D01*
X15521465Y-6404617D01*
X15521464Y-6404617D01*
X15521464Y-6404617D01*
X15520161Y-6403670D01*
X15515895Y-6398137D01*
X15515050Y-6393638D01*
X15515050Y-5961371D01*
X15765950Y-5961371D01*
X15765950Y-5982629D01*
X15769275Y-6003624D01*
X15775844Y-6023841D01*
X15785495Y-6042782D01*
X15797989Y-6059979D01*
X15813021Y-6075011D01*
X15830218Y-6087505D01*
X15830218Y-6087505D01*
X15830218Y-6087505D01*
X15831149Y-6087979D01*
X15836229Y-6092777D01*
X15837909Y-6099559D01*
X15835655Y-6106172D01*
X15831150Y-6110076D01*
X15830244Y-6110538D01*
X15813054Y-6123027D01*
X15813053Y-6123028D01*
X15798028Y-6138053D01*
X15798027Y-6138054D01*
X15785538Y-6155244D01*
X15775890Y-6174178D01*
X15769324Y-6194387D01*
X15769324Y-6194387D01*
X15768277Y-6201000D01*
X15882699Y-6201000D01*
X15879407Y-6206701D01*
X15876000Y-6219417D01*
X15876000Y-6232583D01*
X15879407Y-6245299D01*
X15882699Y-6251000D01*
X15768277Y-6251000D01*
X15769324Y-6257613D01*
X15769324Y-6257613D01*
X15775890Y-6277822D01*
X15785538Y-6296756D01*
X15798027Y-6313946D01*
X15798028Y-6313946D01*
X15813053Y-6328972D01*
X15813054Y-6328973D01*
X15830244Y-6341462D01*
X15831149Y-6341923D01*
X15836229Y-6346721D01*
X15837909Y-6353503D01*
X15835655Y-6360116D01*
X15831150Y-6364020D01*
X15830218Y-6364495D01*
X15813021Y-6376989D01*
X15797989Y-6392021D01*
X15785495Y-6409218D01*
X15775844Y-6428158D01*
X15769275Y-6448376D01*
X15765950Y-6469371D01*
X15765950Y-6490629D01*
X15768993Y-6509842D01*
X15769275Y-6511624D01*
X15772473Y-6521465D01*
X15775844Y-6531841D01*
X15785495Y-6550782D01*
X15797989Y-6567979D01*
X15813021Y-6583011D01*
X15830218Y-6595505D01*
X15831095Y-6595952D01*
X15836174Y-6600749D01*
X15837854Y-6607531D01*
X15835600Y-6614145D01*
X15831095Y-6618048D01*
X15830218Y-6618495D01*
X15813021Y-6630989D01*
X15797989Y-6646021D01*
X15785495Y-6663218D01*
X15775844Y-6682158D01*
X15769275Y-6702376D01*
X15765950Y-6723371D01*
X15765950Y-6744629D01*
X15769275Y-6765624D01*
X15773658Y-6779112D01*
X15775844Y-6785841D01*
X15785495Y-6804782D01*
X15797989Y-6821979D01*
X15813021Y-6837011D01*
X15830218Y-6849505D01*
X15831095Y-6849952D01*
X15836174Y-6854749D01*
X15837854Y-6861531D01*
X15835600Y-6868145D01*
X15831095Y-6872048D01*
X15830218Y-6872495D01*
X15813021Y-6884989D01*
X15797989Y-6900021D01*
X15785495Y-6917218D01*
X15775844Y-6936158D01*
X15769275Y-6956376D01*
X15765950Y-6977371D01*
X15765950Y-6998629D01*
X15769146Y-7018810D01*
X15769275Y-7019624D01*
X15772698Y-7030158D01*
X15775844Y-7039841D01*
X15785495Y-7058782D01*
X15797989Y-7075979D01*
X15813021Y-7091011D01*
X15830218Y-7103505D01*
X15831095Y-7103952D01*
X15836174Y-7108749D01*
X15837854Y-7115531D01*
X15835600Y-7122145D01*
X15831095Y-7126048D01*
X15830218Y-7126495D01*
X15813021Y-7138989D01*
X15797989Y-7154021D01*
X15785495Y-7171218D01*
X15775844Y-7190158D01*
X15769275Y-7210376D01*
X15765950Y-7231371D01*
X15765950Y-7252629D01*
X15769275Y-7273624D01*
X15775844Y-7293841D01*
X15785495Y-7312782D01*
X15797989Y-7329979D01*
X15813021Y-7345011D01*
X15830218Y-7357505D01*
X15830218Y-7357505D01*
X15830218Y-7357505D01*
X15831149Y-7357979D01*
X15836229Y-7362777D01*
X15837909Y-7369559D01*
X15835655Y-7376172D01*
X15831150Y-7380076D01*
X15830244Y-7380538D01*
X15813054Y-7393027D01*
X15813053Y-7393028D01*
X15798028Y-7408053D01*
X15798027Y-7408054D01*
X15785538Y-7425244D01*
X15775890Y-7444178D01*
X15769324Y-7464387D01*
X15769324Y-7464387D01*
X15768277Y-7471000D01*
X15882699Y-7471000D01*
X15879407Y-7476701D01*
X15876000Y-7489417D01*
X15876000Y-7502583D01*
X15879407Y-7515299D01*
X15882699Y-7521000D01*
X15768277Y-7521000D01*
X15769324Y-7527613D01*
X15769324Y-7527613D01*
X15775890Y-7547822D01*
X15785538Y-7566756D01*
X15798027Y-7583946D01*
X15798028Y-7583946D01*
X15813053Y-7598972D01*
X15813054Y-7598973D01*
X15830244Y-7611462D01*
X15831149Y-7611923D01*
X15836229Y-7616721D01*
X15837909Y-7623503D01*
X15835655Y-7630116D01*
X15831150Y-7634020D01*
X15830218Y-7634495D01*
X15813021Y-7646989D01*
X15797989Y-7662021D01*
X15785495Y-7679218D01*
X15775844Y-7698158D01*
X15769275Y-7718376D01*
X15767021Y-7732608D01*
X15765950Y-7739371D01*
X15765950Y-7760629D01*
X15769275Y-7781624D01*
X15771295Y-7787841D01*
X15775844Y-7801841D01*
X15785495Y-7820782D01*
X15797989Y-7837979D01*
X15813021Y-7853011D01*
X15830218Y-7865505D01*
X15831095Y-7865952D01*
X15836174Y-7870749D01*
X15837854Y-7877531D01*
X15835600Y-7884145D01*
X15831095Y-7888048D01*
X15830218Y-7888495D01*
X15813021Y-7900989D01*
X15797989Y-7916021D01*
X15785495Y-7933218D01*
X15775844Y-7952158D01*
X15769275Y-7972376D01*
X15765950Y-7993371D01*
X15765950Y-8014629D01*
X15769275Y-8035624D01*
X15775844Y-8055841D01*
X15785495Y-8074782D01*
X15797989Y-8091979D01*
X15813021Y-8107011D01*
X15830218Y-8119505D01*
X15831095Y-8119952D01*
X15836174Y-8124749D01*
X15837854Y-8131531D01*
X15835600Y-8138145D01*
X15831095Y-8142048D01*
X15830218Y-8142495D01*
X15813021Y-8154989D01*
X15797989Y-8170021D01*
X15785495Y-8187218D01*
X15775844Y-8206158D01*
X15769275Y-8226376D01*
X15765950Y-8247371D01*
X15765950Y-8268629D01*
X15769275Y-8289624D01*
X15775844Y-8309841D01*
X15785495Y-8328782D01*
X15797989Y-8345979D01*
X15813021Y-8361011D01*
X15830218Y-8373505D01*
X15831095Y-8373952D01*
X15836174Y-8378749D01*
X15837854Y-8385531D01*
X15835600Y-8392145D01*
X15831095Y-8396048D01*
X15830218Y-8396495D01*
X15813021Y-8408989D01*
X15797989Y-8424021D01*
X15785495Y-8441218D01*
X15775844Y-8460159D01*
X15769275Y-8480376D01*
X15765950Y-8501371D01*
X15765950Y-8522629D01*
X15766265Y-8524617D01*
X15768469Y-8538535D01*
X15769275Y-8543624D01*
X15774281Y-8559029D01*
X15775844Y-8563841D01*
X15785495Y-8582782D01*
X15797989Y-8599979D01*
X15813021Y-8615011D01*
X15830218Y-8627505D01*
X15831095Y-8627952D01*
X15836174Y-8632749D01*
X15837854Y-8639531D01*
X15835600Y-8646145D01*
X15831095Y-8650048D01*
X15830218Y-8650495D01*
X15813021Y-8662989D01*
X15797989Y-8678021D01*
X15785495Y-8695218D01*
X15775844Y-8714159D01*
X15769275Y-8734376D01*
X15768401Y-8739896D01*
X15765950Y-8755371D01*
X15765950Y-8776629D01*
X15769275Y-8797624D01*
X15773063Y-8809283D01*
X15775844Y-8817841D01*
X15785495Y-8836782D01*
X15797989Y-8853979D01*
X15813021Y-8869011D01*
X15830218Y-8881505D01*
X15830218Y-8881505D01*
X15830218Y-8881505D01*
X15849159Y-8891156D01*
X15869376Y-8897725D01*
X15890371Y-8901050D01*
X15890371Y-8901050D01*
X15961629Y-8901050D01*
X15961629Y-8901050D01*
X15982624Y-8897725D01*
X16002841Y-8891156D01*
X16021782Y-8881505D01*
X16033613Y-8872909D01*
X16040193Y-8870561D01*
X16046999Y-8872144D01*
X16050828Y-8875510D01*
X16059245Y-8886755D01*
X16063864Y-8890212D01*
X16070766Y-8895379D01*
X16070767Y-8895380D01*
X16084252Y-8900409D01*
X16084252Y-8900409D01*
X16084944Y-8900484D01*
X16090213Y-8901050D01*
X16212985Y-8901050D01*
X16219689Y-8903018D01*
X16224264Y-8908299D01*
X16225258Y-8915215D01*
X16223016Y-8920738D01*
X16213048Y-8934459D01*
X16204112Y-8951997D01*
X16198029Y-8970717D01*
X16194950Y-8990158D01*
X16194950Y-9009842D01*
X16198029Y-9029283D01*
X16204112Y-9048003D01*
X16213048Y-9065541D01*
X16224617Y-9081465D01*
X16238535Y-9095383D01*
X16239838Y-9096330D01*
X16244105Y-9101862D01*
X16244950Y-9106361D01*
X16244950Y-10183777D01*
X16242981Y-10190481D01*
X16241318Y-10192545D01*
X16042140Y-10391723D01*
X16036008Y-10395071D01*
X16031433Y-10395202D01*
X16029842Y-10394950D01*
X16029842Y-10394950D01*
X16010158Y-10394950D01*
X16010158Y-10394950D01*
X15990717Y-10398029D01*
X15971997Y-10404112D01*
X15954459Y-10413048D01*
X15945374Y-10419649D01*
X15938535Y-10424617D01*
X15938535Y-10424617D01*
X15938535Y-10424617D01*
X15924617Y-10438535D01*
X15924617Y-10438535D01*
X15924617Y-10438535D01*
X15919648Y-10445374D01*
X15913048Y-10454459D01*
X15904112Y-10471997D01*
X15898029Y-10490717D01*
X15894950Y-10510158D01*
X15894950Y-10529842D01*
X15898029Y-10549283D01*
X15904112Y-10568003D01*
X15913048Y-10585541D01*
X15924617Y-10601465D01*
X15938535Y-10615383D01*
X15954459Y-10626952D01*
X15962745Y-10631174D01*
X15971997Y-10635888D01*
X15971997Y-10635888D01*
X15971997Y-10635888D01*
X15982032Y-10639149D01*
X15990717Y-10641971D01*
X16010158Y-10645050D01*
X16010158Y-10645050D01*
X16029842Y-10645050D01*
X16049283Y-10641971D01*
X16068002Y-10635888D01*
X16085540Y-10626952D01*
X16101465Y-10615383D01*
X16115383Y-10601465D01*
X16126952Y-10585541D01*
X16135888Y-10568003D01*
X16141971Y-10549283D01*
X16145050Y-10529842D01*
X16145050Y-10510158D01*
X16144798Y-10508567D01*
X16145693Y-10501638D01*
X16148277Y-10497860D01*
X16378295Y-10267842D01*
X16381020Y-10263763D01*
X16386508Y-10255550D01*
X16388852Y-10249892D01*
X16392166Y-10241891D01*
X16395050Y-10227392D01*
X16395050Y-10212608D01*
X16395050Y-9106361D01*
X16397018Y-9099657D01*
X16400161Y-9096330D01*
X16401465Y-9095383D01*
X16415383Y-9081465D01*
X16426952Y-9065541D01*
X16435888Y-9048003D01*
X16441971Y-9029283D01*
X16445050Y-9009842D01*
X16445050Y-8990158D01*
X16441971Y-8970717D01*
X16435888Y-8951997D01*
X16430017Y-8940474D01*
X16426952Y-8934460D01*
X16415383Y-8918535D01*
X16401465Y-8904617D01*
X16385540Y-8893048D01*
X16368003Y-8884112D01*
X16349283Y-8878029D01*
X16329842Y-8874950D01*
X16329842Y-8874950D01*
X16326794Y-8874950D01*
X16320090Y-8872982D01*
X16315515Y-8867701D01*
X16314465Y-8861224D01*
X16315050Y-8855788D01*
X16315050Y-8855787D01*
X16315050Y-8676213D01*
X16314409Y-8670252D01*
X16312119Y-8664112D01*
X16309380Y-8656767D01*
X16309379Y-8656766D01*
X16300755Y-8645246D01*
X16300754Y-8645245D01*
X16289888Y-8637111D01*
X16285701Y-8631517D01*
X16285203Y-8624548D01*
X16288551Y-8618416D01*
X16290030Y-8617153D01*
X16292979Y-8615010D01*
X16308010Y-8599979D01*
X16308011Y-8599979D01*
X16308011Y-8599979D01*
X16320505Y-8582782D01*
X16320505Y-8582782D01*
X16320505Y-8582782D01*
X16330156Y-8563841D01*
X16336725Y-8543624D01*
X16340050Y-8522629D01*
X16340050Y-8501371D01*
X16336725Y-8480376D01*
X16330156Y-8460159D01*
X16320505Y-8441218D01*
X16320505Y-8441218D01*
X16320505Y-8441218D01*
X16308011Y-8424021D01*
X16292979Y-8408989D01*
X16275782Y-8396495D01*
X16275711Y-8396459D01*
X16274905Y-8396049D01*
X16269826Y-8391251D01*
X16268146Y-8384469D01*
X16270400Y-8377856D01*
X16274905Y-8373951D01*
X16275782Y-8373505D01*
X16284801Y-8366952D01*
X16292979Y-8361011D01*
X16292979Y-8361011D01*
X16292979Y-8361010D01*
X16308010Y-8345979D01*
X16308011Y-8345979D01*
X16308011Y-8345979D01*
X16320505Y-8328782D01*
X16320505Y-8328782D01*
X16320505Y-8328782D01*
X16330156Y-8309841D01*
X16336725Y-8289624D01*
X16340050Y-8268629D01*
X16340050Y-8247371D01*
X16336725Y-8226376D01*
X16330156Y-8206159D01*
X16320505Y-8187218D01*
X16320505Y-8187218D01*
X16320505Y-8187218D01*
X16308011Y-8170021D01*
X16292979Y-8154989D01*
X16275782Y-8142495D01*
X16275711Y-8142459D01*
X16274905Y-8142048D01*
X16269826Y-8137251D01*
X16268146Y-8130469D01*
X16270400Y-8123856D01*
X16274905Y-8119951D01*
X16275782Y-8119505D01*
X16277979Y-8117909D01*
X16292979Y-8107011D01*
X16292979Y-8107011D01*
X16292979Y-8107010D01*
X16308010Y-8091979D01*
X16308011Y-8091979D01*
X16308011Y-8091979D01*
X16320505Y-8074782D01*
X16320505Y-8074782D01*
X16320505Y-8074782D01*
X16330156Y-8055841D01*
X16336725Y-8035624D01*
X16340050Y-8014629D01*
X16340050Y-7993371D01*
X16336725Y-7972376D01*
X16330156Y-7952159D01*
X16320505Y-7933218D01*
X16320505Y-7933218D01*
X16320505Y-7933218D01*
X16308011Y-7916021D01*
X16292979Y-7900989D01*
X16275782Y-7888495D01*
X16275711Y-7888459D01*
X16274905Y-7888048D01*
X16269826Y-7883251D01*
X16268146Y-7876469D01*
X16270400Y-7869856D01*
X16274905Y-7865951D01*
X16275782Y-7865505D01*
X16277979Y-7863909D01*
X16292979Y-7853011D01*
X16292979Y-7853011D01*
X16292979Y-7853010D01*
X16308010Y-7837979D01*
X16308011Y-7837979D01*
X16308011Y-7837979D01*
X16320505Y-7820782D01*
X16320505Y-7820782D01*
X16320505Y-7820782D01*
X16330156Y-7801841D01*
X16336725Y-7781624D01*
X16340050Y-7760629D01*
X16340050Y-7739371D01*
X16336725Y-7718376D01*
X16330156Y-7698159D01*
X16320505Y-7679218D01*
X16320505Y-7679218D01*
X16320505Y-7679218D01*
X16308011Y-7662021D01*
X16292979Y-7646989D01*
X16275782Y-7634495D01*
X16275711Y-7634459D01*
X16274905Y-7634048D01*
X16269826Y-7629251D01*
X16268146Y-7622469D01*
X16270400Y-7615856D01*
X16274905Y-7611951D01*
X16275782Y-7611505D01*
X16277979Y-7609909D01*
X16292979Y-7599011D01*
X16292979Y-7599011D01*
X16292979Y-7599010D01*
X16308010Y-7583979D01*
X16308011Y-7583979D01*
X16308011Y-7583979D01*
X16320505Y-7566782D01*
X16320505Y-7566782D01*
X16320505Y-7566782D01*
X16330156Y-7547841D01*
X16336725Y-7527624D01*
X16340050Y-7506629D01*
X16340050Y-7485371D01*
X16336725Y-7464376D01*
X16330156Y-7444159D01*
X16320505Y-7425218D01*
X16320505Y-7425218D01*
X16320505Y-7425218D01*
X16308011Y-7408021D01*
X16292979Y-7392989D01*
X16275782Y-7380495D01*
X16274960Y-7380076D01*
X16274905Y-7380048D01*
X16269826Y-7375251D01*
X16268146Y-7368469D01*
X16270400Y-7361856D01*
X16274905Y-7357951D01*
X16275782Y-7357505D01*
X16277979Y-7355909D01*
X16292979Y-7345011D01*
X16292979Y-7345011D01*
X16292979Y-7345010D01*
X16308010Y-7329979D01*
X16308011Y-7329979D01*
X16308011Y-7329979D01*
X16320505Y-7312782D01*
X16320505Y-7312782D01*
X16320505Y-7312782D01*
X16330156Y-7293841D01*
X16336725Y-7273624D01*
X16340050Y-7252629D01*
X16340050Y-7231371D01*
X16336725Y-7210376D01*
X16330156Y-7190159D01*
X16320505Y-7171218D01*
X16320505Y-7171218D01*
X16320505Y-7171218D01*
X16308011Y-7154021D01*
X16292979Y-7138989D01*
X16275782Y-7126495D01*
X16275711Y-7126459D01*
X16274905Y-7126048D01*
X16269826Y-7121251D01*
X16268146Y-7114469D01*
X16270400Y-7107856D01*
X16274905Y-7103951D01*
X16275782Y-7103505D01*
X16282622Y-7098535D01*
X16292979Y-7091011D01*
X16292979Y-7091011D01*
X16292979Y-7091010D01*
X16308010Y-7075979D01*
X16308011Y-7075979D01*
X16308011Y-7075979D01*
X16320505Y-7058782D01*
X16320505Y-7058782D01*
X16320505Y-7058782D01*
X16330156Y-7039841D01*
X16336725Y-7019624D01*
X16340050Y-6998629D01*
X16340050Y-6977371D01*
X16336725Y-6956376D01*
X16330156Y-6936159D01*
X16320505Y-6917218D01*
X16320505Y-6917218D01*
X16320505Y-6917218D01*
X16308011Y-6900021D01*
X16292979Y-6884989D01*
X16275782Y-6872495D01*
X16275711Y-6872459D01*
X16274905Y-6872048D01*
X16269826Y-6867251D01*
X16268146Y-6860469D01*
X16270400Y-6853856D01*
X16274905Y-6849951D01*
X16275782Y-6849505D01*
X16282200Y-6844842D01*
X16292979Y-6837011D01*
X16292979Y-6837011D01*
X16292979Y-6837010D01*
X16308010Y-6821979D01*
X16308011Y-6821979D01*
X16308011Y-6821979D01*
X16320505Y-6804782D01*
X16320505Y-6804782D01*
X16320505Y-6804782D01*
X16330156Y-6785841D01*
X16336725Y-6765624D01*
X16340050Y-6744629D01*
X16340050Y-6723371D01*
X16336725Y-6702376D01*
X16330156Y-6682159D01*
X16320505Y-6663218D01*
X16320505Y-6663218D01*
X16320505Y-6663218D01*
X16308011Y-6646021D01*
X16292979Y-6630989D01*
X16275782Y-6618495D01*
X16275711Y-6618459D01*
X16274905Y-6618048D01*
X16269826Y-6613251D01*
X16268146Y-6606469D01*
X16270400Y-6599856D01*
X16274905Y-6595951D01*
X16275782Y-6595505D01*
X16277979Y-6593909D01*
X16292979Y-6583011D01*
X16292979Y-6583011D01*
X16292979Y-6583010D01*
X16308010Y-6567979D01*
X16308011Y-6567979D01*
X16308011Y-6567979D01*
X16320505Y-6550782D01*
X16320505Y-6550782D01*
X16320505Y-6550782D01*
X16330156Y-6531841D01*
X16336725Y-6511624D01*
X16340050Y-6490629D01*
X16340050Y-6469371D01*
X16336725Y-6448376D01*
X16330156Y-6428159D01*
X16320505Y-6409218D01*
X16320505Y-6409218D01*
X16320505Y-6409218D01*
X16308011Y-6392021D01*
X16292979Y-6376989D01*
X16275782Y-6364495D01*
X16274850Y-6364020D01*
X16269771Y-6359223D01*
X16268091Y-6352441D01*
X16270345Y-6345827D01*
X16274851Y-6341923D01*
X16275756Y-6341462D01*
X16292946Y-6328973D01*
X16292946Y-6328972D01*
X16307972Y-6313946D01*
X16307973Y-6313946D01*
X16320462Y-6296756D01*
X16330109Y-6277822D01*
X16336676Y-6257613D01*
X16336676Y-6257613D01*
X16337723Y-6251000D01*
X16223301Y-6251000D01*
X16226592Y-6245299D01*
X16230000Y-6232583D01*
X16230000Y-6219417D01*
X16226592Y-6206701D01*
X16223301Y-6201000D01*
X16337723Y-6201000D01*
X16336676Y-6194387D01*
X16336676Y-6194387D01*
X16330109Y-6174178D01*
X16320462Y-6155244D01*
X16307973Y-6138054D01*
X16307972Y-6138053D01*
X16292946Y-6123028D01*
X16292946Y-6123027D01*
X16275755Y-6110538D01*
X16274850Y-6110076D01*
X16269771Y-6105279D01*
X16268091Y-6098497D01*
X16270345Y-6091883D01*
X16274851Y-6087979D01*
X16275782Y-6087505D01*
X16283701Y-6081751D01*
X16292979Y-6075011D01*
X16292979Y-6075011D01*
X16292979Y-6075010D01*
X16308010Y-6059979D01*
X16308011Y-6059979D01*
X16308011Y-6059979D01*
X16320505Y-6042782D01*
X16320505Y-6042782D01*
X16320505Y-6042782D01*
X16330156Y-6023841D01*
X16336725Y-6003624D01*
X16340050Y-5982629D01*
X16340050Y-5961371D01*
X16336725Y-5940376D01*
X16330156Y-5920159D01*
X16320505Y-5901218D01*
X16320505Y-5901218D01*
X16320505Y-5901218D01*
X16308011Y-5884021D01*
X16292979Y-5868989D01*
X16275782Y-5856495D01*
X16274850Y-5856020D01*
X16269771Y-5851223D01*
X16268091Y-5844441D01*
X16270345Y-5837827D01*
X16274851Y-5833923D01*
X16275756Y-5833462D01*
X16292946Y-5820973D01*
X16292946Y-5820972D01*
X16307972Y-5805946D01*
X16307973Y-5805946D01*
X16320462Y-5788756D01*
X16330109Y-5769822D01*
X16336676Y-5749613D01*
X16336676Y-5749613D01*
X16337723Y-5743000D01*
X16223301Y-5743000D01*
X16226592Y-5737299D01*
X16230000Y-5724583D01*
X16230000Y-5711417D01*
X16226592Y-5698701D01*
X16223301Y-5693000D01*
X16337723Y-5693000D01*
X16336676Y-5686387D01*
X16336676Y-5686387D01*
X16330109Y-5666178D01*
X16320462Y-5647244D01*
X16307973Y-5630054D01*
X16307972Y-5630053D01*
X16292946Y-5615028D01*
X16292946Y-5615027D01*
X16275756Y-5602538D01*
X16256822Y-5592890D01*
X16236613Y-5586324D01*
X16215625Y-5583000D01*
X16205000Y-5583000D01*
X16205000Y-5674699D01*
X16199299Y-5671407D01*
X16186583Y-5668000D01*
X16173417Y-5668000D01*
X16160701Y-5671407D01*
X16155000Y-5674699D01*
X16155000Y-5583000D01*
X16144375Y-5583000D01*
X16123387Y-5586324D01*
X16123387Y-5586324D01*
X16103178Y-5592890D01*
X16084244Y-5602538D01*
X16067054Y-5615027D01*
X16067053Y-5615028D01*
X16061768Y-5620313D01*
X16055636Y-5623662D01*
X16048667Y-5623163D01*
X16044232Y-5620313D01*
X16038946Y-5615028D01*
X16038946Y-5615027D01*
X16021756Y-5602538D01*
X16002822Y-5592890D01*
X15982613Y-5586324D01*
X15961625Y-5583000D01*
X15951000Y-5583000D01*
X15951000Y-5674699D01*
X15945299Y-5671407D01*
X15932583Y-5668000D01*
X15919417Y-5668000D01*
X15906701Y-5671407D01*
X15901000Y-5674699D01*
X15901000Y-5583000D01*
X15890375Y-5583000D01*
X15869387Y-5586324D01*
X15869387Y-5586324D01*
X15849178Y-5592890D01*
X15830244Y-5602538D01*
X15813054Y-5615027D01*
X15813053Y-5615028D01*
X15798028Y-5630053D01*
X15798027Y-5630054D01*
X15785538Y-5647244D01*
X15775890Y-5666178D01*
X15769324Y-5686387D01*
X15769324Y-5686387D01*
X15768277Y-5693000D01*
X15882699Y-5693000D01*
X15879407Y-5698701D01*
X15876000Y-5711417D01*
X15876000Y-5724583D01*
X15879407Y-5737299D01*
X15882699Y-5743000D01*
X15768277Y-5743000D01*
X15769324Y-5749613D01*
X15769324Y-5749613D01*
X15775890Y-5769822D01*
X15785538Y-5788756D01*
X15798027Y-5805946D01*
X15798028Y-5805946D01*
X15813053Y-5820972D01*
X15813054Y-5820973D01*
X15830244Y-5833462D01*
X15831149Y-5833923D01*
X15836229Y-5838721D01*
X15837909Y-5845503D01*
X15835655Y-5852116D01*
X15831150Y-5856020D01*
X15830218Y-5856495D01*
X15813021Y-5868989D01*
X15797989Y-5884021D01*
X15785495Y-5901218D01*
X15775844Y-5920158D01*
X15769275Y-5940376D01*
X15765950Y-5961371D01*
X15515050Y-5961371D01*
X15515050Y-5676223D01*
X15517018Y-5669519D01*
X15518681Y-5667455D01*
X15931232Y-5254905D01*
X15937364Y-5251556D01*
X15944333Y-5252055D01*
X15948768Y-5254905D01*
X16221705Y-5527842D01*
X16229751Y-5535888D01*
X16232158Y-5538295D01*
X16244450Y-5546508D01*
X16244451Y-5546509D01*
X16258108Y-5552166D01*
X16258109Y-5552166D01*
X16258109Y-5552166D01*
X16258109Y-5552166D01*
X16272608Y-5555050D01*
X16272608Y-5555050D01*
X16272608Y-5555050D01*
X16287392Y-5555050D01*
X16773639Y-5555050D01*
X16780343Y-5557019D01*
X16783670Y-5560161D01*
X16784511Y-5561318D01*
X16784617Y-5561465D01*
X16798535Y-5575383D01*
X16814460Y-5586952D01*
X16822746Y-5591174D01*
X16831997Y-5595888D01*
X16831997Y-5595888D01*
X16831998Y-5595888D01*
X16842032Y-5599149D01*
X16850717Y-5601971D01*
X16870158Y-5605050D01*
X16870158Y-5605050D01*
X16889842Y-5605050D01*
X16909283Y-5601971D01*
X16928003Y-5595888D01*
X16945541Y-5586952D01*
X16961465Y-5575383D01*
X16975383Y-5561465D01*
X16986952Y-5545541D01*
X16995888Y-5528003D01*
X17001971Y-5509283D01*
X17003209Y-5501465D01*
X17005050Y-5489842D01*
X17005050Y-5470158D01*
X17001971Y-5450717D01*
X16997234Y-5436139D01*
X16995888Y-5431998D01*
X16995888Y-5431997D01*
X16995888Y-5431997D01*
X16986952Y-5414459D01*
X16983839Y-5410175D01*
X16975383Y-5398535D01*
X16961465Y-5384617D01*
X16945541Y-5373048D01*
X16928003Y-5364112D01*
X16909283Y-5358029D01*
X16889842Y-5354950D01*
X16889842Y-5354950D01*
X16870158Y-5354950D01*
X16870158Y-5354950D01*
X16850717Y-5358029D01*
X16831997Y-5364112D01*
X16814459Y-5373048D01*
X16805374Y-5379649D01*
X16798535Y-5384617D01*
X16798535Y-5384617D01*
X16798535Y-5384617D01*
X16784617Y-5398535D01*
X16783670Y-5399839D01*
X16778137Y-5404105D01*
X16773639Y-5404950D01*
X16316223Y-5404950D01*
X16309519Y-5402982D01*
X16307455Y-5401318D01*
X16169690Y-5263553D01*
X16163176Y-5257039D01*
X17440824Y-5257039D01*
X17526135Y-5310698D01*
X17531517Y-5313326D01*
X17531517Y-5313326D01*
X17545595Y-5316246D01*
X17559925Y-5315080D01*
X17559926Y-5315080D01*
X17573347Y-5309925D01*
X17584773Y-5301197D01*
X17584773Y-5301196D01*
X17588484Y-5296498D01*
X17712955Y-5098604D01*
X17589369Y-5020871D01*
X17440824Y-5257039D01*
X16163176Y-5257039D01*
X16048896Y-5142759D01*
X16040006Y-5133870D01*
X17293441Y-5133870D01*
X17294606Y-5148200D01*
X17299762Y-5161622D01*
X17308490Y-5173047D01*
X17313190Y-5176760D01*
X17398500Y-5230418D01*
X17547045Y-4994250D01*
X17423459Y-4916517D01*
X17298989Y-5114410D01*
X17296360Y-5119791D01*
X17293441Y-5133870D01*
X16040006Y-5133870D01*
X15987410Y-5081273D01*
X15987407Y-5081271D01*
X15918682Y-5012545D01*
X15915333Y-5006413D01*
X15915050Y-5003777D01*
X15915050Y-4926361D01*
X15917018Y-4919657D01*
X15920161Y-4916330D01*
X15921465Y-4915383D01*
X15935383Y-4901465D01*
X15946952Y-4885541D01*
X15952890Y-4873887D01*
X16019950Y-4873887D01*
X16019950Y-4900113D01*
X16022204Y-4917233D01*
X16023373Y-4926112D01*
X16025518Y-4934116D01*
X16030160Y-4951442D01*
X16030160Y-4951443D01*
X16040195Y-4975669D01*
X16040196Y-4975670D01*
X16053307Y-4998380D01*
X16069272Y-5019185D01*
X16069273Y-5019186D01*
X16087814Y-5037727D01*
X16087815Y-5037728D01*
X16108620Y-5053692D01*
X16131330Y-5066804D01*
X16131331Y-5066805D01*
X16152442Y-5075549D01*
X16155558Y-5076840D01*
X16180888Y-5083627D01*
X16206888Y-5087050D01*
X16206889Y-5087050D01*
X16233111Y-5087050D01*
X16233112Y-5087050D01*
X16259112Y-5083627D01*
X16284442Y-5076840D01*
X16308670Y-5066804D01*
X16331380Y-5053692D01*
X16352185Y-5037728D01*
X16352185Y-5037728D01*
X16352186Y-5037727D01*
X16370727Y-5019186D01*
X16370728Y-5019186D01*
X16370728Y-5019185D01*
X16386692Y-4998380D01*
X16399804Y-4975670D01*
X16409840Y-4951442D01*
X16416627Y-4926112D01*
X16420050Y-4900112D01*
X16420050Y-4873888D01*
X16416627Y-4847888D01*
X16409840Y-4822558D01*
X16409367Y-4821418D01*
X16399805Y-4798331D01*
X16399804Y-4798330D01*
X16399804Y-4798330D01*
X16397643Y-4794586D01*
X16395365Y-4790641D01*
X16699307Y-4790641D01*
X16784617Y-4844299D01*
X16789999Y-4846928D01*
X16789999Y-4846928D01*
X16804078Y-4849847D01*
X16818408Y-4848682D01*
X16818408Y-4848682D01*
X16831830Y-4843526D01*
X16843255Y-4834798D01*
X16843255Y-4834798D01*
X16846967Y-4830099D01*
X16971438Y-4632206D01*
X16847851Y-4554472D01*
X16699307Y-4790641D01*
X16395365Y-4790641D01*
X16386692Y-4775620D01*
X16370728Y-4754815D01*
X16370727Y-4754814D01*
X16352186Y-4736273D01*
X16352185Y-4736272D01*
X16331380Y-4720308D01*
X16308670Y-4707196D01*
X16308669Y-4707195D01*
X16284443Y-4697161D01*
X16284442Y-4697160D01*
X16284442Y-4697160D01*
X16259112Y-4690373D01*
X16253334Y-4689612D01*
X16233113Y-4686950D01*
X16233112Y-4686950D01*
X16206888Y-4686950D01*
X16206887Y-4686950D01*
X16183777Y-4689993D01*
X16180888Y-4690373D01*
X16162787Y-4695223D01*
X16155558Y-4697160D01*
X16155557Y-4697161D01*
X16131331Y-4707195D01*
X16131330Y-4707196D01*
X16108620Y-4720308D01*
X16087815Y-4736272D01*
X16069272Y-4754815D01*
X16053307Y-4775620D01*
X16040196Y-4798330D01*
X16040195Y-4798331D01*
X16030160Y-4822557D01*
X16030160Y-4822558D01*
X16023373Y-4847888D01*
X16023147Y-4849602D01*
X16019950Y-4873887D01*
X15952890Y-4873887D01*
X15955888Y-4868003D01*
X15961971Y-4849283D01*
X15962192Y-4847888D01*
X15965050Y-4829842D01*
X15965050Y-4810158D01*
X15961971Y-4790717D01*
X15955888Y-4771997D01*
X15951174Y-4762746D01*
X15946952Y-4754460D01*
X15935383Y-4738535D01*
X15921465Y-4724617D01*
X15905540Y-4713048D01*
X15903796Y-4712159D01*
X15888003Y-4704112D01*
X15869283Y-4698029D01*
X15849842Y-4694950D01*
X15849842Y-4694950D01*
X15830158Y-4694950D01*
X15830158Y-4694950D01*
X15810717Y-4698029D01*
X15791997Y-4704112D01*
X15774459Y-4713048D01*
X15765542Y-4719527D01*
X15758535Y-4724617D01*
X15758535Y-4724617D01*
X15758535Y-4724617D01*
X15744617Y-4738535D01*
X15744617Y-4738535D01*
X15744617Y-4738535D01*
X15739648Y-4745374D01*
X15733048Y-4754459D01*
X15724112Y-4771997D01*
X15718029Y-4790717D01*
X15714950Y-4810158D01*
X15714950Y-4829842D01*
X15718029Y-4849283D01*
X15724112Y-4868003D01*
X15731570Y-4882640D01*
X15733048Y-4885541D01*
X15744617Y-4901465D01*
X15758535Y-4915383D01*
X15759838Y-4916330D01*
X15764105Y-4921862D01*
X15764950Y-4926361D01*
X15764950Y-5047392D01*
X15764950Y-5047392D01*
X15764950Y-5047392D01*
X15767834Y-5061891D01*
X15767834Y-5061892D01*
X15773491Y-5075549D01*
X15773491Y-5075549D01*
X15773492Y-5075550D01*
X15774354Y-5076840D01*
X15776781Y-5080473D01*
X15776781Y-5080473D01*
X15781705Y-5087841D01*
X15781705Y-5087842D01*
X15825095Y-5131232D01*
X15828443Y-5137364D01*
X15827945Y-5144333D01*
X15825095Y-5148768D01*
X15412545Y-5561318D01*
X15406413Y-5564667D01*
X15403777Y-5564950D01*
X12766361Y-5564950D01*
X12759657Y-5562982D01*
X12756330Y-5559839D01*
X12755383Y-5558535D01*
X12741465Y-5544617D01*
X12741465Y-5544617D01*
X12725540Y-5533048D01*
X12722410Y-5531453D01*
X12708003Y-5524112D01*
X12689283Y-5518029D01*
X12669842Y-5514950D01*
X12669842Y-5514950D01*
X12650158Y-5514950D01*
X12650158Y-5514950D01*
X12630717Y-5518029D01*
X12630717Y-5518029D01*
X12611998Y-5524111D01*
X12605616Y-5527363D01*
X12598750Y-5528652D01*
X12592276Y-5526025D01*
X12591219Y-5525082D01*
X12427842Y-5361705D01*
X12427841Y-5361705D01*
X12420473Y-5356781D01*
X12420473Y-5356781D01*
X12415549Y-5353491D01*
X12401892Y-5347834D01*
X12401891Y-5347834D01*
X12387392Y-5344950D01*
X12387392Y-5344950D01*
X12250111Y-5344950D01*
X12243407Y-5342982D01*
X12240080Y-5339839D01*
X12239133Y-5338535D01*
X12225215Y-5324617D01*
X12225215Y-5324617D01*
X12209290Y-5313048D01*
X12191753Y-5304112D01*
X12173033Y-5298029D01*
X12153592Y-5294950D01*
X12153592Y-5294950D01*
X12133908Y-5294950D01*
X12133908Y-5294950D01*
X12114467Y-5298029D01*
X12095747Y-5304112D01*
X12078209Y-5313048D01*
X12069124Y-5319649D01*
X12062285Y-5324617D01*
X12062285Y-5324617D01*
X12062285Y-5324617D01*
X12048367Y-5338535D01*
X12048367Y-5338535D01*
X12048367Y-5338535D01*
X12047420Y-5339839D01*
X12036798Y-5354459D01*
X12027862Y-5371997D01*
X12021779Y-5390717D01*
X12019697Y-5403861D01*
X12016704Y-5410175D01*
X12010773Y-5413868D01*
X12003787Y-5413768D01*
X11997964Y-5409907D01*
X11995152Y-5403511D01*
X11995050Y-5401921D01*
X11995050Y-4796223D01*
X11997018Y-4789519D01*
X11998681Y-4787455D01*
X12118666Y-4667471D01*
X16551923Y-4667471D01*
X16553089Y-4681802D01*
X16558244Y-4695223D01*
X16566972Y-4706649D01*
X16571672Y-4710362D01*
X16656983Y-4764020D01*
X16805527Y-4527852D01*
X16681941Y-4450119D01*
X16557471Y-4648011D01*
X16554842Y-4653393D01*
X16551923Y-4667471D01*
X12118666Y-4667471D01*
X12261388Y-4524748D01*
X16149857Y-4524748D01*
X16244974Y-4558063D01*
X16244976Y-4558064D01*
X16250806Y-4559428D01*
X16250807Y-4559428D01*
X16265181Y-4559139D01*
X16278892Y-4554812D01*
X16290829Y-4546797D01*
X16300025Y-4535744D01*
X16300025Y-4535743D01*
X16302597Y-4530336D01*
X16302597Y-4530335D01*
X16379877Y-4309695D01*
X16242085Y-4261432D01*
X16149857Y-4524748D01*
X12261388Y-4524748D01*
X12297860Y-4488277D01*
X12303992Y-4484929D01*
X12308567Y-4484798D01*
X12310158Y-4485050D01*
X12310158Y-4485050D01*
X12329842Y-4485050D01*
X12349283Y-4481971D01*
X12368002Y-4475888D01*
X12385540Y-4466952D01*
X12401465Y-4455383D01*
X12415383Y-4441465D01*
X12426952Y-4425541D01*
X12428189Y-4423114D01*
X15978459Y-4423114D01*
X15978748Y-4437489D01*
X15983075Y-4451200D01*
X15991090Y-4463137D01*
X16002143Y-4472332D01*
X16007550Y-4474904D01*
X16007551Y-4474905D01*
X16102668Y-4508220D01*
X16194896Y-4244904D01*
X16057103Y-4196642D01*
X15979823Y-4417281D01*
X15978459Y-4423114D01*
X12428189Y-4423114D01*
X12433878Y-4411947D01*
X12435888Y-4408003D01*
X12435888Y-4408003D01*
X12435888Y-4408003D01*
X12441971Y-4389283D01*
X12442649Y-4385003D01*
X12445050Y-4369842D01*
X12445050Y-4350158D01*
X12441971Y-4330717D01*
X12439149Y-4322032D01*
X12435888Y-4311998D01*
X12435888Y-4311997D01*
X12435888Y-4311997D01*
X12426952Y-4294459D01*
X12415383Y-4278535D01*
X12401465Y-4264617D01*
X12385540Y-4253048D01*
X12370814Y-4245544D01*
X12368003Y-4244112D01*
X12349283Y-4238029D01*
X12331258Y-4235174D01*
X15323103Y-4235174D01*
X15418220Y-4268489D01*
X15418222Y-4268490D01*
X15424051Y-4269854D01*
X15424052Y-4269854D01*
X15438427Y-4269565D01*
X15452138Y-4265238D01*
X15464075Y-4257223D01*
X15473270Y-4246170D01*
X15473270Y-4246170D01*
X15475842Y-4240762D01*
X15475843Y-4240761D01*
X15553123Y-4020121D01*
X15415330Y-3971858D01*
X15323103Y-4235174D01*
X12331258Y-4235174D01*
X12329842Y-4234950D01*
X12329842Y-4234950D01*
X12310158Y-4234950D01*
X12310158Y-4234950D01*
X12290717Y-4238029D01*
X12271997Y-4244112D01*
X12254459Y-4253048D01*
X12245374Y-4259649D01*
X12238535Y-4264617D01*
X12238535Y-4264617D01*
X12238535Y-4264617D01*
X12224617Y-4278535D01*
X12224617Y-4278535D01*
X12224617Y-4278535D01*
X12219648Y-4285374D01*
X12213048Y-4294459D01*
X12204112Y-4311997D01*
X12198029Y-4330717D01*
X12194950Y-4350158D01*
X12194950Y-4369842D01*
X12195202Y-4371432D01*
X12194306Y-4378362D01*
X12191723Y-4382140D01*
X11861705Y-4712158D01*
X11861704Y-4712159D01*
X11856781Y-4719527D01*
X11856781Y-4719527D01*
X11853492Y-4724450D01*
X11853491Y-4724451D01*
X11847834Y-4738109D01*
X11847834Y-4738109D01*
X11844950Y-4752608D01*
X11844950Y-4752608D01*
X11844950Y-6387392D01*
X11844950Y-6387392D01*
X11844950Y-6387392D01*
X11847834Y-6401891D01*
X11847834Y-6401892D01*
X11853491Y-6415549D01*
X11853492Y-6415550D01*
X11853844Y-6416077D01*
X11855932Y-6422745D01*
X11855782Y-6424906D01*
X11854950Y-6430158D01*
X11854950Y-6449842D01*
X11858029Y-6469283D01*
X11864112Y-6488003D01*
X11873048Y-6505540D01*
X11884617Y-6521465D01*
X11898535Y-6535383D01*
X11899838Y-6536329D01*
X11904105Y-6541862D01*
X11904950Y-6546361D01*
X11904950Y-8012550D01*
X11902981Y-8019254D01*
X11897701Y-8023829D01*
X11892550Y-8024950D01*
X11372608Y-8024950D01*
X11358109Y-8027834D01*
X11358108Y-8027834D01*
X11344451Y-8033491D01*
X11344450Y-8033492D01*
X11342327Y-8034910D01*
X11341259Y-8035624D01*
X11332158Y-8041705D01*
X11332158Y-8041705D01*
X11241705Y-8132158D01*
X11241704Y-8132159D01*
X11240073Y-8134600D01*
X11240072Y-8134601D01*
X11239840Y-8134950D01*
X11233492Y-8144450D01*
X11231105Y-8150213D01*
X11230706Y-8150906D01*
X11228737Y-8152792D01*
X11227026Y-8154916D01*
X11226250Y-8155174D01*
X11225660Y-8155739D01*
X11222984Y-8156261D01*
X11220396Y-8157122D01*
X11219604Y-8156920D01*
X11218802Y-8157076D01*
X11216269Y-8156068D01*
X11213627Y-8155394D01*
X11212666Y-8154762D01*
X11195782Y-8142495D01*
X11195711Y-8142459D01*
X11194905Y-8142048D01*
X11189826Y-8137251D01*
X11188146Y-8130469D01*
X11190400Y-8123856D01*
X11194905Y-8119951D01*
X11195782Y-8119505D01*
X11197979Y-8117909D01*
X11212979Y-8107011D01*
X11212979Y-8107011D01*
X11212979Y-8107010D01*
X11228010Y-8091979D01*
X11228011Y-8091979D01*
X11228011Y-8091979D01*
X11240505Y-8074782D01*
X11240505Y-8074782D01*
X11240505Y-8074782D01*
X11250156Y-8055841D01*
X11256725Y-8035624D01*
X11260050Y-8014629D01*
X11260050Y-7993371D01*
X11256725Y-7972376D01*
X11250156Y-7952159D01*
X11240505Y-7933218D01*
X11240505Y-7933218D01*
X11240505Y-7933218D01*
X11228011Y-7916021D01*
X11212979Y-7900989D01*
X11195782Y-7888495D01*
X11195711Y-7888459D01*
X11194905Y-7888048D01*
X11189826Y-7883251D01*
X11188146Y-7876469D01*
X11190400Y-7869856D01*
X11194905Y-7865951D01*
X11195782Y-7865505D01*
X11197979Y-7863909D01*
X11212979Y-7853011D01*
X11212979Y-7853011D01*
X11212979Y-7853010D01*
X11228010Y-7837979D01*
X11228011Y-7837979D01*
X11228011Y-7837979D01*
X11240505Y-7820782D01*
X11240505Y-7820782D01*
X11240505Y-7820782D01*
X11250156Y-7801841D01*
X11256725Y-7781624D01*
X11260050Y-7760629D01*
X11260050Y-7739371D01*
X11256725Y-7718376D01*
X11250156Y-7698159D01*
X11240505Y-7679218D01*
X11240505Y-7679218D01*
X11240505Y-7679218D01*
X11228011Y-7662021D01*
X11212979Y-7646989D01*
X11195782Y-7634495D01*
X11195711Y-7634459D01*
X11194905Y-7634048D01*
X11189826Y-7629251D01*
X11188146Y-7622469D01*
X11190400Y-7615856D01*
X11194905Y-7611951D01*
X11195782Y-7611505D01*
X11197979Y-7609909D01*
X11212979Y-7599011D01*
X11212979Y-7599011D01*
X11212979Y-7599010D01*
X11228010Y-7583979D01*
X11228011Y-7583979D01*
X11228011Y-7583979D01*
X11240505Y-7566782D01*
X11240505Y-7566782D01*
X11240505Y-7566782D01*
X11250156Y-7547841D01*
X11256725Y-7527624D01*
X11260050Y-7506629D01*
X11260050Y-7485371D01*
X11256725Y-7464376D01*
X11250156Y-7444159D01*
X11240505Y-7425218D01*
X11240505Y-7425218D01*
X11240505Y-7425218D01*
X11228011Y-7408021D01*
X11212979Y-7392989D01*
X11195782Y-7380495D01*
X11194960Y-7380076D01*
X11194905Y-7380048D01*
X11189826Y-7375251D01*
X11188146Y-7368469D01*
X11190400Y-7361856D01*
X11194905Y-7357951D01*
X11195782Y-7357505D01*
X11197979Y-7355909D01*
X11212979Y-7345011D01*
X11212979Y-7345011D01*
X11212979Y-7345010D01*
X11228010Y-7329979D01*
X11228011Y-7329979D01*
X11228011Y-7329979D01*
X11240505Y-7312782D01*
X11240505Y-7312782D01*
X11240505Y-7312782D01*
X11250156Y-7293841D01*
X11256725Y-7273624D01*
X11260050Y-7252629D01*
X11260050Y-7231371D01*
X11256725Y-7210376D01*
X11250156Y-7190159D01*
X11240505Y-7171218D01*
X11240505Y-7171218D01*
X11240505Y-7171218D01*
X11228011Y-7154021D01*
X11212979Y-7138989D01*
X11195782Y-7126495D01*
X11195711Y-7126459D01*
X11194905Y-7126048D01*
X11189826Y-7121251D01*
X11188146Y-7114469D01*
X11190400Y-7107856D01*
X11194905Y-7103951D01*
X11195782Y-7103505D01*
X11202622Y-7098535D01*
X11212979Y-7091011D01*
X11212979Y-7091011D01*
X11212979Y-7091010D01*
X11228010Y-7075979D01*
X11228011Y-7075979D01*
X11228011Y-7075979D01*
X11240505Y-7058782D01*
X11240505Y-7058782D01*
X11240505Y-7058782D01*
X11250156Y-7039841D01*
X11256725Y-7019624D01*
X11260050Y-6998629D01*
X11260050Y-6977371D01*
X11256725Y-6956376D01*
X11250156Y-6936159D01*
X11240505Y-6917218D01*
X11240505Y-6917218D01*
X11240505Y-6917218D01*
X11228011Y-6900021D01*
X11212979Y-6884989D01*
X11195782Y-6872495D01*
X11195711Y-6872459D01*
X11194905Y-6872048D01*
X11189826Y-6867251D01*
X11188146Y-6860469D01*
X11190400Y-6853856D01*
X11194905Y-6849951D01*
X11195782Y-6849505D01*
X11202200Y-6844842D01*
X11212979Y-6837011D01*
X11212979Y-6837011D01*
X11212979Y-6837010D01*
X11228010Y-6821979D01*
X11228011Y-6821979D01*
X11228011Y-6821979D01*
X11240505Y-6804782D01*
X11240505Y-6804782D01*
X11240505Y-6804782D01*
X11250156Y-6785841D01*
X11256725Y-6765624D01*
X11260050Y-6744629D01*
X11260050Y-6723371D01*
X11256725Y-6702376D01*
X11250156Y-6682159D01*
X11240505Y-6663218D01*
X11240505Y-6663218D01*
X11240505Y-6663218D01*
X11228011Y-6646021D01*
X11212979Y-6630989D01*
X11195782Y-6618495D01*
X11195711Y-6618459D01*
X11194905Y-6618048D01*
X11189826Y-6613251D01*
X11188146Y-6606469D01*
X11190400Y-6599856D01*
X11194905Y-6595951D01*
X11195782Y-6595505D01*
X11197979Y-6593909D01*
X11212979Y-6583011D01*
X11212979Y-6583011D01*
X11212979Y-6583010D01*
X11228010Y-6567979D01*
X11228011Y-6567979D01*
X11228011Y-6567979D01*
X11240505Y-6550782D01*
X11240505Y-6550782D01*
X11240505Y-6550782D01*
X11250156Y-6531841D01*
X11256725Y-6511624D01*
X11260050Y-6490629D01*
X11260050Y-6469371D01*
X11256725Y-6448376D01*
X11250156Y-6428159D01*
X11240505Y-6409218D01*
X11240505Y-6409218D01*
X11240505Y-6409218D01*
X11228011Y-6392021D01*
X11212979Y-6376989D01*
X11195782Y-6364495D01*
X11195711Y-6364459D01*
X11194905Y-6364048D01*
X11189826Y-6359251D01*
X11188146Y-6352469D01*
X11190400Y-6345856D01*
X11194905Y-6341951D01*
X11195782Y-6341505D01*
X11197979Y-6339909D01*
X11212979Y-6329011D01*
X11212979Y-6329011D01*
X11212979Y-6329010D01*
X11228010Y-6313979D01*
X11228011Y-6313979D01*
X11228011Y-6313979D01*
X11240505Y-6296782D01*
X11240505Y-6296782D01*
X11240505Y-6296782D01*
X11250156Y-6277841D01*
X11256725Y-6257624D01*
X11260050Y-6236629D01*
X11260050Y-6215371D01*
X11256725Y-6194376D01*
X11250156Y-6174159D01*
X11240505Y-6155218D01*
X11240505Y-6155218D01*
X11240505Y-6155218D01*
X11228011Y-6138021D01*
X11212979Y-6122989D01*
X11195782Y-6110495D01*
X11194960Y-6110076D01*
X11194905Y-6110048D01*
X11189826Y-6105251D01*
X11188146Y-6098469D01*
X11190400Y-6091856D01*
X11194905Y-6087951D01*
X11195782Y-6087505D01*
X11197979Y-6085909D01*
X11212979Y-6075011D01*
X11212979Y-6075011D01*
X11212979Y-6075010D01*
X11228010Y-6059979D01*
X11228011Y-6059979D01*
X11228011Y-6059979D01*
X11240505Y-6042782D01*
X11240505Y-6042782D01*
X11240505Y-6042782D01*
X11250156Y-6023841D01*
X11256725Y-6003624D01*
X11260050Y-5982629D01*
X11260050Y-5961371D01*
X11256725Y-5940376D01*
X11250156Y-5920159D01*
X11240505Y-5901218D01*
X11240505Y-5901218D01*
X11240505Y-5901218D01*
X11228011Y-5884021D01*
X11212979Y-5868989D01*
X11195782Y-5856495D01*
X11194850Y-5856020D01*
X11189771Y-5851223D01*
X11188091Y-5844441D01*
X11190345Y-5837827D01*
X11194851Y-5833923D01*
X11195756Y-5833462D01*
X11212946Y-5820973D01*
X11212946Y-5820972D01*
X11227972Y-5805946D01*
X11227973Y-5805946D01*
X11240462Y-5788756D01*
X11250109Y-5769822D01*
X11256676Y-5749613D01*
X11256676Y-5749613D01*
X11257723Y-5743000D01*
X11143301Y-5743000D01*
X11146593Y-5737299D01*
X11150000Y-5724583D01*
X11150000Y-5711417D01*
X11146593Y-5698701D01*
X11143301Y-5693000D01*
X11257723Y-5693000D01*
X11256676Y-5686387D01*
X11256676Y-5686387D01*
X11250109Y-5666178D01*
X11240462Y-5647244D01*
X11227973Y-5630054D01*
X11227972Y-5630053D01*
X11212946Y-5615028D01*
X11212946Y-5615027D01*
X11195756Y-5602538D01*
X11176822Y-5592890D01*
X11156613Y-5586324D01*
X11135625Y-5583000D01*
X11125000Y-5583000D01*
X11125000Y-5674699D01*
X11119299Y-5671407D01*
X11106583Y-5668000D01*
X11093417Y-5668000D01*
X11080701Y-5671407D01*
X11075000Y-5674699D01*
X11075000Y-5583000D01*
X11064375Y-5583000D01*
X11043387Y-5586324D01*
X11043387Y-5586324D01*
X11023178Y-5592890D01*
X11004244Y-5602538D01*
X10987054Y-5615027D01*
X10987054Y-5615028D01*
X10981768Y-5620313D01*
X10975636Y-5623662D01*
X10968667Y-5623163D01*
X10964232Y-5620313D01*
X10958946Y-5615028D01*
X10958946Y-5615027D01*
X10941756Y-5602538D01*
X10922822Y-5592890D01*
X10902613Y-5586324D01*
X10881625Y-5583000D01*
X10871000Y-5583000D01*
X10871000Y-5674699D01*
X10865299Y-5671407D01*
X10852583Y-5668000D01*
X10839417Y-5668000D01*
X10826701Y-5671407D01*
X10821000Y-5674699D01*
X10821000Y-5583000D01*
X10810375Y-5583000D01*
X10789387Y-5586324D01*
X10789387Y-5586324D01*
X10769178Y-5592890D01*
X10750244Y-5602538D01*
X10733054Y-5615027D01*
X10733054Y-5615028D01*
X10718028Y-5630053D01*
X10718027Y-5630054D01*
X10705538Y-5647244D01*
X10695890Y-5666178D01*
X10689324Y-5686387D01*
X10689324Y-5686387D01*
X10688277Y-5693000D01*
X10802699Y-5693000D01*
X10799408Y-5698701D01*
X10796000Y-5711417D01*
X10796000Y-5724583D01*
X10799408Y-5737299D01*
X10802699Y-5743000D01*
X10688277Y-5743000D01*
X10689324Y-5749613D01*
X10689324Y-5749613D01*
X10695890Y-5769822D01*
X10705538Y-5788756D01*
X10718027Y-5805946D01*
X10718028Y-5805946D01*
X10733054Y-5820972D01*
X10733054Y-5820973D01*
X10750244Y-5833462D01*
X10751150Y-5833923D01*
X10756229Y-5838721D01*
X10757909Y-5845503D01*
X10755655Y-5852116D01*
X10751150Y-5856020D01*
X10750218Y-5856495D01*
X10733021Y-5868989D01*
X10717989Y-5884021D01*
X10705495Y-5901218D01*
X10695844Y-5920158D01*
X10689275Y-5940376D01*
X10685950Y-5961371D01*
X9042222Y-5961371D01*
X9042545Y-5488749D01*
X9042550Y-5488732D01*
X9042550Y-5482156D01*
X9042555Y-5475588D01*
X9042554Y-5475588D01*
X9042555Y-5474826D01*
X9042550Y-5474748D01*
X9042550Y-5089923D01*
X9364498Y-5089923D01*
X9488969Y-5287816D01*
X9492680Y-5292515D01*
X9492680Y-5292515D01*
X9504106Y-5301243D01*
X9517527Y-5306399D01*
X9517528Y-5306399D01*
X9531858Y-5307564D01*
X9545936Y-5304645D01*
X9545936Y-5304645D01*
X9551318Y-5302016D01*
X9636628Y-5248358D01*
X9488084Y-5012189D01*
X9364498Y-5089923D01*
X9042550Y-5089923D01*
X9042550Y-4957347D01*
X9044519Y-4950643D01*
X9048346Y-4946852D01*
X9199888Y-4851506D01*
X9206610Y-4849602D01*
X9213295Y-4851635D01*
X9216988Y-4855399D01*
X9337877Y-5047598D01*
X9436497Y-4985569D01*
X9530408Y-4985569D01*
X9678953Y-5221737D01*
X9764264Y-5168078D01*
X9768963Y-5164366D01*
X9777691Y-5152940D01*
X9782847Y-5139519D01*
X9784012Y-5125188D01*
X9781093Y-5111110D01*
X9778464Y-5105728D01*
X9653994Y-4907836D01*
X9530408Y-4985569D01*
X9436497Y-4985569D01*
X9449601Y-4977326D01*
X9482625Y-4956555D01*
X9614057Y-4873887D01*
X10619950Y-4873887D01*
X10619950Y-4900113D01*
X10622204Y-4917233D01*
X10623373Y-4926112D01*
X10625518Y-4934116D01*
X10630160Y-4951442D01*
X10630161Y-4951443D01*
X10640195Y-4975669D01*
X10640196Y-4975670D01*
X10653308Y-4998380D01*
X10669272Y-5019185D01*
X10669273Y-5019186D01*
X10687814Y-5037727D01*
X10687815Y-5037728D01*
X10708620Y-5053692D01*
X10731330Y-5066804D01*
X10731331Y-5066805D01*
X10752442Y-5075549D01*
X10755558Y-5076840D01*
X10780888Y-5083627D01*
X10806888Y-5087050D01*
X10806889Y-5087050D01*
X10833111Y-5087050D01*
X10833112Y-5087050D01*
X10859112Y-5083627D01*
X10884442Y-5076840D01*
X10908670Y-5066804D01*
X10931380Y-5053692D01*
X10952185Y-5037728D01*
X10952186Y-5037728D01*
X10952186Y-5037727D01*
X10970727Y-5019186D01*
X10970728Y-5019186D01*
X10970728Y-5019185D01*
X10986692Y-4998380D01*
X10999804Y-4975670D01*
X11009840Y-4951442D01*
X11016627Y-4926112D01*
X11020050Y-4900112D01*
X11020050Y-4873888D01*
X11016627Y-4847888D01*
X11009840Y-4822558D01*
X11009368Y-4821418D01*
X10999805Y-4798331D01*
X10999804Y-4798330D01*
X10986692Y-4775620D01*
X10970728Y-4754815D01*
X10970727Y-4754814D01*
X10952186Y-4736273D01*
X10952185Y-4736272D01*
X10931380Y-4720308D01*
X10908670Y-4707196D01*
X10908669Y-4707195D01*
X10884443Y-4697161D01*
X10884442Y-4697160D01*
X10884442Y-4697160D01*
X10859112Y-4690373D01*
X10853334Y-4689612D01*
X10833113Y-4686950D01*
X10833112Y-4686950D01*
X10806888Y-4686950D01*
X10806887Y-4686950D01*
X10783777Y-4689993D01*
X10780888Y-4690373D01*
X10762788Y-4695223D01*
X10755558Y-4697160D01*
X10755557Y-4697161D01*
X10731331Y-4707195D01*
X10731330Y-4707196D01*
X10708620Y-4720308D01*
X10687815Y-4736272D01*
X10669272Y-4754815D01*
X10653308Y-4775620D01*
X10640196Y-4798330D01*
X10640195Y-4798331D01*
X10630161Y-4822557D01*
X10630160Y-4822558D01*
X10623373Y-4847888D01*
X10623147Y-4849602D01*
X10619950Y-4873887D01*
X9614057Y-4873887D01*
X9627373Y-4865511D01*
X9506456Y-4673268D01*
X9504553Y-4666546D01*
X9506587Y-4659861D01*
X9510349Y-4656171D01*
X9562238Y-4623524D01*
X10106015Y-4623524D01*
X10230486Y-4821418D01*
X10234198Y-4826116D01*
X10234198Y-4826117D01*
X10245624Y-4834845D01*
X10259045Y-4840000D01*
X10259045Y-4840000D01*
X10273376Y-4841166D01*
X10287454Y-4838247D01*
X10287454Y-4838246D01*
X10292836Y-4835618D01*
X10378146Y-4781959D01*
X10229602Y-4545791D01*
X10106015Y-4623524D01*
X9562238Y-4623524D01*
X9941340Y-4385002D01*
X9948062Y-4383099D01*
X9954747Y-4385131D01*
X9958439Y-4388896D01*
X10079394Y-4581200D01*
X10178015Y-4519170D01*
X10271926Y-4519170D01*
X10420470Y-4755338D01*
X10505781Y-4701680D01*
X10510481Y-4697968D01*
X10519209Y-4686542D01*
X10524364Y-4673120D01*
X10525530Y-4658790D01*
X10522611Y-4644711D01*
X10519982Y-4639330D01*
X10395512Y-4441437D01*
X10271926Y-4519170D01*
X10178015Y-4519170D01*
X10191119Y-4510928D01*
X10224143Y-4490157D01*
X10368891Y-4399113D01*
X10315887Y-4314842D01*
X10312206Y-4308990D01*
X10667986Y-4308990D01*
X10745248Y-4529638D01*
X10747819Y-4535046D01*
X10747819Y-4535046D01*
X10757013Y-4546099D01*
X10757014Y-4546100D01*
X10768950Y-4554115D01*
X10782661Y-4558444D01*
X10782661Y-4558444D01*
X10797035Y-4558734D01*
X10802866Y-4557371D01*
X10897987Y-4524063D01*
X10805783Y-4260740D01*
X10667986Y-4308990D01*
X10312206Y-4308990D01*
X10247908Y-4206765D01*
X10246005Y-4200042D01*
X10248039Y-4193358D01*
X10251801Y-4189668D01*
X10388169Y-4103868D01*
X10390682Y-4102658D01*
X10561690Y-4042913D01*
X10568667Y-4042561D01*
X10574728Y-4046036D01*
X10577482Y-4050521D01*
X10651462Y-4261799D01*
X10701679Y-4244216D01*
X10852973Y-4244216D01*
X10945178Y-4507539D01*
X11040298Y-4474232D01*
X11040300Y-4474232D01*
X11045706Y-4471661D01*
X11045707Y-4471660D01*
X11056760Y-4462467D01*
X11056761Y-4462466D01*
X11064776Y-4450530D01*
X11069104Y-4436819D01*
X11069105Y-4436819D01*
X11069395Y-4422444D01*
X11069395Y-4422444D01*
X11068031Y-4416613D01*
X10990770Y-4195965D01*
X10852973Y-4244216D01*
X10701679Y-4244216D01*
X10737243Y-4231763D01*
X10812854Y-4205287D01*
X10974246Y-4148775D01*
X10930148Y-4022837D01*
X10928976Y-4019488D01*
X11494766Y-4019488D01*
X11572027Y-4240137D01*
X11574599Y-4245544D01*
X11574599Y-4245544D01*
X11583792Y-4256598D01*
X11583793Y-4256598D01*
X11595729Y-4264614D01*
X11609440Y-4268942D01*
X11609440Y-4268942D01*
X11623815Y-4269232D01*
X11629646Y-4267869D01*
X11724767Y-4234562D01*
X11632562Y-3971238D01*
X11494766Y-4019488D01*
X10928976Y-4019488D01*
X10900351Y-3937739D01*
X10899993Y-3930761D01*
X10903465Y-3924698D01*
X10907963Y-3921936D01*
X11388672Y-3753990D01*
X11395649Y-3753638D01*
X11401710Y-3757114D01*
X11404464Y-3761599D01*
X11478242Y-3972298D01*
X11528459Y-3954714D01*
X11679753Y-3954714D01*
X11771957Y-4218038D01*
X11867078Y-4184731D01*
X11867079Y-4184730D01*
X11872486Y-4182159D01*
X11872486Y-4182158D01*
X11883539Y-4172965D01*
X11883540Y-4172964D01*
X11891556Y-4161028D01*
X11895884Y-4147317D01*
X11895884Y-4147317D01*
X11896162Y-4133540D01*
X15151704Y-4133540D01*
X15151993Y-4147915D01*
X15156321Y-4161626D01*
X15164335Y-4173563D01*
X15175388Y-4182758D01*
X15180796Y-4185330D01*
X15180797Y-4185331D01*
X15275914Y-4218646D01*
X15368141Y-3955330D01*
X15230349Y-3907068D01*
X15153069Y-4127707D01*
X15151704Y-4133540D01*
X11896162Y-4133540D01*
X11896174Y-4132943D01*
X11896174Y-4132942D01*
X11894811Y-4127111D01*
X11817549Y-3906464D01*
X11679753Y-3954714D01*
X11528459Y-3954714D01*
X11564023Y-3942261D01*
X11639634Y-3915785D01*
X11801025Y-3859273D01*
X11788438Y-3823324D01*
X11788300Y-3822931D01*
X12143610Y-3822931D01*
X12169978Y-4055222D01*
X12171285Y-4061066D01*
X12177797Y-4073885D01*
X12177797Y-4073885D01*
X12187657Y-4084350D01*
X12187657Y-4084350D01*
X12200065Y-4091613D01*
X12214017Y-4095086D01*
X12220005Y-4095051D01*
X12220006Y-4095051D01*
X12309548Y-4084887D01*
X14670777Y-4084887D01*
X14770925Y-4096180D01*
X14770925Y-4096180D01*
X14776913Y-4096211D01*
X14776914Y-4096211D01*
X14790863Y-4092728D01*
X14790864Y-4092728D01*
X14803266Y-4085456D01*
X14803267Y-4085455D01*
X14813118Y-4074984D01*
X14813118Y-4074984D01*
X14819621Y-4062160D01*
X14820924Y-4056315D01*
X14820924Y-4056315D01*
X14847121Y-3824004D01*
X14702041Y-3807644D01*
X14670777Y-4084887D01*
X12309548Y-4084887D01*
X12320146Y-4083684D01*
X12288678Y-3806464D01*
X12143610Y-3822931D01*
X11788300Y-3822931D01*
X11780559Y-3800825D01*
X12338359Y-3800825D01*
X12369827Y-4078044D01*
X12469967Y-4066677D01*
X12475811Y-4065369D01*
X12488630Y-4058858D01*
X12499094Y-4048998D01*
X12499095Y-4048998D01*
X12506358Y-4036590D01*
X12509497Y-4023979D01*
X14481047Y-4023979D01*
X14484530Y-4037929D01*
X14484530Y-4037930D01*
X14491802Y-4050332D01*
X14502274Y-4060184D01*
X14515098Y-4066687D01*
X14520943Y-4067990D01*
X14520944Y-4067990D01*
X14621091Y-4079284D01*
X14652356Y-3802041D01*
X14507275Y-3785680D01*
X14481078Y-4017991D01*
X14481078Y-4017992D01*
X14481047Y-4023979D01*
X12509497Y-4023979D01*
X12509831Y-4022638D01*
X12509831Y-4022638D01*
X12509795Y-4016650D01*
X12509795Y-4016648D01*
X12483428Y-3784358D01*
X12338359Y-3800825D01*
X11780559Y-3800825D01*
X11727333Y-3648816D01*
X11726975Y-3641839D01*
X11730447Y-3635775D01*
X11734946Y-3633013D01*
X11911286Y-3571405D01*
X11913976Y-3570790D01*
X12100111Y-3549662D01*
X12106994Y-3550862D01*
X12112136Y-3555592D01*
X12113831Y-3560584D01*
X12137971Y-3773250D01*
X12307879Y-3753963D01*
X12477788Y-3734677D01*
X12476591Y-3724129D01*
X13014020Y-3724129D01*
X13040388Y-3956421D01*
X13041696Y-3962265D01*
X13048207Y-3975084D01*
X13048208Y-3975084D01*
X13058067Y-3985548D01*
X13058068Y-3985549D01*
X13070475Y-3992812D01*
X13084427Y-3996285D01*
X13090416Y-3996249D01*
X13090417Y-3996249D01*
X13174337Y-3986723D01*
X13800294Y-3986723D01*
X13900442Y-3998017D01*
X13900443Y-3998017D01*
X13906430Y-3998048D01*
X13906431Y-3998048D01*
X13920380Y-3994565D01*
X13920381Y-3994564D01*
X13932783Y-3987292D01*
X13932784Y-3987292D01*
X13942635Y-3976821D01*
X13942635Y-3976820D01*
X13949138Y-3963997D01*
X13950441Y-3958152D01*
X13950441Y-3958151D01*
X13976639Y-3725841D01*
X13831558Y-3709480D01*
X13800294Y-3986723D01*
X13174337Y-3986723D01*
X13190556Y-3984882D01*
X13159089Y-3707662D01*
X13014020Y-3724129D01*
X12476591Y-3724129D01*
X12476329Y-3721823D01*
X12474082Y-3702023D01*
X13208770Y-3702023D01*
X13240237Y-3979243D01*
X13340377Y-3967876D01*
X13346222Y-3966568D01*
X13359040Y-3960056D01*
X13369505Y-3950197D01*
X13369505Y-3950196D01*
X13376768Y-3937788D01*
X13379748Y-3925816D01*
X13610564Y-3925816D01*
X13614047Y-3939766D01*
X13614048Y-3939766D01*
X13621320Y-3952169D01*
X13631792Y-3962021D01*
X13644615Y-3968523D01*
X13650461Y-3969827D01*
X13650461Y-3969827D01*
X13750609Y-3981120D01*
X13781873Y-3703878D01*
X13636793Y-3687517D01*
X13610595Y-3919827D01*
X13610595Y-3919828D01*
X13610564Y-3925816D01*
X13379748Y-3925816D01*
X13380241Y-3923837D01*
X13380241Y-3923836D01*
X13380206Y-3917848D01*
X13380206Y-3917847D01*
X13353838Y-3685556D01*
X13208770Y-3702023D01*
X12474082Y-3702023D01*
X12453648Y-3522011D01*
X12454848Y-3515128D01*
X12459579Y-3509986D01*
X12464570Y-3508292D01*
X12970522Y-3450861D01*
X12977405Y-3452061D01*
X12982547Y-3456792D01*
X12984241Y-3461784D01*
X13008381Y-3674448D01*
X13178290Y-3655162D01*
X13348199Y-3635875D01*
X13324059Y-3423211D01*
X13325259Y-3416328D01*
X13329989Y-3411186D01*
X13334981Y-3409492D01*
X13514640Y-3389098D01*
X13517428Y-3389098D01*
X13656202Y-3404747D01*
G37*
%TD.AperFunction*%
%TD*%
M02*
