M48
; DRILL file {KiCad 9.0.7} date 2026-04-10T14:20:07+0200
; FORMAT={-:-/ absolute / metric / decimal}
; #@! TF.CreationDate,2026-04-10T14:20:07+02:00
; #@! TF.GenerationSoftware,Kicad,Pcbnew,9.0.7
; #@! TF.FileFunction,Plated,1,2,PTH
FMAT,2
METRIC
; #@! TA.AperFunction,Plated,PTH,ViaDrill
T1C0.500
; #@! TA.AperFunction,Plated,PTH,ComponentDrill
T2C1.000
%
G90
G05
T1
X98.8Y-63.6
X98.8Y-89.6
X98.8Y-130.2
X111.8Y-92.0
X113.6Y-87.8
X113.761Y-84.839
X113.8Y-79.0
X114.548Y-82.6
X114.8Y-52.8
X114.8Y-92.4
X114.8Y-98.0
X117.6Y-49.6
X117.6Y-70.6
X119.2Y-93.8
X119.2Y-106.6
X119.8Y-64.4
X120.8Y-43.2
X120.8Y-62.4
X121.438Y-54.2
X122.0Y-120.6
X123.2Y-43.6
X123.2Y-98.0
X123.4Y-52.0
X123.4Y-57.4
X123.4Y-72.8
X123.762Y-92.763
X125.2Y-86.2
X126.0Y-66.8
X126.6Y-56.4
X129.6Y-91.2
X130.6Y-96.6
X131.0Y-116.6
X132.2Y-50.4
X132.475Y-127.875
X133.8Y-84.4
X135.4Y-93.8
X137.0Y-71.8
X138.2Y-89.0
X138.6Y-76.2
X140.0Y-66.0
X141.4Y-58.4
X141.4Y-94.8
X141.4Y-118.2
X142.0Y-84.8
X143.2Y-54.4
X144.4Y-107.2
X145.8Y-68.95
X146.0Y-74.8
X147.2Y-54.6
X148.6Y-68.35
X150.4Y-73.4
X151.2Y-70.4
X153.4Y-81.6
X154.4Y-65.0
X156.6Y-60.0
X158.4Y-48.2
X159.0Y-54.6
X160.2Y-105.2
X160.4Y-90.8
X161.0Y-94.8
X161.0Y-99.0
X163.2Y-90.0
X164.8Y-78.6
X165.4Y-94.8
X165.4Y-99.0
X166.8Y-53.4
X168.8Y-54.8
X170.8Y-61.4
X170.8Y-105.2
X170.8Y-130.2
T2
X108.46Y-57.18
X108.46Y-59.72
X108.46Y-62.26
X108.46Y-64.8
X108.46Y-67.34
X108.46Y-69.88
X108.46Y-72.42
X108.46Y-74.96
X108.46Y-77.5
X108.46Y-80.04
X108.46Y-82.58
X108.46Y-85.12
X108.46Y-87.66
X111.0Y-57.18
X111.0Y-59.72
X111.0Y-62.26
X111.0Y-64.8
X111.0Y-67.34
X111.0Y-69.88
X111.0Y-72.42
X111.0Y-74.96
X111.0Y-77.5
X111.0Y-80.04
X111.0Y-82.58
X111.0Y-85.12
X111.0Y-87.66
X159.26Y-57.18
X159.26Y-59.72
X159.26Y-62.26
X159.26Y-64.8
X159.26Y-67.34
X159.26Y-69.88
X159.26Y-72.42
X159.26Y-74.96
X159.26Y-77.5
X159.26Y-80.04
X159.26Y-82.58
X159.26Y-85.12
X159.26Y-87.66
X161.8Y-57.18
X161.8Y-59.72
X161.8Y-62.26
X161.8Y-64.8
X161.8Y-67.34
X161.8Y-69.88
X161.8Y-72.42
X161.8Y-74.96
X161.8Y-77.5
X161.8Y-80.04
X161.8Y-82.58
X161.8Y-85.12
X161.8Y-87.66
M30
